  0
SECTION
  2
HEADER
  9
$ACADVER
  1
AC1014
  9
$HANDSEED
  5
FFFF
  9
$MEASUREMENT
 70
     1
  0
ENDSEC
  0
SECTION
  2
TABLES
  0
TABLE
  2
VPORT
  5
8
330
0
100
AcDbSymbolTable
 70
     4
  0
VPORT
  5
2E
330
8
100
AcDbSymbolTableRecord
100
AcDbViewportTableRecord
  2
*ACTIVE
 70
     0
 10
0.0
 20
0.0
 11
1.0
 21
1.0
 12
210.0
 22
148.5
 13
0.0
 23
0.0
 14
10.0
 24
10.0
 15
10.0
 25
10.0
 16
0.0
 26
0.0
 36
1.0
 17
0.0
 27
0.0
 37
0.0
 40
341.0
 41
1.24
 42
50.0
 43
0.0
 44
0.0
 50
0.0
 51
0.0
 71
     0
 72
   100
 73
     1
 74
     3
 75
     0
 76
     0
 77
     0
 78
     0
  0
ENDTAB
  0
TABLE
  2
LTYPE
  5
5
330
0
100
AcDbSymbolTable
 70
     1
  0
LTYPE
  5
14
330
5
100
AcDbSymbolTableRecord
100
AcDbLinetypeTableRecord
  2
BYBLOCK
 70
     0
  3

 72
    65
 73
     0
 40
0.0
  0
LTYPE
  5
15
330
5
100
AcDbSymbolTableRecord
100
AcDbLinetypeTableRecord
  2
BYLAYER
 70
     0
  3

 72
    65
 73
     0
 40
0.0
  0
LTYPE
  5
16
330
5
100
AcDbSymbolTableRecord
100
AcDbLinetypeTableRecord
  2
CONTINUOUS
 70
     0
  3
Solid line
 72
    65
 73
     0
 40
0.0
  0
ENDTAB
  0
TABLE
  2
LAYER
  5
2
100
AcDbSymbolTable
 70
3
  0
LAYER
  5
50
100
AcDbSymbolTableRecord
100
AcDbLayerTableRecord
  2
0
 70
0
  6
CONTINUOUS
  0
LAYER
  5
51
100
AcDbSymbolTableRecord
100
AcDbLayerTableRecord
  2
Layer_2
 70
0
  6
CONTINUOUS
  0
LAYER
  5
52
100
AcDbSymbolTableRecord
100
AcDbLayerTableRecord
  2
Layer_1
 70
0
  6
CONTINUOUS
  0
ENDTAB
  0
TABLE
  2
STYLE
  5
3
330
0
100
AcDbSymbolTable
 70
     1
  0
STYLE
  5
11
330
3
100
AcDbSymbolTableRecord
100
AcDbTextStyleTableRecord
  2
STANDARD
 70
     0
 40
0.0
 41
1.0
 50
0.0
 71
     0
 42
2.5
  3
txt
  4

  0
ENDTAB
  0
TABLE
  2
VIEW
  5
6
330
0
100
AcDbSymbolTable
 70
     0
  0
ENDTAB
  0
TABLE
  2
UCS
  5
7
330
0
100
AcDbSymbolTable
 70
     0
  0
ENDTAB
  0
TABLE
  2
APPID
  5
9
330
0
100
AcDbSymbolTable
 70
     2
  0
APPID
  5
12
330
9
100
AcDbSymbolTableRecord
100
AcDbRegAppTableRecord
  2
ACAD
 70
     0
  0
ENDTAB
  0
TABLE
  2
DIMSTYLE
  5
A
330
0
100
AcDbSymbolTable
 70
     1
  0
DIMSTYLE
105
27
330
A
100
AcDbSymbolTableRecord
100
AcDbDimStyleTableRecord
  2
ISO-25
 70
     0
  3

  4

  5

  6

  7

 40
1.0
 41
2.5
 42
0.625
 43
3.75
 44
1.25
 45
0.0
 46
0.0
 47
0.0
 48
0.0
140
2.5
141
2.5
142
0.0
143
0.03937007874016
144
1.0
145
0.0
146
1.0
147
0.625
 71
     0
 72
     0
 73
     0
 74
     0
 75
     0
 76
     0
 77
     1
 78
     8
170
     0
171
     3
172
     1
173
     0
174
     0
175
     0
176
     0
177
     0
178
     0
270
     2
271
     2
272
     2
273
     2
274
     3
340
11
275
     0
280
     0
281
     0
282
     0
283
     0
284
     8
285
     0
286
     0
287
     3
288
     0
  0
ENDTAB
  0
TABLE
  2
BLOCK_RECORD
  5
1
330
0
100
AcDbSymbolTable
 70
     1
  0
BLOCK_RECORD
  5
1F
330
1
100
AcDbSymbolTableRecord
100
AcDbBlockTableRecord
  2
*MODEL_SPACE
  0
BLOCK_RECORD
  5
1B
330
1
100
AcDbSymbolTableRecord
100
AcDbBlockTableRecord
  2
*PAPER_SPACE
  0
ENDTAB
  0
ENDSEC
  0
SECTION
  2
BLOCKS
  0
BLOCK
  5
20
330
1F
100
AcDbEntity
  8
0
100
AcDbBlockBegin
  2
*MODEL_SPACE
 70
     0
 10
0.0
 20
0.0
 30
0.0
  3
*MODEL_SPACE
  1

  0
ENDBLK
  5
21
330
1F
100
AcDbEntity
  8
0
100
AcDbBlockEnd
  0
BLOCK
  5
1C
330
1B
100
AcDbEntity
 67
     1
  8
0
100
AcDbBlockBegin
  2
*PAPER_SPACE
  1

  0
ENDBLK
  5
1D
330
1B
100
AcDbEntity
 67
     1
  8
0
100
AcDbBlockEnd
  0
ENDSEC
  0
SECTION
  2
ENTITIES
  0
LWPOLYLINE
  5
100
100
AcDbEntity
  8
Layer_2
 62
1
100
AcDbPolyline
 90
3
 70
0
 10
1.100804
 20
6.387084
 30
0.0
 10
1.974458
 20
6.387084
 30
0.0
 10
1.974458
 20
6.387084
 30
0.0
  0
LWPOLYLINE
  5
101
100
AcDbEntity
  8
Layer_2
 62
1
100
AcDbPolyline
 90
3
 70
0
 10
1.132605
 20
6.333418
 30
0.0
 10
2.006260
 20
6.333418
 30
0.0
 10
2.006260
 20
6.333418
 30
0.0
  0
LWPOLYLINE
  5
102
100
AcDbEntity
  8
Layer_2
 62
1
100
AcDbPolyline
 90
3
 70
0
 10
1.122290
 20
6.449522
 30
0.0
 10
1.276795
 20
6.295100
 30
0.0
 10
1.276795
 20
6.295100
 30
0.0
  0
LWPOLYLINE
  5
103
100
AcDbEntity
  8
Layer_2
 62
1
100
AcDbPolyline
 90
3
 70
0
 10
1.492621
 20
6.444749
 30
0.0
 10
1.647126
 20
6.290327
 30
0.0
 10
1.647126
 20
6.290327
 30
0.0
  0
LWPOLYLINE
  5
104
100
AcDbEntity
  8
Layer_1
 62
7
100
AcDbPolyline
 90
4
 70
1
 10
1.765711
 20
6.438623
 30
0.0
 10
1.923466
 20
6.438623
 30
0.0
 10
1.872177
 20
6.489912
 30
0.0
 10
1.817000
 20
6.489912
 30
0.0
  0
LWPOLYLINE
  5
105
100
AcDbEntity
  8
Layer_1
 62
7
100
AcDbPolyline
 90
7
 70
1
 10
1.923151
 20
6.428323
 30
0.0
 10
1.875015
 20
6.428323
 30
0.0
 10
1.833921
 20
6.387229
 30
0.0
 10
1.744901
 20
6.387229
 30
0.0
 10
1.796715
 20
6.335415
 30
0.0
 10
1.871231
 20
6.335415
 30
0.0
 10
1.923256
 20
6.387439
 30
0.0
  0
LWPOLYLINE
  5
106
100
AcDbEntity
  8
Layer_1
 62
7
100
AcDbPolyline
 90
17
 70
1
 10
1.691421
 20
6.416921
 30
0.0
 10
1.670260
 20
6.438292
 30
0.0
 10
1.670260
 20
6.450133
 30
0.0
 10
1.692472
 20
6.472414
 30
0.0
 10
1.754270
 20
6.472343
 30
0.0
 10
1.727435
 20
6.499319
 30
0.0
 10
1.670190
 20
6.499319
 30
0.0
 10
1.635998
 20
6.465126
 30
0.0
 10
1.635789
 20
6.430934
 30
0.0
 10
1.670612
 20
6.396321
 30
0.0
 10
1.726664
 20
6.396321
 30
0.0
 10
1.761487
 20
6.431005
 30
0.0
 10
1.761487
 20
6.465127
 30
0.0
 10
1.711179
 20
6.465056
 30
0.0
 10
1.726104
 20
6.450132
 30
0.0
 10
1.726104
 20
6.438291
 30
0.0
 10
1.704803
 20
6.416920
 30
0.0
  0
LWPOLYLINE
  5
107
100
AcDbEntity
  8
Layer_1
 62
7
100
AcDbPolyline
 90
4
 70
1
 10
1.623316
 20
6.499320
 30
0.0
 10
1.587862
 20
6.463866
 30
0.0
 10
1.587862
 20
6.396322
 30
0.0
 10
1.623316
 20
6.396322
 30
0.0
  0
LWPOLYLINE
  5
108
100
AcDbEntity
  8
Layer_1
 62
7
100
AcDbPolyline
 90
12
 70
1
 10
1.533420
 20
6.499320
 30
0.0
 10
1.497966
 20
6.463866
 30
0.0
 10
1.497966
 20
6.396322
 30
0.0
 10
1.533420
 20
6.396322
 30
0.0
 10
1.533420
 20
6.422317
 30
0.0
 10
1.559345
 20
6.396322
 30
0.0
 10
1.565020
 20
6.396322
 30
0.0
 10
1.581766
 20
6.412998
 30
0.0
 10
1.581766
 20
6.458261
 30
0.0
 10
1.568313
 20
6.444738
 30
0.0
 10
1.554300
 20
6.444809
 30
0.0
 10
1.533420
 20
6.465689
 30
0.0
  0
LWPOLYLINE
  5
109
100
AcDbEntity
  8
Layer_1
 62
7
100
AcDbPolyline
 90
4
 70
1
 10
1.485424
 20
6.499320
 30
0.0
 10
1.449970
 20
6.463866
 30
0.0
 10
1.449970
 20
6.396322
 30
0.0
 10
1.485424
 20
6.396322
 30
0.0
  0
LWPOLYLINE
  5
10a
100
AcDbEntity
  8
Layer_1
 62
7
100
AcDbPolyline
 90
12
 70
1
 10
1.395529
 20
6.499320
 30
0.0
 10
1.360075
 20
6.463866
 30
0.0
 10
1.360075
 20
6.396322
 30
0.0
 10
1.395529
 20
6.396322
 30
0.0
 10
1.395529
 20
6.422317
 30
0.0
 10
1.421453
 20
6.396322
 30
0.0
 10
1.427129
 20
6.396322
 30
0.0
 10
1.443875
 20
6.412998
 30
0.0
 10
1.443875
 20
6.458261
 30
0.0
 10
1.430422
 20
6.444738
 30
0.0
 10
1.416408
 20
6.444809
 30
0.0
 10
1.395529
 20
6.465689
 30
0.0
  0
LWPOLYLINE
  5
10b
100
AcDbEntity
  8
Layer_1
 62
7
100
AcDbPolyline
 90
17
 70
1
 10
1.277466
 20
6.416921
 30
0.0
 10
1.256306
 20
6.438292
 30
0.0
 10
1.256306
 20
6.450133
 30
0.0
 10
1.278517
 20
6.472414
 30
0.0
 10
1.340316
 20
6.472343
 30
0.0
 10
1.313480
 20
6.499319
 30
0.0
 10
1.256236
 20
6.499319
 30
0.0
 10
1.222043
 20
6.465126
 30
0.0
 10
1.221835
 20
6.430934
 30
0.0
 10
1.256658
 20
6.396321
 30
0.0
 10
1.312710
 20
6.396321
 30
0.0
 10
1.347533
 20
6.431005
 30
0.0
 10
1.347533
 20
6.465127
 30
0.0
 10
1.297225
 20
6.465056
 30
0.0
 10
1.312149
 20
6.450132
 30
0.0
 10
1.312149
 20
6.438291
 30
0.0
 10
1.290849
 20
6.416920
 30
0.0
  0
LWPOLYLINE
  5
10c
100
AcDbEntity
  8
Layer_1
 62
7
100
AcDbPolyline
 90
4
 70
1
 10
1.209361
 20
6.499320
 30
0.0
 10
1.173907
 20
6.463936
 30
0.0
 10
1.173907
 20
6.396322
 30
0.0
 10
1.209361
 20
6.396322
 30
0.0
  0
LWPOLYLINE
  5
10d
100
AcDbEntity
  8
Layer_1
 62
7
100
AcDbPolyline
 90
8
 70
1
 10
1.167812
 20
6.465127
 30
0.0
 10
1.133549
 20
6.430935
 30
0.0
 10
1.126122
 20
6.430935
 30
0.0
 10
1.126122
 20
6.499320
 30
0.0
 10
1.090598
 20
6.463936
 30
0.0
 10
1.090598
 20
6.396322
 30
0.0
 10
1.133269
 20
6.396322
 30
0.0
 10
1.167812
 20
6.430935
 30
0.0
  0
LWPOLYLINE
  5
10e
100
AcDbEntity
  8
Layer_1
 62
7
100
AcDbPolyline
 90
4
 70
1
 10
0.917649
 20
6.439032
 30
0.0
 10
1.083287
 20
6.439032
 30
0.0
 10
1.031998
 20
6.490321
 30
0.0
 10
0.969043
 20
6.490321
 30
0.0
  0
LWPOLYLINE
  5
10f
100
AcDbEntity
  8
Layer_1
 62
7
100
AcDbPolyline
 90
9
 70
1
 10
0.924586
 20
6.382173
 30
0.0
 10
0.970935
 20
6.335824
 30
0.0
 10
1.031578
 20
6.335824
 30
0.0
 10
1.083287
 20
6.387743
 30
0.0
 10
1.020752
 20
6.387743
 30
0.0
 10
1.020961
 20
6.395836
 30
0.0
 10
1.053437
 20
6.428627
 30
0.0
 10
0.965468
 20
6.428734
 30
0.0
 10
0.924689
 20
6.387640
 30
0.0
  0
LWPOLYLINE
  5
110
100
AcDbEntity
  8
Layer_1
 62
7
100
AcDbPolyline
 90
6
 70
1
 10
0.900284
 20
6.439132
 30
0.0
 10
0.864830
 20
6.439132
 30
0.0
 10
0.864830
 20
6.363250
 30
0.0
 10
0.817185
 20
6.363250
 30
0.0
 10
0.789999
 20
6.336134
 30
0.0
 10
0.900284
 20
6.336134
 30
0.0
  0
LWPOLYLINE
  5
111
100
AcDbEntity
  8
Layer_1
 62
7
100
AcDbPolyline
 90
4
 70
1
 10
0.858734
 20
6.398073
 30
0.0
 10
0.831478
 20
6.398073
 30
0.0
 10
0.803942
 20
6.370747
 30
0.0
 10
0.858734
 20
6.370747
 30
0.0
  0
LWPOLYLINE
  5
112
100
AcDbEntity
  8
Layer_1
 62
7
100
AcDbPolyline
 90
4
 70
1
 10
0.858734
 20
6.439132
 30
0.0
 10
0.844721
 20
6.439132
 30
0.0
 10
0.810458
 20
6.404940
 30
0.0
 10
0.858734
 20
6.404940
 30
0.0
  0
LWPOLYLINE
  5
113
100
AcDbEntity
  8
Layer_1
 62
7
100
AcDbPolyline
 90
4
 70
1
 10
0.777246
 20
6.439132
 30
0.0
 10
0.741793
 20
6.403749
 30
0.0
 10
0.741793
 20
6.336134
 30
0.0
 10
0.777246
 20
6.336134
 30
0.0
  0
LWPOLYLINE
  5
114
100
AcDbEntity
  8
Layer_1
 62
7
100
AcDbPolyline
 90
8
 70
1
 10
0.735697
 20
6.404940
 30
0.0
 10
0.701434
 20
6.370747
 30
0.0
 10
0.694007
 20
6.370747
 30
0.0
 10
0.694007
 20
6.439132
 30
0.0
 10
0.658483
 20
6.403749
 30
0.0
 10
0.658483
 20
6.336134
 30
0.0
 10
0.701154
 20
6.336134
 30
0.0
 10
0.735697
 20
6.370747
 30
0.0
  0
LWPOLYLINE
  5
115
100
AcDbEntity
  8
Layer_1
 62
7
100
AcDbPolyline
 90
4
 70
1
 10
0.534815
 20
6.404940
 30
0.0
 10
0.645241
 20
6.404940
 30
0.0
 10
0.611048
 20
6.439132
 30
0.0
 10
0.569078
 20
6.439132
 30
0.0
  0
LWPOLYLINE
  5
116
100
AcDbEntity
  8
Layer_1
 62
7
100
AcDbPolyline
 90
9
 70
1
 10
0.539440
 20
6.367034
 30
0.0
 10
0.570339
 20
6.336134
 30
0.0
 10
0.610768
 20
6.336134
 30
0.0
 10
0.645241
 20
6.370747
 30
0.0
 10
0.603551
 20
6.370747
 30
0.0
 10
0.603693
 20
6.376142
 30
0.0
 10
0.625344
 20
6.398003
 30
0.0
 10
0.566698
 20
6.398074
 30
0.0
 10
0.539512
 20
6.370678
 30
0.0
  0
LWPOLYLINE
  5
117
100
AcDbEntity
  8
Layer_1
 62
7
100
AcDbPolyline
 90
6
 70
1
 10
0.521363
 20
6.439132
 30
0.0
 10
0.485909
 20
6.439132
 30
0.0
 10
0.485909
 20
6.363250
 30
0.0
 10
0.438263
 20
6.363250
 30
0.0
 10
0.411078
 20
6.336134
 30
0.0
 10
0.521363
 20
6.336134
 30
0.0
  0
LWPOLYLINE
  5
118
100
AcDbEntity
  8
Layer_1
 62
7
100
AcDbPolyline
 90
4
 70
1
 10
0.479813
 20
6.398073
 30
0.0
 10
0.452557
 20
6.398073
 30
0.0
 10
0.425021
 20
6.370747
 30
0.0
 10
0.479813
 20
6.370747
 30
0.0
  0
LWPOLYLINE
  5
119
100
AcDbEntity
  8
Layer_1
 62
7
100
AcDbPolyline
 90
4
 70
1
 10
0.479813
 20
6.439132
 30
0.0
 10
0.465800
 20
6.439132
 30
0.0
 10
0.431537
 20
6.404940
 30
0.0
 10
0.479813
 20
6.404940
 30
0.0
  0
ENDSEC
  0
SECTION
  2
OBJECTS
  0
DICTIONARY
  5
C
330
0
100
AcDbDictionary
  3
ACAD_GROUP
350
D
  3
ACAD_MLINESTYLE
350
17
  0
DICTIONARY
  5
D
330
C
100
AcDbDictionary
  0
DICTIONARY
  5
1A
330
C
100
AcDbDictionary
  0
DICTIONARY
  5
17
330
C
100
AcDbDictionary
  3
STANDARD
350
18
  0
DICTIONARY
  5
19
330
C
100
AcDbDictionary
  0
ENDSEC
  0
EOF
