  0
SECTION
  2
HEADER
  9
$ACADVER
  1
AC1014
  9
$HANDSEED
  5
FFFF
  9
$MEASUREMENT
 70
     1
  0
ENDSEC
  0
SECTION
  2
TABLES
  0
TABLE
  2
VPORT
  5
8
330
0
100
AcDbSymbolTable
 70
     4
  0
VPORT
  5
2E
330
8
100
AcDbSymbolTableRecord
100
AcDbViewportTableRecord
  2
*ACTIVE
 70
     0
 10
0.0
 20
0.0
 11
1.0
 21
1.0
 12
210.0
 22
148.5
 13
0.0
 23
0.0
 14
10.0
 24
10.0
 15
10.0
 25
10.0
 16
0.0
 26
0.0
 36
1.0
 17
0.0
 27
0.0
 37
0.0
 40
341.0
 41
1.24
 42
50.0
 43
0.0
 44
0.0
 50
0.0
 51
0.0
 71
     0
 72
   100
 73
     1
 74
     3
 75
     0
 76
     0
 77
     0
 78
     0
  0
ENDTAB
  0
TABLE
  2
LTYPE
  5
5
330
0
100
AcDbSymbolTable
 70
     1
  0
LTYPE
  5
14
330
5
100
AcDbSymbolTableRecord
100
AcDbLinetypeTableRecord
  2
BYBLOCK
 70
     0
  3

 72
    65
 73
     0
 40
0.0
  0
LTYPE
  5
15
330
5
100
AcDbSymbolTableRecord
100
AcDbLinetypeTableRecord
  2
BYLAYER
 70
     0
  3

 72
    65
 73
     0
 40
0.0
  0
LTYPE
  5
16
330
5
100
AcDbSymbolTableRecord
100
AcDbLinetypeTableRecord
  2
CONTINUOUS
 70
     0
  3
Solid line
 72
    65
 73
     0
 40
0.0
  0
ENDTAB
  0
TABLE
  2
LAYER
  5
2
100
AcDbSymbolTable
 70
4
  0
LAYER
  5
50
100
AcDbSymbolTableRecord
100
AcDbLayerTableRecord
  2
0
 70
0
  6
CONTINUOUS
  0
LAYER
  5
51
100
AcDbSymbolTableRecord
100
AcDbLayerTableRecord
  2
Layer_2
 70
0
  6
CONTINUOUS
  0
LAYER
  5
52
100
AcDbSymbolTableRecord
100
AcDbLayerTableRecord
  2
Layer_1
 70
0
  6
CONTINUOUS
  0
LAYER
  5
53
100
AcDbSymbolTableRecord
100
AcDbLayerTableRecord
  2
Layer_3
 70
0
  6
CONTINUOUS
  0
ENDTAB
  0
TABLE
  2
STYLE
  5
3
330
0
100
AcDbSymbolTable
 70
     1
  0
STYLE
  5
11
330
3
100
AcDbSymbolTableRecord
100
AcDbTextStyleTableRecord
  2
STANDARD
 70
     0
 40
0.0
 41
1.0
 50
0.0
 71
     0
 42
2.5
  3
txt
  4

  0
ENDTAB
  0
TABLE
  2
VIEW
  5
6
330
0
100
AcDbSymbolTable
 70
     0
  0
ENDTAB
  0
TABLE
  2
UCS
  5
7
330
0
100
AcDbSymbolTable
 70
     0
  0
ENDTAB
  0
TABLE
  2
APPID
  5
9
330
0
100
AcDbSymbolTable
 70
     2
  0
APPID
  5
12
330
9
100
AcDbSymbolTableRecord
100
AcDbRegAppTableRecord
  2
ACAD
 70
     0
  0
ENDTAB
  0
TABLE
  2
DIMSTYLE
  5
A
330
0
100
AcDbSymbolTable
 70
     1
  0
DIMSTYLE
105
27
330
A
100
AcDbSymbolTableRecord
100
AcDbDimStyleTableRecord
  2
ISO-25
 70
     0
  3

  4

  5

  6

  7

 40
1.0
 41
2.5
 42
0.625
 43
3.75
 44
1.25
 45
0.0
 46
0.0
 47
0.0
 48
0.0
140
2.5
141
2.5
142
0.0
143
0.03937007874016
144
1.0
145
0.0
146
1.0
147
0.625
 71
     0
 72
     0
 73
     0
 74
     0
 75
     0
 76
     0
 77
     1
 78
     8
170
     0
171
     3
172
     1
173
     0
174
     0
175
     0
176
     0
177
     0
178
     0
270
     2
271
     2
272
     2
273
     2
274
     3
340
11
275
     0
280
     0
281
     0
282
     0
283
     0
284
     8
285
     0
286
     0
287
     3
288
     0
  0
ENDTAB
  0
TABLE
  2
BLOCK_RECORD
  5
1
330
0
100
AcDbSymbolTable
 70
     1
  0
BLOCK_RECORD
  5
1F
330
1
100
AcDbSymbolTableRecord
100
AcDbBlockTableRecord
  2
*MODEL_SPACE
  0
BLOCK_RECORD
  5
1B
330
1
100
AcDbSymbolTableRecord
100
AcDbBlockTableRecord
  2
*PAPER_SPACE
  0
ENDTAB
  0
ENDSEC
  0
SECTION
  2
BLOCKS
  0
BLOCK
  5
20
330
1F
100
AcDbEntity
  8
0
100
AcDbBlockBegin
  2
*MODEL_SPACE
 70
     0
 10
0.0
 20
0.0
 30
0.0
  3
*MODEL_SPACE
  1

  0
ENDBLK
  5
21
330
1F
100
AcDbEntity
  8
0
100
AcDbBlockEnd
  0
BLOCK
  5
1C
330
1B
100
AcDbEntity
 67
     1
  8
0
100
AcDbBlockBegin
  2
*PAPER_SPACE
  1

  0
ENDBLK
  5
1D
330
1B
100
AcDbEntity
 67
     1
  8
0
100
AcDbBlockEnd
  0
ENDSEC
  0
SECTION
  2
ENTITIES
  0
LWPOLYLINE
  5
100
100
AcDbEntity
  8
Layer_2
 62
1
100
AcDbPolyline
 90
3
 70
0
 10
1.897717
 20
6.405611
 30
0.0
 10
1.024062
 20
6.405611
 30
0.0
 10
1.024062
 20
6.405611
 30
0.0
  0
LWPOLYLINE
  5
101
100
AcDbEntity
  8
Layer_2
 62
1
100
AcDbPolyline
 90
3
 70
0
 10
1.133387
 20
6.335762
 30
0.0
 10
2.007041
 20
6.335762
 30
0.0
 10
2.007041
 20
6.335762
 30
0.0
  0
LWPOLYLINE
  5
102
100
AcDbEntity
  8
Layer_2
 62
1
100
AcDbPolyline
 90
3
 70
0
 10
1.685876
 20
6.324274
 30
0.0
 10
1.837646
 20
6.481384
 30
0.0
 10
1.837646
 20
6.481384
 30
0.0
  0
LWPOLYLINE
  5
103
100
AcDbEntity
  8
Layer_2
 62
1
100
AcDbPolyline
 90
3
 70
0
 10
1.642039
 20
6.488603
 30
0.0
 10
1.793183
 20
6.330890
 30
0.0
 10
1.793183
 20
6.330890
 30
0.0
  0
LWPOLYLINE
  5
104
100
AcDbEntity
  8
Layer_1
 62
7
100
AcDbPolyline
 90
4
 70
1
 10
1.768031
 20
6.407797
 30
0.0
 10
1.870492
 20
6.407797
 30
0.0
 10
1.837180
 20
6.442523
 30
0.0
 10
1.801342
 20
6.442523
 30
0.0
  0
LWPOLYLINE
  5
105
100
AcDbEntity
  8
Layer_1
 62
7
100
AcDbPolyline
 90
7
 70
1
 10
1.870287
 20
6.400823
 30
0.0
 10
1.839023
 20
6.400823
 30
0.0
 10
1.812333
 20
6.372999
 30
0.0
 10
1.754515
 20
6.372999
 30
0.0
 10
1.788168
 20
6.337917
 30
0.0
 10
1.836566
 20
6.337917
 30
0.0
 10
1.870355
 20
6.373141
 30
0.0
  0
LWPOLYLINE
  5
106
100
AcDbEntity
  8
Layer_1
 62
7
100
AcDbPolyline
 90
4
 70
1
 10
1.660449
 20
6.442523
 30
0.0
 10
1.768030
 20
6.442523
 30
0.0
 10
1.734719
 20
6.477250
 30
0.0
 10
1.693830
 20
6.477250
 30
0.0
  0
LWPOLYLINE
  5
107
100
AcDbEntity
  8
Layer_1
 62
7
100
AcDbPolyline
 90
9
 70
1
 10
1.664955
 20
6.404025
 30
0.0
 10
1.695058
 20
6.372643
 30
0.0
 10
1.734445
 20
6.372643
 30
0.0
 10
1.768030
 20
6.407797
 30
0.0
 10
1.727414
 20
6.407797
 30
0.0
 10
1.727550
 20
6.413276
 30
0.0
 10
1.748643
 20
6.435478
 30
0.0
 10
1.691507
 20
6.435551
 30
0.0
 10
1.665022
 20
6.407727
 30
0.0
  0
LWPOLYLINE
  5
108
100
AcDbEntity
  8
Layer_3
 62
7
100
AcDbPolyline
 90
17
 70
1
 10
1.731939
 20
6.300434
 30
0.0
 10
1.718196
 20
6.314904
 30
0.0
 10
1.718196
 20
6.322921
 30
0.0
 10
1.732622
 20
6.338007
 30
0.0
 10
1.772760
 20
6.337959
 30
0.0
 10
1.755330
 20
6.356224
 30
0.0
 10
1.718150
 20
6.356224
 30
0.0
 10
1.695942
 20
6.333073
 30
0.0
 10
1.695807
 20
6.309922
 30
0.0
 10
1.718424
 20
6.286486
 30
0.0
 10
1.754831
 20
6.286486
 30
0.0
 10
1.777448
 20
6.309969
 30
0.0
 10
1.777448
 20
6.333073
 30
0.0
 10
1.744774
 20
6.333025
 30
0.0
 10
1.754467
 20
6.322920
 30
0.0
 10
1.754467
 20
6.314902
 30
0.0
 10
1.740632
 20
6.300433
 30
0.0
  0
LWPOLYLINE
  5
109
100
AcDbEntity
  8
Layer_3
 62
7
100
AcDbPolyline
 90
4
 70
1
 10
1.687705
 20
6.356224
 30
0.0
 10
1.664678
 20
6.332220
 30
0.0
 10
1.664678
 20
6.286487
 30
0.0
 10
1.687705
 20
6.286487
 30
0.0
  0
LWPOLYLINE
  5
10a
100
AcDbEntity
  8
Layer_3
 62
7
100
AcDbPolyline
 90
12
 70
1
 10
1.629318
 20
6.356224
 30
0.0
 10
1.606291
 20
6.332220
 30
0.0
 10
1.606291
 20
6.286487
 30
0.0
 10
1.629318
 20
6.286487
 30
0.0
 10
1.629318
 20
6.304087
 30
0.0
 10
1.646156
 20
6.286487
 30
0.0
 10
1.649843
 20
6.286487
 30
0.0
 10
1.660719
 20
6.297778
 30
0.0
 10
1.660719
 20
6.328424
 30
0.0
 10
1.651981
 20
6.319268
 30
0.0
 10
1.642880
 20
6.319316
 30
0.0
 10
1.629318
 20
6.333454
 30
0.0
  0
LWPOLYLINE
  5
10b
100
AcDbEntity
  8
Layer_3
 62
7
100
AcDbPolyline
 90
4
 70
1
 10
1.598145
 20
6.356224
 30
0.0
 10
1.575118
 20
6.332220
 30
0.0
 10
1.575118
 20
6.286487
 30
0.0
 10
1.598145
 20
6.286487
 30
0.0
  0
LWPOLYLINE
  5
10c
100
AcDbEntity
  8
Layer_3
 62
7
100
AcDbPolyline
 90
12
 70
1
 10
1.539759
 20
6.356224
 30
0.0
 10
1.516731
 20
6.332220
 30
0.0
 10
1.516731
 20
6.286487
 30
0.0
 10
1.539759
 20
6.286487
 30
0.0
 10
1.539759
 20
6.304087
 30
0.0
 10
1.556597
 20
6.286487
 30
0.0
 10
1.560283
 20
6.286487
 30
0.0
 10
1.571159
 20
6.297778
 30
0.0
 10
1.571159
 20
6.328424
 30
0.0
 10
1.562422
 20
6.319268
 30
0.0
 10
1.553320
 20
6.319316
 30
0.0
 10
1.539759
 20
6.333454
 30
0.0
  0
LWPOLYLINE
  5
10d
100
AcDbEntity
  8
Layer_3
 62
7
100
AcDbPolyline
 90
17
 70
1
 10
1.463077
 20
6.300434
 30
0.0
 10
1.449334
 20
6.314904
 30
0.0
 10
1.449334
 20
6.322921
 30
0.0
 10
1.463760
 20
6.338007
 30
0.0
 10
1.503898
 20
6.337959
 30
0.0
 10
1.486469
 20
6.356224
 30
0.0
 10
1.449289
 20
6.356224
 30
0.0
 10
1.427081
 20
6.333073
 30
0.0
 10
1.426945
 20
6.309922
 30
0.0
 10
1.449563
 20
6.286486
 30
0.0
 10
1.485969
 20
6.286486
 30
0.0
 10
1.508587
 20
6.309969
 30
0.0
 10
1.508587
 20
6.333073
 30
0.0
 10
1.475912
 20
6.333025
 30
0.0
 10
1.485605
 20
6.322920
 30
0.0
 10
1.485605
 20
6.314902
 30
0.0
 10
1.471771
 20
6.300433
 30
0.0
  0
LWPOLYLINE
  5
10e
100
AcDbEntity
  8
Layer_3
 62
7
100
AcDbPolyline
 90
4
 70
1
 10
1.418844
 20
6.356224
 30
0.0
 10
1.395817
 20
6.332267
 30
0.0
 10
1.395817
 20
6.286487
 30
0.0
 10
1.418844
 20
6.286487
 30
0.0
  0
LWPOLYLINE
  5
10f
100
AcDbEntity
  8
Layer_3
 62
7
100
AcDbPolyline
 90
8
 70
1
 10
1.391857
 20
6.333073
 30
0.0
 10
1.369604
 20
6.309922
 30
0.0
 10
1.364780
 20
6.309922
 30
0.0
 10
1.364780
 20
6.356224
 30
0.0
 10
1.341707
 20
6.332267
 30
0.0
 10
1.341707
 20
6.286487
 30
0.0
 10
1.369422
 20
6.286487
 30
0.0
 10
1.391857
 20
6.309922
 30
0.0
  0
LWPOLYLINE
  5
110
100
AcDbEntity
  8
Layer_3
 62
7
100
AcDbPolyline
 90
4
 70
1
 10
1.573328
 20
6.477734
 30
0.0
 10
1.550301
 20
6.453777
 30
0.0
 10
1.550301
 20
6.407997
 30
0.0
 10
1.573328
 20
6.407997
 30
0.0
  0
LWPOLYLINE
  5
111
100
AcDbEntity
  8
Layer_3
 62
7
100
AcDbPolyline
 90
8
 70
1
 10
1.546342
 20
6.454583
 30
0.0
 10
1.524088
 20
6.431432
 30
0.0
 10
1.519265
 20
6.431432
 30
0.0
 10
1.519265
 20
6.477734
 30
0.0
 10
1.496192
 20
6.453777
 30
0.0
 10
1.496192
 20
6.407997
 30
0.0
 10
1.523906
 20
6.407997
 30
0.0
 10
1.546342
 20
6.431432
 30
0.0
  0
LWPOLYLINE
  5
112
100
AcDbEntity
  8
Layer_3
 62
7
100
AcDbPolyline
 90
6
 70
1
 10
1.652151
 20
6.477721
 30
0.0
 10
1.629124
 20
6.477721
 30
0.0
 10
1.629124
 20
6.426343
 30
0.0
 10
1.598178
 20
6.426343
 30
0.0
 10
1.580521
 20
6.407983
 30
0.0
 10
1.652151
 20
6.407983
 30
0.0
  0
LWPOLYLINE
  5
113
100
AcDbEntity
  8
Layer_3
 62
7
100
AcDbPolyline
 90
4
 70
1
 10
1.625164
 20
6.449921
 30
0.0
 10
1.607462
 20
6.449921
 30
0.0
 10
1.589577
 20
6.431419
 30
0.0
 10
1.625164
 20
6.431419
 30
0.0
  0
LWPOLYLINE
  5
114
100
AcDbEntity
  8
Layer_3
 62
7
100
AcDbPolyline
 90
4
 70
1
 10
1.625164
 20
6.477721
 30
0.0
 10
1.616063
 20
6.477721
 30
0.0
 10
1.593809
 20
6.454570
 30
0.0
 10
1.625164
 20
6.454570
 30
0.0
  0
LWPOLYLINE
  5
115
100
AcDbEntity
  8
Layer_3
 62
7
100
AcDbPolyline
 90
4
 70
1
 10
1.414781
 20
6.454570
 30
0.0
 10
1.486501
 20
6.454570
 30
0.0
 10
1.464293
 20
6.477721
 30
0.0
 10
1.437034
 20
6.477721
 30
0.0
  0
LWPOLYLINE
  5
116
100
AcDbEntity
  8
Layer_3
 62
7
100
AcDbPolyline
 90
9
 70
1
 10
1.417784
 20
6.428905
 30
0.0
 10
1.437853
 20
6.407983
 30
0.0
 10
1.464111
 20
6.407983
 30
0.0
 10
1.486501
 20
6.431419
 30
0.0
 10
1.459424
 20
6.431419
 30
0.0
 10
1.459517
 20
6.435072
 30
0.0
 10
1.473579
 20
6.449874
 30
0.0
 10
1.435488
 20
6.449921
 30
0.0
 10
1.417831
 20
6.431372
 30
0.0
  0
LWPOLYLINE
  5
117
100
AcDbEntity
  8
Layer_3
 62
7
100
AcDbPolyline
 90
6
 70
1
 10
1.406043
 20
6.477721
 30
0.0
 10
1.383016
 20
6.477721
 30
0.0
 10
1.383016
 20
6.426343
 30
0.0
 10
1.352071
 20
6.426343
 30
0.0
 10
1.334413
 20
6.407983
 30
0.0
 10
1.406043
 20
6.407983
 30
0.0
  0
LWPOLYLINE
  5
118
100
AcDbEntity
  8
Layer_3
 62
7
100
AcDbPolyline
 90
4
 70
1
 10
1.379057
 20
6.449921
 30
0.0
 10
1.361354
 20
6.449921
 30
0.0
 10
1.343469
 20
6.431419
 30
0.0
 10
1.379057
 20
6.431419
 30
0.0
  0
LWPOLYLINE
  5
119
100
AcDbEntity
  8
Layer_3
 62
7
100
AcDbPolyline
 90
4
 70
1
 10
1.379057
 20
6.477721
 30
0.0
 10
1.369955
 20
6.477721
 30
0.0
 10
1.347702
 20
6.454570
 30
0.0
 10
1.379057
 20
6.454570
 30
0.0
  0
ENDSEC
  0
SECTION
  2
OBJECTS
  0
DICTIONARY
  5
C
330
0
100
AcDbDictionary
  3
ACAD_GROUP
350
D
  3
ACAD_MLINESTYLE
350
17
  0
DICTIONARY
  5
D
330
C
100
AcDbDictionary
  0
DICTIONARY
  5
1A
330
C
100
AcDbDictionary
  0
DICTIONARY
  5
17
330
C
100
AcDbDictionary
  3
STANDARD
350
18
  0
DICTIONARY
  5
19
330
C
100
AcDbDictionary
  0
ENDSEC
  0
EOF
