<?xml version="1.0" encoding="UTF-8" standalone="no"?>
<!-- Created with Inkscape (http://www.inkscape.org/) -->

<svg
   xmlns:dc="http://purl.org/dc/elements/1.1/"
   xmlns:cc="http://creativecommons.org/ns#"
   xmlns:rdf="http://www.w3.org/1999/02/22-rdf-syntax-ns#"
   xmlns:svg="http://www.w3.org/2000/svg"
   xmlns="http://www.w3.org/2000/svg"
   xmlns:sodipodi="http://sodipodi.sourceforge.net/DTD/sodipodi-0.dtd"
   xmlns:inkscape="http://www.inkscape.org/namespaces/inkscape"
   width="210mm"
   height="297mm"
   viewBox="0 0 210 297"
   version="1.1"
   id="svg8"
   inkscape:version="0.92.1 r15371"
   sodipodi:docname="dma-labs.svg">
  <defs
     id="defs2" />
  <sodipodi:namedview
     id="base"
     pagecolor="#ffffff"
     bordercolor="#666666"
     borderopacity="1.0"
     inkscape:pageopacity="0.0"
     inkscape:pageshadow="2"
     inkscape:zoom="1.4"
     inkscape:cx="292.76213"
     inkscape:cy="77.999015"
     inkscape:document-units="mm"
     inkscape:current-layer="layer1"
     showgrid="false"
     inkscape:measure-start="-1.40306e-006,2.57607e-006"
     inkscape:measure-end="510.217,2.57607e-006" />
  <metadata
     id="metadata5">
    <rdf:RDF>
      <cc:Work
         rdf:about="">
        <dc:format>image/svg+xml</dc:format>
        <dc:type
           rdf:resource="http://purl.org/dc/dcmitype/StillImage" />
        <dc:title></dc:title>
      </cc:Work>
    </rdf:RDF>
  </metadata>
  <g
     inkscape:label="Layer 1"
     inkscape:groupmode="layer"
     id="layer1">
    <g
       id="g4520"
       transform="matrix(0.7459313,0,0,0.7459313,11.841662,201.61437)">
      <path
         style="fill:#b9b9b9;fill-opacity:1;stroke-width:0.26458335"
         d="m -15.875004,126.28705 v -1.5875 h 26.06146 26.06146 v 1.5875 1.5875 h -26.06146 -26.06146 z m 58.208336,0 v -1.5875 h 6.217709 6.217709 v 1.5875 1.5875 h -6.217709 -6.217709 z m 52.12292,0 v -1.5875 H 120.65 146.84375 v 1.5875 1.5875 H 120.65 94.456252 Z m 58.472918,0 v -1.5875 h 6.08542 6.08541 v 1.5875 1.5875 h -6.08541 -6.08542 z m 24.60625,0 v -1.5875 h 6.21771 6.21771 v -4.6302 -4.63021 h 1.5875 1.5875 v 6.21771 6.2177 h -7.80521 -7.80521 z m -193.410424,-6.2177 v -1.45521 h 6.0854174 6.0854169 v 1.45521 1.4552 h -6.0854169 -6.0854174 z m 46.037503,0 v -1.45521 h 6.085417 6.085416 v 1.45521 1.4552 h -6.085416 -6.085417 z m 15.345834,0 v -1.45521 h 4.630208 4.630209 v 1.45521 1.4552 h -4.630209 -4.630208 z m 48.947919,0 v -1.45521 h 1.5875 1.5875 v 1.45521 1.4552 h -1.5875 -1.5875 z m 6.349998,0 v -1.45521 h 6.08542 6.08542 v 1.45521 1.4552 h -6.08542 -6.08542 z m 52.12292,0 v -1.45521 h 6.08542 6.08541 v 1.45521 1.4552 h -6.08541 -6.08542 z m -168.804174,-6.08542 v -1.45521 h 6.0854174 6.0854169 v 1.45521 1.45521 h -6.0854169 -6.0854174 z m 52.12292,0 v -1.45521 h 6.085416 6.085417 v 1.45521 1.45521 h -6.085417 -6.085416 z m 15.345834,0 v -1.45521 h 1.5875 1.5875 v 1.45521 1.45521 h -1.5875 -1.5875 z m 42.862502,0 v -1.45521 h 4.630208 4.63021 v 1.45521 1.45521 h -4.63021 -4.630208 z m 12.435418,0 v -1.45521 h 6.08542 6.08541 v 1.45521 1.45521 h -6.08541 -6.08542 z m 46.0375,0 v -1.45521 h 6.08542 6.08541 v 1.45521 1.45521 h -6.08541 -6.08542 z m 26.12761,-3.16107 -1.52136,-1.6886 v -2.93298 -2.93298 h 7.80521 7.80521 v 1.45521 1.45521 h -1.5875 -1.5875 v 1.5875 1.5875 h 1.5875 1.5875 v 1.5875 1.5875 l -6.28385,-0.009 -6.28386,-0.009 -1.52135,-1.6886 z m 8.00364,-3.05664 v -1.5875 h -3.175 -3.175 v 1.5875 1.5875 h 3.175 3.175 z m -202.935424,0 v -1.5875 h 6.0854174 6.0854169 v 1.5875 1.5875 h -6.0854169 -6.0854174 z m 58.208336,0 v -1.5875 h 6.217709 6.217709 v 1.5875 1.5875 h -6.217709 -6.217709 z m 27.781252,0 v -1.5875 h 4.497917 4.497917 v 1.5875 1.5875 h -4.497917 -4.497917 z m 24.341668,0 v -1.5875 h 6.217708 6.21771 v 1.5875 1.5875 h -6.21771 -6.217708 z m 18.520838,0 v -1.5875 h 6.08541 6.08542 v 1.5875 1.5875 h -6.08542 -6.08541 z m 39.95208,0 v -1.5875 h 6.08542 6.08541 v 1.5875 1.5875 h -6.08541 -6.08542 z M -15.875004,101.6808 v -1.5875 h 6.0854174 6.0854169 v 1.5875 1.5875 h -6.0854169 -6.0854174 z m 52.12292,0 v -1.5875 h 6.085416 6.085417 v 1.5875 1.5875 h -6.085417 -6.085416 z m 15.345834,0 v -1.5875 h 1.5875 1.5875 v 1.5875 1.5875 h -1.5875 -1.5875 z m 16.66875,0 v -1.5875 h 6.350001 6.35 v 1.5875 1.5875 h -6.35 -6.350001 z m 26.193752,0 v -1.5875 h 6.217708 6.21771 v 1.5875 1.5875 h -6.21771 -6.217708 z m 24.606248,0 v -1.5875 h 6.21771 6.21771 v 1.5875 1.5875 h -6.21771 -6.21771 z m 33.86667,0 v -1.5875 h 6.08542 6.08541 v 1.5875 1.5875 h -6.08541 -6.08542 z m 24.60625,-6.217704 v -4.630208 h 3.175 3.175 v -1.455209 -1.455208 h 4.63021 4.63021 v 6.085417 6.085412 h -7.80521 -7.80521 z m 6.35,0.132292 v -1.5875 h -1.5875 -1.5875 v 1.5875 1.5875 h 1.5875 1.5875 z m 6.08542,-1.5875 v -3.175 h -1.45521 -1.45521 v 3.175 3.175 h 1.45521 1.45521 z m -205.845844,1.5875 v -1.5875 h 6.0854174 6.0854169 v 1.5875 1.5875 h -6.0854169 -6.0854174 z m 46.037503,0 v -1.5875 h 6.085417 6.085416 v 1.5875 1.5875 h -6.085416 -6.085417 z m 15.345834,0 v -1.5875 h 4.630208 4.630209 v 1.5875 1.5875 h -4.630209 -4.630208 z m 19.843751,0 v -1.5875 h 9.260417 9.260417 v 1.5875 1.5875 h -9.260417 -9.260417 z m 29.104168,0 v -1.5875 h 6.217708 6.21771 v 1.5875 1.5875 h -6.21771 -6.217708 z m 30.691668,0 v -1.5875 h 6.21771 6.21771 v 1.5875 1.5875 h -6.21771 -6.21771 z m 27.78125,0 v -1.5875 h 6.08542 6.08541 v 1.5875 1.5875 h -6.08541 -6.08542 z M -15.875004,89.377679 v -1.455208 h 6.0854174 6.0854169 v 1.455208 1.455209 h -6.0854169 -6.0854174 z m 39.687502,0 v -1.455208 h 6.217709 6.217709 v 1.455208 1.455209 h -6.217709 -6.217709 z m 18.520834,0 v -1.455208 h 6.217709 6.217709 v 1.455208 1.455209 h -6.217709 -6.217709 z m 18.520835,0 v -1.455208 h 6.085417 6.085417 v 1.455208 1.455209 h -6.085417 -6.085417 z m 15.345834,0 v -1.455208 h 6.085417 6.085417 v 1.455208 1.455209 h -6.085417 -6.085417 z m 18.256251,0 v -1.455208 h 6.217708 6.21771 v 1.455208 1.455209 h -6.21771 -6.217708 z m 37.041668,0 v -1.455208 h 6.08542 6.08541 v 1.455208 1.455209 h -6.08541 -6.08542 z m 21.43125,0 v -1.455208 h 6.08542 6.08541 v 1.455208 1.455209 h -6.08541 -6.08542 z M -15.875004,83.159971 v -1.5875 h 6.0854174 6.0854169 v 1.5875 1.5875 h -6.0854169 -6.0854174 z m 33.602085,0 v -1.5875 h 6.217709 6.217709 v 1.5875 1.5875 H 23.94479 17.727081 Z m 24.606251,0 v -1.5875 h 6.217709 6.217709 v 1.5875 1.5875 h -6.217709 -6.217709 z m 15.345835,0 v -1.5875 h 6.217708 6.217709 v 1.5875 1.5875 h -6.217709 -6.217708 z m 21.431251,0 v -1.5875 h 6.217708 6.217709 v 1.5875 1.5875 h -6.217709 -6.217708 z m 15.345834,0 v -1.5875 h 6.217708 6.21771 v 1.5875 1.5875 h -6.21771 -6.217708 z m 43.127088,0 v -1.5875 h 6.08541 6.08542 v 1.5875 1.5875 h -6.08542 -6.08541 z m 15.34583,0 v -1.5875 h 6.08542 6.08541 v 1.5875 1.5875 h -6.08541 -6.08542 z m 26.10174,0.01964 -1.49549,-1.567859 v -3.06235 -3.06235 h 1.5875 1.5875 l 0.0169,1.653646 0.0169,1.653646 1.57057,1.4163 1.57056,1.4163 v -3.069946 -3.069946 l 2.97657,0.0012 2.97656,0.0012 1.65364,1.668666 1.65365,1.668665 v 2.96032 2.960331 h -1.5875 -1.5875 v -1.530392 c 0,-1.504434 -0.0247,-1.554769 -1.45521,-2.967524 l -1.45521,-1.437132 v 2.967524 2.967524 h -3.26701 -3.26702 l -1.49548,-1.567858 z M -15.875004,77.074555 v -1.5875 h 6.0854174 6.0854169 v 1.5875 1.5875 h -6.0854169 -6.0854174 z m 27.516668,0 v -1.5875 h 6.085417 6.085417 v 1.5875 1.5875 h -6.085417 -6.085417 z m 30.691668,0 v -1.5875 h 12.303126 12.303126 v 1.5875 1.5875 H 54.636458 42.333332 Z m 39.952086,0 v -1.5875 h 12.303125 12.303127 v 1.5875 1.5875 H 94.588543 82.285418 Z m 61.383332,0 v -1.5875 H 154.38438 165.1 v 1.5875 1.5875 H 154.38438 143.66875 Z M -15.875004,70.989138 V 69.401639 H 0.92603888 17.727081 v 1.587499 1.5875 H 0.92603888 -15.875004 Z m 58.208336,0 v -1.587499 h 10.715626 10.715625 v 1.587499 1.5875 H 53.048958 42.333332 Z m 43.127086,0 v -1.587499 h 10.715625 10.715627 v 1.587499 1.5875 H 96.176043 85.460418 Z m 67.468752,0 v -1.587499 h 6.08542 6.08541 v 1.587499 1.5875 h -6.08541 -6.08542 z"
         inkscape:connector-curvature="0"
         id="path4534" />
      <path
         style="fill:#a3a3a3;fill-opacity:1;stroke-width:0.26458335"
         d="m -15.875004,126.28705 v -1.5875 h 26.06146 26.06146 v 1.5875 1.5875 h -26.06146 -26.06146 z m 58.208336,0 v -1.5875 h 6.217709 6.217709 v 1.5875 1.5875 h -6.217709 -6.217709 z m 52.12292,0 v -1.5875 H 120.65 146.84375 v 1.5875 1.5875 H 120.65 94.456252 Z m 58.472918,0 v -1.5875 h 6.08542 6.08541 v 1.5875 1.5875 h -6.08541 -6.08542 z m 24.60625,0 v -1.5875 h 6.21771 6.21771 v -4.6302 -4.63021 h 1.5875 1.5875 v 6.21771 6.2177 h -7.80521 -7.80521 z m -193.410424,-6.2177 v -1.45521 h 6.0854174 6.0854169 v 1.45521 1.4552 h -6.0854169 -6.0854174 z m 46.037503,0 v -1.45521 h 6.085417 6.085416 v 1.45521 1.4552 h -6.085416 -6.085417 z m 15.345834,0 v -1.45521 h 4.630208 4.630209 v 1.45521 1.4552 h -4.630209 -4.630208 z m 48.947919,0 v -1.45521 h 1.5875 1.5875 v 1.45521 1.4552 h -1.5875 -1.5875 z m 6.349998,0 v -1.45521 h 6.08542 6.08542 v 1.45521 1.4552 h -6.08542 -6.08542 z m 52.12292,0 v -1.45521 h 6.08542 6.08541 v 1.45521 1.4552 h -6.08541 -6.08542 z m -168.804174,-6.08542 v -1.45521 h 6.0854174 6.0854169 v 1.45521 1.45521 h -6.0854169 -6.0854174 z m 52.12292,0 v -1.45521 h 6.085416 6.085417 v 1.45521 1.45521 h -6.085417 -6.085416 z m 15.345834,0 v -1.45521 h 1.5875 1.5875 v 1.45521 1.45521 h -1.5875 -1.5875 z m 42.862502,0 v -1.45521 h 4.630208 4.63021 v 1.45521 1.45521 h -4.63021 -4.630208 z m 12.435418,0 v -1.45521 h 6.08542 6.08541 v 1.45521 1.45521 h -6.08541 -6.08542 z m 46.0375,0 v -1.45521 h 6.08542 6.08541 v 1.45521 1.45521 h -6.08541 -6.08542 z m 26.12761,-3.16107 -1.52136,-1.6886 v -2.93298 -2.93298 h 7.80521 7.80521 v 1.45521 1.45521 h -1.5875 -1.5875 v 1.5875 1.5875 h 1.5875 1.5875 v 1.5875 1.5875 l -6.28385,-0.009 -6.28386,-0.009 -1.52135,-1.6886 z m 8.00364,-3.05664 v -1.5875 h -3.175 -3.175 v 1.5875 1.5875 h 3.175 3.175 z m -202.935424,0 v -1.5875 h 6.0854174 6.0854169 v 1.5875 1.5875 h -6.0854169 -6.0854174 z m 58.208336,0 v -1.5875 h 6.217709 6.217709 v 1.5875 1.5875 h -6.217709 -6.217709 z m 27.781252,0 v -1.5875 h 4.497917 4.497917 v 1.5875 1.5875 h -4.497917 -4.497917 z m 24.341668,0 v -1.5875 h 6.217708 6.21771 v 1.5875 1.5875 h -6.21771 -6.217708 z m 18.520838,0 v -1.5875 h 6.08541 6.08542 v 1.5875 1.5875 h -6.08542 -6.08541 z m 39.95208,0 v -1.5875 h 6.08542 6.08541 v 1.5875 1.5875 h -6.08541 -6.08542 z M -15.875004,101.6808 v -1.5875 h 6.0854174 6.0854169 v 1.5875 1.5875 h -6.0854169 -6.0854174 z m 52.12292,0 v -1.5875 h 6.085416 6.085417 v 1.5875 1.5875 h -6.085417 -6.085416 z m 15.345834,0 v -1.5875 h 1.5875 1.5875 v 1.5875 1.5875 h -1.5875 -1.5875 z m 16.66875,0 v -1.5875 h 6.350001 6.35 v 1.5875 1.5875 h -6.35 -6.350001 z m 26.193752,0 v -1.5875 h 6.217708 6.21771 v 1.5875 1.5875 h -6.21771 -6.217708 z m 24.606248,0 v -1.5875 h 6.21771 6.21771 v 1.5875 1.5875 h -6.21771 -6.21771 z m 33.86667,0 v -1.5875 h 6.08542 6.08541 v 1.5875 1.5875 h -6.08541 -6.08542 z m 24.60625,-6.217704 v -4.630208 h 3.175 3.175 v -1.455209 -1.455208 h 4.63021 4.63021 v 6.085417 6.085412 h -7.80521 -7.80521 z m 6.35,0.132292 v -1.5875 h -1.5875 -1.5875 v 1.5875 1.5875 h 1.5875 1.5875 z m 6.08542,-1.5875 v -3.175 h -1.45521 -1.45521 v 3.175 3.175 h 1.45521 1.45521 z m -205.845844,1.5875 v -1.5875 h 6.0854174 6.0854169 v 1.5875 1.5875 h -6.0854169 -6.0854174 z m 46.037503,0 v -1.5875 h 6.085417 6.085416 v 1.5875 1.5875 h -6.085416 -6.085417 z m 15.345834,0 v -1.5875 h 4.630208 4.630209 v 1.5875 1.5875 h -4.630209 -4.630208 z m 19.843751,0 v -1.5875 h 9.260417 9.260417 v 1.5875 1.5875 h -9.260417 -9.260417 z m 29.104168,0 v -1.5875 h 6.217708 6.21771 v 1.5875 1.5875 h -6.21771 -6.217708 z m 30.691668,0 v -1.5875 h 6.21771 6.21771 v 1.5875 1.5875 h -6.21771 -6.21771 z m 27.78125,0 v -1.5875 h 6.08542 6.08541 v 1.5875 1.5875 h -6.08541 -6.08542 z M -15.875004,89.377679 v -1.455208 h 6.0854174 6.0854169 v 1.455208 1.455209 h -6.0854169 -6.0854174 z m 39.687502,0 v -1.455208 h 6.217709 6.217709 v 1.455208 1.455209 h -6.217709 -6.217709 z m 18.520834,0 v -1.455208 h 6.217709 6.217709 v 1.455208 1.455209 h -6.217709 -6.217709 z m 18.520835,0 v -1.455208 h 6.085417 6.085417 v 1.455208 1.455209 h -6.085417 -6.085417 z m 15.345834,0 v -1.455208 h 6.085417 6.085417 v 1.455208 1.455209 h -6.085417 -6.085417 z m 18.256251,0 v -1.455208 h 6.217708 6.21771 v 1.455208 1.455209 h -6.21771 -6.217708 z m 37.041668,0 v -1.455208 h 6.08542 6.08541 v 1.455208 1.455209 h -6.08541 -6.08542 z m 21.43125,0 v -1.455208 h 6.08542 6.08541 v 1.455208 1.455209 h -6.08541 -6.08542 z M -15.875004,83.159971 v -1.5875 h 6.0854174 6.0854169 v 1.5875 1.5875 h -6.0854169 -6.0854174 z m 33.602085,0 v -1.5875 h 6.217709 6.217709 v 1.5875 1.5875 H 23.94479 17.727081 Z m 24.606251,0 v -1.5875 h 6.217709 6.217709 v 1.5875 1.5875 h -6.217709 -6.217709 z m 15.345835,0 v -1.5875 h 6.217708 6.217709 v 1.5875 1.5875 h -6.217709 -6.217708 z m 21.431251,0 v -1.5875 h 6.217708 6.217709 v 1.5875 1.5875 h -6.217709 -6.217708 z m 15.345834,0 v -1.5875 h 6.217708 6.21771 v 1.5875 1.5875 h -6.21771 -6.217708 z m 43.127088,0 v -1.5875 h 6.08541 6.08542 v 1.5875 1.5875 h -6.08542 -6.08541 z m 15.34583,0 v -1.5875 h 6.08542 6.08541 v 1.5875 1.5875 h -6.08541 -6.08542 z m 26.10174,0.01964 -1.49549,-1.567859 v -3.06235 -3.06235 h 1.5875 1.5875 l 0.0169,1.653646 0.0169,1.653646 1.57057,1.4163 1.57056,1.4163 v -3.069946 -3.069946 l 2.97657,0.0012 2.97656,0.0012 1.65364,1.668666 1.65365,1.668665 v 2.96032 2.960331 h -1.5875 -1.5875 v -1.530392 c 0,-1.504434 -0.0247,-1.554769 -1.45521,-2.967524 l -1.45521,-1.437132 v 2.967524 2.967524 h -3.26701 -3.26702 l -1.49548,-1.567858 z M -15.875004,77.074555 v -1.5875 h 6.0854174 6.0854169 v 1.5875 1.5875 h -6.0854169 -6.0854174 z m 27.516668,0 v -1.5875 h 6.085417 6.085417 v 1.5875 1.5875 h -6.085417 -6.085417 z m 30.691668,0 v -1.5875 h 12.303126 12.303126 v 1.5875 1.5875 H 54.636458 42.333332 Z m 39.952086,0 v -1.5875 h 12.303125 12.303127 v 1.5875 1.5875 H 94.588543 82.285418 Z m 61.383332,0 v -1.5875 H 154.38438 165.1 v 1.5875 1.5875 H 154.38438 143.66875 Z M -15.875004,70.989138 V 69.401639 H 0.92603888 17.727081 v 1.587499 1.5875 H 0.92603888 -15.875004 Z m 58.208336,0 v -1.587499 h 10.715626 10.715625 v 1.587499 1.5875 H 53.048958 42.333332 Z m 43.127086,0 v -1.587499 h 10.715625 10.715627 v 1.587499 1.5875 H 96.176043 85.460418 Z m 67.468752,0 v -1.587499 h 6.08542 6.08541 v 1.587499 1.5875 h -6.08541 -6.08542 z"
         inkscape:connector-curvature="0"
         id="path4532" />
      <path
         style="fill:#8c8c8c;fill-opacity:1;stroke-width:0.26458335"
         d="m -15.875004,126.28705 v -1.5875 h 26.06146 26.06146 v 1.5875 1.5875 h -26.06146 -26.06146 z m 58.208336,0 v -1.5875 h 6.217709 6.217709 v 1.5875 1.5875 h -6.217709 -6.217709 z m 52.12292,0 v -1.5875 H 120.65 146.84375 v 1.5875 1.5875 H 120.65 94.456252 Z m 58.472918,0 v -1.5875 h 6.08542 6.08541 v 1.5875 1.5875 h -6.08541 -6.08542 z m 24.60625,0 v -1.5875 h 6.21771 6.21771 v -4.6302 -4.63021 h 1.5875 1.5875 v 6.21771 6.2177 h -7.80521 -7.80521 z m -193.410424,-6.2177 v -1.45521 h 6.0854174 6.0854169 v 1.45521 1.4552 h -6.0854169 -6.0854174 z m 46.037503,0 v -1.45521 h 6.085417 6.085416 v 1.45521 1.4552 h -6.085416 -6.085417 z m 15.345834,0 v -1.45521 h 4.630208 4.630209 v 1.45521 1.4552 h -4.630209 -4.630208 z m 48.947919,0 v -1.45521 h 1.5875 1.5875 v 1.45521 1.4552 h -1.5875 -1.5875 z m 6.349998,0 v -1.45521 h 6.08542 6.08542 v 1.45521 1.4552 h -6.08542 -6.08542 z m 52.12292,0 v -1.45521 h 6.08542 6.08541 v 1.45521 1.4552 h -6.08541 -6.08542 z m -168.804174,-6.08542 v -1.45521 h 6.0854174 6.0854169 v 1.45521 1.45521 h -6.0854169 -6.0854174 z m 52.12292,0 v -1.45521 h 6.085416 6.085417 v 1.45521 1.45521 h -6.085417 -6.085416 z m 15.345834,0 v -1.45521 h 1.5875 1.5875 v 1.45521 1.45521 h -1.5875 -1.5875 z m 42.862502,0 v -1.45521 h 4.630208 4.63021 v 1.45521 1.45521 h -4.63021 -4.630208 z m 12.435418,0 v -1.45521 h 6.08542 6.08541 v 1.45521 1.45521 h -6.08541 -6.08542 z m 46.0375,0 v -1.45521 h 6.08542 6.08541 v 1.45521 1.45521 h -6.08541 -6.08542 z m 26.12761,-3.16107 -1.52136,-1.6886 v -2.93298 -2.93298 h 7.80521 7.80521 v 1.45521 1.45521 h -1.5875 -1.5875 v 1.5875 1.5875 h 1.5875 1.5875 v 1.5875 1.5875 l -6.28385,-0.009 -6.28386,-0.009 -1.52135,-1.6886 z m 8.00364,-3.05664 v -1.5875 h -3.175 -3.175 v 1.5875 1.5875 h 3.175 3.175 z m -202.935424,0 v -1.5875 h 6.0854174 6.0854169 v 1.5875 1.5875 h -6.0854169 -6.0854174 z m 58.208336,0 v -1.5875 h 6.217709 6.217709 v 1.5875 1.5875 h -6.217709 -6.217709 z m 27.781252,0 v -1.5875 h 4.497917 4.497917 v 1.5875 1.5875 h -4.497917 -4.497917 z m 24.341668,0 v -1.5875 h 6.217708 6.21771 v 1.5875 1.5875 h -6.21771 -6.217708 z m 18.520838,0 v -1.5875 h 6.08541 6.08542 v 1.5875 1.5875 h -6.08542 -6.08541 z m 39.95208,0 v -1.5875 h 6.08542 6.08541 v 1.5875 1.5875 h -6.08541 -6.08542 z M -15.875004,101.6808 v -1.5875 h 6.0854174 6.0854169 v 1.5875 1.5875 h -6.0854169 -6.0854174 z m 52.12292,0 v -1.5875 h 6.085416 6.085417 v 1.5875 1.5875 h -6.085417 -6.085416 z m 15.345834,0 v -1.5875 h 1.5875 1.5875 v 1.5875 1.5875 h -1.5875 -1.5875 z m 16.66875,0 v -1.5875 h 6.350001 6.35 v 1.5875 1.5875 h -6.35 -6.350001 z m 26.193752,0 v -1.5875 h 6.217708 6.21771 v 1.5875 1.5875 h -6.21771 -6.217708 z m 24.606248,0 v -1.5875 h 6.21771 6.21771 v 1.5875 1.5875 h -6.21771 -6.21771 z m 33.86667,0 v -1.5875 h 6.08542 6.08541 v 1.5875 1.5875 h -6.08541 -6.08542 z m 24.60625,-6.217704 v -4.630208 h 3.175 3.175 v -1.455209 -1.455208 h 4.63021 4.63021 v 6.085417 6.085412 h -7.80521 -7.80521 z m 6.35,0.132292 v -1.5875 h -1.5875 -1.5875 v 1.5875 1.5875 h 1.5875 1.5875 z m 6.08542,-1.5875 v -3.175 h -1.45521 -1.45521 v 3.175 3.175 h 1.45521 1.45521 z m -205.845844,1.5875 v -1.5875 h 6.0854174 6.0854169 v 1.5875 1.5875 h -6.0854169 -6.0854174 z m 46.037503,0 v -1.5875 h 6.085417 6.085416 v 1.5875 1.5875 h -6.085416 -6.085417 z m 15.345834,0 v -1.5875 h 4.630208 4.630209 v 1.5875 1.5875 h -4.630209 -4.630208 z m 19.843751,0 v -1.5875 h 9.260417 9.260417 v 1.5875 1.5875 h -9.260417 -9.260417 z m 29.104168,0 v -1.5875 h 6.217708 6.21771 v 1.5875 1.5875 h -6.21771 -6.217708 z m 30.691668,0 v -1.5875 h 6.21771 6.21771 v 1.5875 1.5875 h -6.21771 -6.21771 z m 27.78125,0 v -1.5875 h 6.08542 6.08541 v 1.5875 1.5875 h -6.08541 -6.08542 z M -15.875004,89.377679 v -1.455208 h 6.0854174 6.0854169 v 1.455208 1.455209 h -6.0854169 -6.0854174 z m 39.687502,0 v -1.455208 h 6.217709 6.217709 v 1.455208 1.455209 h -6.217709 -6.217709 z m 18.520834,0 v -1.455208 h 6.217709 6.217709 v 1.455208 1.455209 h -6.217709 -6.217709 z m 18.520835,0 v -1.455208 h 6.085417 6.085417 v 1.455208 1.455209 h -6.085417 -6.085417 z m 15.345834,0 v -1.455208 h 6.085417 6.085417 v 1.455208 1.455209 h -6.085417 -6.085417 z m 18.256251,0 v -1.455208 h 6.217708 6.21771 v 1.455208 1.455209 h -6.21771 -6.217708 z m 37.041668,0 v -1.455208 h 6.08542 6.08541 v 1.455208 1.455209 h -6.08541 -6.08542 z m 21.43125,0 v -1.455208 h 6.08542 6.08541 v 1.455208 1.455209 h -6.08541 -6.08542 z M -15.875004,83.159971 v -1.5875 h 6.0854174 6.0854169 v 1.5875 1.5875 h -6.0854169 -6.0854174 z m 33.602085,0 v -1.5875 h 6.217709 6.217709 v 1.5875 1.5875 H 23.94479 17.727081 Z m 24.606251,0 v -1.5875 h 6.217709 6.217709 v 1.5875 1.5875 h -6.217709 -6.217709 z m 15.345835,0 v -1.5875 h 6.217708 6.217709 v 1.5875 1.5875 h -6.217709 -6.217708 z m 21.431251,0 v -1.5875 h 6.217708 6.217709 v 1.5875 1.5875 h -6.217709 -6.217708 z m 15.345834,0 v -1.5875 h 6.217708 6.21771 v 1.5875 1.5875 h -6.21771 -6.217708 z m 43.127088,0 v -1.5875 h 6.08541 6.08542 v 1.5875 1.5875 h -6.08542 -6.08541 z m 15.34583,0 v -1.5875 h 6.08542 6.08541 v 1.5875 1.5875 h -6.08541 -6.08542 z m 26.10174,0.01964 -1.49549,-1.567859 v -3.06235 -3.06235 h 1.5875 1.5875 l 0.0169,1.653646 0.0169,1.653646 1.57057,1.4163 1.57056,1.4163 v -3.069946 -3.069946 l 2.97657,0.0012 2.97656,0.0012 1.65364,1.668666 1.65365,1.668665 v 2.96032 2.960331 h -1.5875 -1.5875 v -1.530392 c 0,-1.504434 -0.0247,-1.554769 -1.45521,-2.967524 l -1.45521,-1.437132 v 2.967524 2.967524 h -3.26701 -3.26702 l -1.49548,-1.567858 z M -15.875004,77.074555 v -1.5875 h 6.0854174 6.0854169 v 1.5875 1.5875 h -6.0854169 -6.0854174 z m 27.516668,0 v -1.5875 h 6.085417 6.085417 v 1.5875 1.5875 h -6.085417 -6.085417 z m 30.691668,0 v -1.5875 h 12.303126 12.303126 v 1.5875 1.5875 H 54.636458 42.333332 Z m 39.952086,0 v -1.5875 h 12.303125 12.303127 v 1.5875 1.5875 H 94.588543 82.285418 Z m 61.383332,0 v -1.5875 H 154.38438 165.1 v 1.5875 1.5875 H 154.38438 143.66875 Z M -15.875004,70.989138 V 69.401639 H 0.92603888 17.727081 v 1.587499 1.5875 H 0.92603888 -15.875004 Z m 58.208336,0 v -1.587499 h 10.715626 10.715625 v 1.587499 1.5875 H 53.048958 42.333332 Z m 43.127086,0 v -1.587499 h 10.715625 10.715627 v 1.587499 1.5875 H 96.176043 85.460418 Z m 67.468752,0 v -1.587499 h 6.08542 6.08541 v 1.587499 1.5875 h -6.08541 -6.08542 z"
         inkscape:connector-curvature="0"
         id="path4530" />
      <path
         style="fill:#767676;fill-opacity:1;stroke-width:0.26458335"
         d="m -15.875004,126.28705 v -1.5875 h 26.06146 26.06146 v 1.5875 1.5875 h -26.06146 -26.06146 z m 58.208336,0 v -1.5875 h 6.217709 6.217709 v 1.5875 1.5875 h -6.217709 -6.217709 z m 52.12292,0 v -1.5875 H 120.65 146.84375 v 1.5875 1.5875 H 120.65 94.456252 Z m 58.472918,0 v -1.5875 h 6.08542 6.08541 v 1.5875 1.5875 h -6.08541 -6.08542 z m 24.60625,0 v -1.5875 h 6.21771 6.21771 v -4.6302 -4.63021 h 1.5875 1.5875 v 6.21771 6.2177 h -7.80521 -7.80521 z m -193.410424,-6.2177 v -1.45521 h 6.0854174 6.0854169 v 1.45521 1.4552 h -6.0854169 -6.0854174 z m 46.037503,0 v -1.45521 h 6.085417 6.085416 v 1.45521 1.4552 h -6.085416 -6.085417 z m 15.345834,0 v -1.45521 h 4.630208 4.630209 v 1.45521 1.4552 h -4.630209 -4.630208 z m 48.947919,0 v -1.45521 h 1.5875 1.5875 v 1.45521 1.4552 h -1.5875 -1.5875 z m 6.349998,0 v -1.45521 h 6.08542 6.08542 v 1.45521 1.4552 h -6.08542 -6.08542 z m 52.12292,0 v -1.45521 h 6.08542 6.08541 v 1.45521 1.4552 h -6.08541 -6.08542 z m -168.804174,-6.08542 v -1.45521 h 6.0854174 6.0854169 v 1.45521 1.45521 h -6.0854169 -6.0854174 z m 52.12292,0 v -1.45521 h 6.085416 6.085417 v 1.45521 1.45521 h -6.085417 -6.085416 z m 15.345834,0 v -1.45521 h 1.5875 1.5875 v 1.45521 1.45521 h -1.5875 -1.5875 z m 42.862502,0 v -1.45521 h 4.630208 4.63021 v 1.45521 1.45521 h -4.63021 -4.630208 z m 12.435418,0 v -1.45521 h 6.08542 6.08541 v 1.45521 1.45521 h -6.08541 -6.08542 z m 46.0375,0 v -1.45521 h 6.08542 6.08541 v 1.45521 1.45521 h -6.08541 -6.08542 z m 26.12761,-3.16107 -1.52136,-1.6886 v -2.93298 -2.93298 h 7.80521 7.80521 v 1.45521 1.45521 h -1.5875 -1.5875 v 1.5875 1.5875 h 1.5875 1.5875 v 1.5875 1.5875 l -6.28385,-0.009 -6.28386,-0.009 -1.52135,-1.6886 z m 8.00364,-3.05664 v -1.5875 h -3.175 -3.175 v 1.5875 1.5875 h 3.175 3.175 z m -202.935424,0 v -1.5875 h 6.0854174 6.0854169 v 1.5875 1.5875 h -6.0854169 -6.0854174 z m 58.208336,0 v -1.5875 h 6.217709 6.217709 v 1.5875 1.5875 h -6.217709 -6.217709 z m 27.781252,0 v -1.5875 h 4.497917 4.497917 v 1.5875 1.5875 h -4.497917 -4.497917 z m 24.341668,0 v -1.5875 h 6.217708 6.21771 v 1.5875 1.5875 h -6.21771 -6.217708 z m 18.520838,0 v -1.5875 h 6.08541 6.08542 v 1.5875 1.5875 h -6.08542 -6.08541 z m 39.95208,0 v -1.5875 h 6.08542 6.08541 v 1.5875 1.5875 h -6.08541 -6.08542 z M -15.875004,101.6808 v -1.5875 h 6.0854174 6.0854169 v 1.5875 1.5875 h -6.0854169 -6.0854174 z m 52.12292,0 v -1.5875 h 6.085416 6.085417 v 1.5875 1.5875 h -6.085417 -6.085416 z m 15.345834,0 v -1.5875 h 1.5875 1.5875 v 1.5875 1.5875 h -1.5875 -1.5875 z m 16.66875,0 v -1.5875 h 6.350001 6.35 v 1.5875 1.5875 h -6.35 -6.350001 z m 26.193752,0 v -1.5875 h 6.217708 6.21771 v 1.5875 1.5875 h -6.21771 -6.217708 z m 24.606248,0 v -1.5875 h 6.21771 6.21771 v 1.5875 1.5875 h -6.21771 -6.21771 z m 33.86667,0 v -1.5875 h 6.08542 6.08541 v 1.5875 1.5875 h -6.08541 -6.08542 z m 24.60625,-6.217704 v -4.630208 h 3.175 3.175 v -1.455209 -1.455208 h 4.63021 4.63021 v 6.085417 6.085412 h -7.80521 -7.80521 z m 6.35,0.132292 v -1.5875 h -1.5875 -1.5875 v 1.5875 1.5875 h 1.5875 1.5875 z m 6.08542,-1.5875 v -3.175 h -1.45521 -1.45521 v 3.175 3.175 h 1.45521 1.45521 z m -205.845844,1.5875 v -1.5875 h 6.0854174 6.0854169 v 1.5875 1.5875 h -6.0854169 -6.0854174 z m 46.037503,0 v -1.5875 h 6.085417 6.085416 v 1.5875 1.5875 h -6.085416 -6.085417 z m 15.345834,0 v -1.5875 h 4.630208 4.630209 v 1.5875 1.5875 h -4.630209 -4.630208 z m 19.843751,0 v -1.5875 h 9.260417 9.260417 v 1.5875 1.5875 h -9.260417 -9.260417 z m 29.104168,0 v -1.5875 h 6.217708 6.21771 v 1.5875 1.5875 h -6.21771 -6.217708 z m 30.691668,0 v -1.5875 h 6.21771 6.21771 v 1.5875 1.5875 h -6.21771 -6.21771 z m 27.78125,0 v -1.5875 h 6.08542 6.08541 v 1.5875 1.5875 h -6.08541 -6.08542 z M -15.875004,89.377679 v -1.455208 h 6.0854174 6.0854169 v 1.455208 1.455209 h -6.0854169 -6.0854174 z m 39.687502,0 v -1.455208 h 6.217709 6.217709 v 1.455208 1.455209 h -6.217709 -6.217709 z m 18.520834,0 v -1.455208 h 6.217709 6.217709 v 1.455208 1.455209 h -6.217709 -6.217709 z m 18.520835,0 v -1.455208 h 6.085417 6.085417 v 1.455208 1.455209 h -6.085417 -6.085417 z m 15.345834,0 v -1.455208 h 6.085417 6.085417 v 1.455208 1.455209 h -6.085417 -6.085417 z m 18.256251,0 v -1.455208 h 6.217708 6.21771 v 1.455208 1.455209 h -6.21771 -6.217708 z m 37.041668,0 v -1.455208 h 6.08542 6.08541 v 1.455208 1.455209 h -6.08541 -6.08542 z m 21.43125,0 v -1.455208 h 6.08542 6.08541 v 1.455208 1.455209 h -6.08541 -6.08542 z M -15.875004,83.159971 v -1.5875 h 6.0854174 6.0854169 v 1.5875 1.5875 h -6.0854169 -6.0854174 z m 33.602085,0 v -1.5875 h 6.217709 6.217709 v 1.5875 1.5875 H 23.94479 17.727081 Z m 24.606251,0 v -1.5875 h 6.217709 6.217709 v 1.5875 1.5875 h -6.217709 -6.217709 z m 15.345835,0 v -1.5875 h 6.217708 6.217709 v 1.5875 1.5875 h -6.217709 -6.217708 z m 21.431251,0 v -1.5875 h 6.217708 6.217709 v 1.5875 1.5875 h -6.217709 -6.217708 z m 15.345834,0 v -1.5875 h 6.217708 6.21771 v 1.5875 1.5875 h -6.21771 -6.217708 z m 43.127088,0 v -1.5875 h 6.08541 6.08542 v 1.5875 1.5875 h -6.08542 -6.08541 z m 15.34583,0 v -1.5875 h 6.08542 6.08541 v 1.5875 1.5875 h -6.08541 -6.08542 z m 26.10174,0.01964 -1.49549,-1.567859 v -3.06235 -3.06235 h 1.5875 1.5875 l 0.0169,1.653646 0.0169,1.653646 1.57057,1.4163 1.57056,1.4163 v -3.069946 -3.069946 l 2.97657,0.0012 2.97656,0.0012 1.65364,1.668666 1.65365,1.668665 v 2.96032 2.960331 h -1.5875 -1.5875 v -1.530392 c 0,-1.504434 -0.0247,-1.554769 -1.45521,-2.967524 l -1.45521,-1.437132 v 2.967524 2.967524 h -3.26701 -3.26702 l -1.49548,-1.567858 z M -15.875004,77.074555 v -1.5875 h 6.0854174 6.0854169 v 1.5875 1.5875 h -6.0854169 -6.0854174 z m 27.516668,0 v -1.5875 h 6.085417 6.085417 v 1.5875 1.5875 h -6.085417 -6.085417 z m 30.691668,0 v -1.5875 h 12.303126 12.303126 v 1.5875 1.5875 H 54.636458 42.333332 Z m 39.952086,0 v -1.5875 h 12.303125 12.303127 v 1.5875 1.5875 H 94.588543 82.285418 Z m 61.383332,0 v -1.5875 H 154.38438 165.1 v 1.5875 1.5875 H 154.38438 143.66875 Z M -15.875004,70.989138 V 69.401639 H 0.92603888 17.727081 v 1.587499 1.5875 H 0.92603888 -15.875004 Z m 58.208336,0 v -1.587499 h 10.715626 10.715625 v 1.587499 1.5875 H 53.048958 42.333332 Z m 43.127086,0 v -1.587499 h 10.715625 10.715627 v 1.587499 1.5875 H 96.176043 85.460418 Z m 67.468752,0 v -1.587499 h 6.08542 6.08541 v 1.587499 1.5875 h -6.08541 -6.08542 z"
         inkscape:connector-curvature="0"
         id="path4528" />
      <path
         style="fill:#606060;fill-opacity:1;stroke-width:0.26458335"
         d="m -15.875004,126.28705 v -1.5875 h 26.06146 26.06146 v 1.5875 1.5875 h -26.06146 -26.06146 z m 58.208336,0 v -1.5875 h 6.217709 6.217709 v 1.5875 1.5875 h -6.217709 -6.217709 z m 52.12292,0 v -1.5875 H 120.65 146.84375 v 1.5875 1.5875 H 120.65 94.456252 Z m 58.472918,0 v -1.5875 h 6.08542 6.08541 v 1.5875 1.5875 h -6.08541 -6.08542 z m 24.60625,0 v -1.5875 h 6.21771 6.21771 v -4.6302 -4.63021 h 1.5875 1.5875 v 6.21771 6.2177 h -7.80521 -7.80521 z m -193.410424,-6.2177 v -1.45521 h 6.0854174 6.0854169 v 1.45521 1.4552 h -6.0854169 -6.0854174 z m 46.037503,0 v -1.45521 h 6.085417 6.085416 v 1.45521 1.4552 h -6.085416 -6.085417 z m 15.345834,0 v -1.45521 h 4.630208 4.630209 v 1.45521 1.4552 h -4.630209 -4.630208 z m 48.947919,0 v -1.45521 h 1.5875 1.5875 v 1.45521 1.4552 h -1.5875 -1.5875 z m 6.349998,0 v -1.45521 h 6.08542 6.08542 v 1.45521 1.4552 h -6.08542 -6.08542 z m 52.12292,0 v -1.45521 h 6.08542 6.08541 v 1.45521 1.4552 h -6.08541 -6.08542 z m -168.804174,-6.08542 v -1.45521 h 6.0854174 6.0854169 v 1.45521 1.45521 h -6.0854169 -6.0854174 z m 52.12292,0 v -1.45521 h 6.085416 6.085417 v 1.45521 1.45521 h -6.085417 -6.085416 z m 15.345834,0 v -1.45521 h 1.5875 1.5875 v 1.45521 1.45521 h -1.5875 -1.5875 z m 42.862502,0 v -1.45521 h 4.630208 4.63021 v 1.45521 1.45521 h -4.63021 -4.630208 z m 12.435418,0 v -1.45521 h 6.08542 6.08541 v 1.45521 1.45521 h -6.08541 -6.08542 z m 46.0375,0 v -1.45521 h 6.08542 6.08541 v 1.45521 1.45521 h -6.08541 -6.08542 z m 26.12761,-3.16107 -1.52136,-1.6886 v -2.93298 -2.93298 h 7.80521 7.80521 v 1.45521 1.45521 h -1.5875 -1.5875 v 1.5875 1.5875 h 1.5875 1.5875 v 1.5875 1.5875 l -6.28385,-0.009 -6.28386,-0.009 -1.52135,-1.6886 z m 8.00364,-3.05664 v -1.5875 h -3.175 -3.175 v 1.5875 1.5875 h 3.175 3.175 z m -202.935424,0 v -1.5875 h 6.0854174 6.0854169 v 1.5875 1.5875 h -6.0854169 -6.0854174 z m 58.208336,0 v -1.5875 h 6.217709 6.217709 v 1.5875 1.5875 h -6.217709 -6.217709 z m 27.781252,0 v -1.5875 h 4.497917 4.497917 v 1.5875 1.5875 h -4.497917 -4.497917 z m 24.341668,0 v -1.5875 h 6.217708 6.21771 v 1.5875 1.5875 h -6.21771 -6.217708 z m 18.520838,0 v -1.5875 h 6.08541 6.08542 v 1.5875 1.5875 h -6.08542 -6.08541 z m 39.95208,0 v -1.5875 h 6.08542 6.08541 v 1.5875 1.5875 h -6.08541 -6.08542 z M -15.875004,101.6808 v -1.5875 h 6.0854174 6.0854169 v 1.5875 1.5875 h -6.0854169 -6.0854174 z m 52.12292,0 v -1.5875 h 6.085416 6.085417 v 1.5875 1.5875 h -6.085417 -6.085416 z m 15.345834,0 v -1.5875 h 1.5875 1.5875 v 1.5875 1.5875 h -1.5875 -1.5875 z m 16.66875,0 v -1.5875 h 6.350001 6.35 v 1.5875 1.5875 h -6.35 -6.350001 z m 26.193752,0 v -1.5875 h 6.217708 6.21771 v 1.5875 1.5875 h -6.21771 -6.217708 z m 24.606248,0 v -1.5875 h 6.21771 6.21771 v 1.5875 1.5875 h -6.21771 -6.21771 z m 33.86667,0 v -1.5875 h 6.08542 6.08541 v 1.5875 1.5875 h -6.08541 -6.08542 z m 24.60625,-6.217704 v -4.630208 h 3.175 3.175 v -1.455209 -1.455208 h 4.63021 4.63021 v 6.085417 6.085412 h -7.80521 -7.80521 z m 6.35,0.132292 v -1.5875 h -1.5875 -1.5875 v 1.5875 1.5875 h 1.5875 1.5875 z m 6.08542,-1.5875 v -3.175 h -1.45521 -1.45521 v 3.175 3.175 h 1.45521 1.45521 z m -205.845844,1.5875 v -1.5875 h 6.0854174 6.0854169 v 1.5875 1.5875 h -6.0854169 -6.0854174 z m 46.037503,0 v -1.5875 h 6.085417 6.085416 v 1.5875 1.5875 h -6.085416 -6.085417 z m 15.345834,0 v -1.5875 h 4.630208 4.630209 v 1.5875 1.5875 h -4.630209 -4.630208 z m 19.843751,0 v -1.5875 h 9.260417 9.260417 v 1.5875 1.5875 h -9.260417 -9.260417 z m 29.104168,0 v -1.5875 h 6.217708 6.21771 v 1.5875 1.5875 h -6.21771 -6.217708 z m 30.691668,0 v -1.5875 h 6.21771 6.21771 v 1.5875 1.5875 h -6.21771 -6.21771 z m 27.78125,0 v -1.5875 h 6.08542 6.08541 v 1.5875 1.5875 h -6.08541 -6.08542 z M -15.875004,89.377679 v -1.455208 h 6.0854174 6.0854169 v 1.455208 1.455209 h -6.0854169 -6.0854174 z m 39.687502,0 v -1.455208 h 6.217709 6.217709 v 1.455208 1.455209 h -6.217709 -6.217709 z m 18.520834,0 v -1.455208 h 6.217709 6.217709 v 1.455208 1.455209 h -6.217709 -6.217709 z m 18.520835,0 v -1.455208 h 6.085417 6.085417 v 1.455208 1.455209 h -6.085417 -6.085417 z m 15.345834,0 v -1.455208 h 6.085417 6.085417 v 1.455208 1.455209 h -6.085417 -6.085417 z m 18.256251,0 v -1.455208 h 6.217708 6.21771 v 1.455208 1.455209 h -6.21771 -6.217708 z m 37.041668,0 v -1.455208 h 6.08542 6.08541 v 1.455208 1.455209 h -6.08541 -6.08542 z m 21.43125,0 v -1.455208 h 6.08542 6.08541 v 1.455208 1.455209 h -6.08541 -6.08542 z M -15.875004,83.159971 v -1.5875 h 6.0854174 6.0854169 v 1.5875 1.5875 h -6.0854169 -6.0854174 z m 33.602085,0 v -1.5875 h 6.217709 6.217709 v 1.5875 1.5875 H 23.94479 17.727081 Z m 24.606251,0 v -1.5875 h 6.217709 6.217709 v 1.5875 1.5875 h -6.217709 -6.217709 z m 15.345835,0 v -1.5875 h 6.217708 6.217709 v 1.5875 1.5875 h -6.217709 -6.217708 z m 21.431251,0 v -1.5875 h 6.217708 6.217709 v 1.5875 1.5875 h -6.217709 -6.217708 z m 15.345834,0 v -1.5875 h 6.217708 6.21771 v 1.5875 1.5875 h -6.21771 -6.217708 z m 43.127088,0 v -1.5875 h 6.08541 6.08542 v 1.5875 1.5875 h -6.08542 -6.08541 z m 15.34583,0 v -1.5875 h 6.08542 6.08541 v 1.5875 1.5875 h -6.08541 -6.08542 z m 26.10174,0.01964 -1.49549,-1.567859 v -3.06235 -3.06235 h 1.5875 1.5875 l 0.0169,1.653646 0.0169,1.653646 1.57057,1.4163 1.57056,1.4163 v -3.069946 -3.069946 l 2.97657,0.0012 2.97656,0.0012 1.65364,1.668666 1.65365,1.668665 v 2.96032 2.960331 h -1.5875 -1.5875 v -1.530392 c 0,-1.504434 -0.0247,-1.554769 -1.45521,-2.967524 l -1.45521,-1.437132 v 2.967524 2.967524 h -3.26701 -3.26702 l -1.49548,-1.567858 z M -15.875004,77.074555 v -1.5875 h 6.0854174 6.0854169 v 1.5875 1.5875 h -6.0854169 -6.0854174 z m 27.516668,0 v -1.5875 h 6.085417 6.085417 v 1.5875 1.5875 h -6.085417 -6.085417 z m 30.691668,0 v -1.5875 h 12.303126 12.303126 v 1.5875 1.5875 H 54.636458 42.333332 Z m 39.952086,0 v -1.5875 h 12.303125 12.303127 v 1.5875 1.5875 H 94.588543 82.285418 Z m 61.383332,0 v -1.5875 H 154.38438 165.1 v 1.5875 1.5875 H 154.38438 143.66875 Z M -15.875004,70.989138 V 69.401639 H 0.92603888 17.727081 v 1.587499 1.5875 H 0.92603888 -15.875004 Z m 58.208336,0 v -1.587499 h 10.715626 10.715625 v 1.587499 1.5875 H 53.048958 42.333332 Z m 43.127086,0 v -1.587499 h 10.715625 10.715627 v 1.587499 1.5875 H 96.176043 85.460418 Z m 67.468752,0 v -1.587499 h 6.08542 6.08541 v 1.587499 1.5875 h -6.08541 -6.08542 z"
         inkscape:connector-curvature="0"
         id="path4526" />
      <path
         style="fill:#494949;fill-opacity:1;stroke-width:0.26458335"
         d="m -15.875004,126.28705 v -1.5875 h 26.06146 26.06146 v 1.5875 1.5875 h -26.06146 -26.06146 z m 58.208336,0 v -1.5875 h 6.217709 6.217709 v 1.5875 1.5875 h -6.217709 -6.217709 z m 52.12292,0 v -1.5875 H 120.65 146.84375 v 1.5875 1.5875 H 120.65 94.456252 Z m 58.472918,0 v -1.5875 h 6.08542 6.08541 v 1.5875 1.5875 h -6.08541 -6.08542 z m 24.60625,0 v -1.5875 h 6.21771 6.21771 v -4.6302 -4.63021 h 1.5875 1.5875 v 6.21771 6.2177 h -7.80521 -7.80521 z m -193.410424,-6.2177 v -1.45521 h 6.0854174 6.0854169 v 1.45521 1.4552 h -6.0854169 -6.0854174 z m 46.037503,0 v -1.45521 h 6.085417 6.085416 v 1.45521 1.4552 h -6.085416 -6.085417 z m 15.345834,0 v -1.45521 h 4.630208 4.630209 v 1.45521 1.4552 h -4.630209 -4.630208 z m 48.947919,0 v -1.45521 h 1.5875 1.5875 v 1.45521 1.4552 h -1.5875 -1.5875 z m 6.349998,0 v -1.45521 h 6.08542 6.08542 v 1.45521 1.4552 h -6.08542 -6.08542 z m 52.12292,0 v -1.45521 h 6.08542 6.08541 v 1.45521 1.4552 h -6.08541 -6.08542 z m -168.804174,-6.08542 v -1.45521 h 6.0854174 6.0854169 v 1.45521 1.45521 h -6.0854169 -6.0854174 z m 52.12292,0 v -1.45521 h 6.085416 6.085417 v 1.45521 1.45521 h -6.085417 -6.085416 z m 15.345834,0 v -1.45521 h 1.5875 1.5875 v 1.45521 1.45521 h -1.5875 -1.5875 z m 42.862502,0 v -1.45521 h 4.630208 4.63021 v 1.45521 1.45521 h -4.63021 -4.630208 z m 12.435418,0 v -1.45521 h 6.08542 6.08541 v 1.45521 1.45521 h -6.08541 -6.08542 z m 46.0375,0 v -1.45521 h 6.08542 6.08541 v 1.45521 1.45521 h -6.08541 -6.08542 z m 26.12761,-3.16107 -1.52136,-1.6886 v -2.93298 -2.93298 h 7.80521 7.80521 v 1.45521 1.45521 h -1.5875 -1.5875 v 1.5875 1.5875 h 1.5875 1.5875 v 1.5875 1.5875 l -6.28385,-0.009 -6.28386,-0.009 -1.52135,-1.6886 z m 8.00364,-3.05664 v -1.5875 h -3.175 -3.175 v 1.5875 1.5875 h 3.175 3.175 z m -202.935424,0 v -1.5875 h 6.0854174 6.0854169 v 1.5875 1.5875 h -6.0854169 -6.0854174 z m 58.208336,0 v -1.5875 h 6.217709 6.217709 v 1.5875 1.5875 h -6.217709 -6.217709 z m 27.781252,0 v -1.5875 h 4.497917 4.497917 v 1.5875 1.5875 h -4.497917 -4.497917 z m 24.341668,0 v -1.5875 h 6.217708 6.21771 v 1.5875 1.5875 h -6.21771 -6.217708 z m 18.520838,0 v -1.5875 h 6.08541 6.08542 v 1.5875 1.5875 h -6.08542 -6.08541 z m 39.95208,0 v -1.5875 h 6.08542 6.08541 v 1.5875 1.5875 h -6.08541 -6.08542 z M -15.875004,101.6808 v -1.5875 h 6.0854174 6.0854169 v 1.5875 1.5875 h -6.0854169 -6.0854174 z m 52.12292,0 v -1.5875 h 6.085416 6.085417 v 1.5875 1.5875 h -6.085417 -6.085416 z m 15.345834,0 v -1.5875 h 1.5875 1.5875 v 1.5875 1.5875 h -1.5875 -1.5875 z m 16.66875,0 v -1.5875 h 6.350001 6.35 v 1.5875 1.5875 h -6.35 -6.350001 z m 26.193752,0 v -1.5875 h 6.217708 6.21771 v 1.5875 1.5875 h -6.21771 -6.217708 z m 24.606248,0 v -1.5875 h 6.21771 6.21771 v 1.5875 1.5875 h -6.21771 -6.21771 z m 33.86667,0 v -1.5875 h 6.08542 6.08541 v 1.5875 1.5875 h -6.08541 -6.08542 z m 24.60625,-6.217704 v -4.630208 h 3.175 3.175 v -1.455209 -1.455208 h 4.63021 4.63021 v 6.085417 6.085412 h -7.80521 -7.80521 z m 6.35,0.132292 v -1.5875 h -1.5875 -1.5875 v 1.5875 1.5875 h 1.5875 1.5875 z m 6.08542,-1.5875 v -3.175 h -1.45521 -1.45521 v 3.175 3.175 h 1.45521 1.45521 z m -205.845844,1.5875 v -1.5875 h 6.0854174 6.0854169 v 1.5875 1.5875 h -6.0854169 -6.0854174 z m 46.037503,0 v -1.5875 h 6.085417 6.085416 v 1.5875 1.5875 h -6.085416 -6.085417 z m 15.345834,0 v -1.5875 h 4.630208 4.630209 v 1.5875 1.5875 h -4.630209 -4.630208 z m 19.843751,0 v -1.5875 h 9.260417 9.260417 v 1.5875 1.5875 h -9.260417 -9.260417 z m 29.104168,0 v -1.5875 h 6.217708 6.21771 v 1.5875 1.5875 h -6.21771 -6.217708 z m 30.691668,0 v -1.5875 h 6.21771 6.21771 v 1.5875 1.5875 h -6.21771 -6.21771 z m 27.78125,0 v -1.5875 h 6.08542 6.08541 v 1.5875 1.5875 h -6.08541 -6.08542 z M -15.875004,89.377679 v -1.455208 h 6.0854174 6.0854169 v 1.455208 1.455209 h -6.0854169 -6.0854174 z m 39.687502,0 v -1.455208 h 6.217709 6.217709 v 1.455208 1.455209 h -6.217709 -6.217709 z m 18.520834,0 v -1.455208 h 6.217709 6.217709 v 1.455208 1.455209 h -6.217709 -6.217709 z m 18.520835,0 v -1.455208 h 6.085417 6.085417 v 1.455208 1.455209 h -6.085417 -6.085417 z m 15.345834,0 v -1.455208 h 6.085417 6.085417 v 1.455208 1.455209 h -6.085417 -6.085417 z m 18.256251,0 v -1.455208 h 6.217708 6.21771 v 1.455208 1.455209 h -6.21771 -6.217708 z m 37.041668,0 v -1.455208 h 6.08542 6.08541 v 1.455208 1.455209 h -6.08541 -6.08542 z m 21.43125,0 v -1.455208 h 6.08542 6.08541 v 1.455208 1.455209 h -6.08541 -6.08542 z M -15.875004,83.159971 v -1.5875 h 6.0854174 6.0854169 v 1.5875 1.5875 h -6.0854169 -6.0854174 z m 33.602085,0 v -1.5875 h 6.217709 6.217709 v 1.5875 1.5875 H 23.94479 17.727081 Z m 24.606251,0 v -1.5875 h 6.217709 6.217709 v 1.5875 1.5875 h -6.217709 -6.217709 z m 15.345835,0 v -1.5875 h 6.217708 6.217709 v 1.5875 1.5875 h -6.217709 -6.217708 z m 21.431251,0 v -1.5875 h 6.217708 6.217709 v 1.5875 1.5875 h -6.217709 -6.217708 z m 15.345834,0 v -1.5875 h 6.217708 6.21771 v 1.5875 1.5875 h -6.21771 -6.217708 z m 43.127088,0 v -1.5875 h 6.08541 6.08542 v 1.5875 1.5875 h -6.08542 -6.08541 z m 15.34583,0 v -1.5875 h 6.08542 6.08541 v 1.5875 1.5875 h -6.08541 -6.08542 z m 26.10174,0.01964 -1.49549,-1.567859 v -3.06235 -3.06235 h 1.5875 1.5875 l 0.0169,1.653646 0.0169,1.653646 1.57057,1.4163 1.57056,1.4163 v -3.069946 -3.069946 l 2.97657,0.0012 2.97656,0.0012 1.65364,1.668666 1.65365,1.668665 v 2.96032 2.960331 h -1.5875 -1.5875 v -1.530392 c 0,-1.504434 -0.0247,-1.554769 -1.45521,-2.967524 l -1.45521,-1.437132 v 2.967524 2.967524 h -3.26701 -3.26702 l -1.49548,-1.567858 z M -15.875004,77.074555 v -1.5875 h 6.0854174 6.0854169 v 1.5875 1.5875 h -6.0854169 -6.0854174 z m 27.516668,0 v -1.5875 h 6.085417 6.085417 v 1.5875 1.5875 h -6.085417 -6.085417 z m 30.691668,0 v -1.5875 h 12.303126 12.303126 v 1.5875 1.5875 H 54.636458 42.333332 Z m 39.952086,0 v -1.5875 h 12.303125 12.303127 v 1.5875 1.5875 H 94.588543 82.285418 Z m 61.383332,0 v -1.5875 H 154.38438 165.1 v 1.5875 1.5875 H 154.38438 143.66875 Z M -15.875004,70.989138 V 69.401639 H 0.92603888 17.727081 v 1.587499 1.5875 H 0.92603888 -15.875004 Z m 58.208336,0 v -1.587499 h 10.715626 10.715625 v 1.587499 1.5875 H 53.048958 42.333332 Z m 43.127086,0 v -1.587499 h 10.715625 10.715627 v 1.587499 1.5875 H 96.176043 85.460418 Z m 67.468752,0 v -1.587499 h 6.08542 6.08541 v 1.587499 1.5875 h -6.08541 -6.08542 z"
         inkscape:connector-curvature="0"
         id="path4524" />
      <path
         style="fill:#333333;fill-opacity:1;stroke-width:0.26458335"
         d="m -15.875004,126.28705 v -1.5875 h 26.06146 26.06146 v 1.5875 1.5875 h -26.06146 -26.06146 z m 58.208336,0 v -1.5875 h 6.217709 6.217709 v 1.5875 1.5875 h -6.217709 -6.217709 z m 52.12292,0 v -1.5875 H 120.65 146.84375 v 1.5875 1.5875 H 120.65 94.456252 Z m 58.472918,0 v -1.5875 h 6.08542 6.08541 v 1.5875 1.5875 h -6.08541 -6.08542 z m 24.60625,0 v -1.5875 h 6.21771 6.21771 v -4.6302 -4.63021 h 1.5875 1.5875 v 6.21771 6.2177 h -7.80521 -7.80521 z m -193.410424,-6.2177 v -1.45521 h 6.0854174 6.0854169 v 1.45521 1.4552 h -6.0854169 -6.0854174 z m 46.037503,0 v -1.45521 h 6.085417 6.085416 v 1.45521 1.4552 h -6.085416 -6.085417 z m 15.345834,0 v -1.45521 h 4.630208 4.630209 v 1.45521 1.4552 h -4.630209 -4.630208 z m 48.947919,0 v -1.45521 h 1.5875 1.5875 v 1.45521 1.4552 h -1.5875 -1.5875 z m 6.349998,0 v -1.45521 h 6.08542 6.08542 v 1.45521 1.4552 h -6.08542 -6.08542 z m 52.12292,0 v -1.45521 h 6.08542 6.08541 v 1.45521 1.4552 h -6.08541 -6.08542 z m -168.804174,-6.08542 v -1.45521 h 6.0854174 6.0854169 v 1.45521 1.45521 h -6.0854169 -6.0854174 z m 52.12292,0 v -1.45521 h 6.085416 6.085417 v 1.45521 1.45521 h -6.085417 -6.085416 z m 15.345834,0 v -1.45521 h 1.5875 1.5875 v 1.45521 1.45521 h -1.5875 -1.5875 z m 42.862502,0 v -1.45521 h 4.630208 4.63021 v 1.45521 1.45521 h -4.63021 -4.630208 z m 12.435418,0 v -1.45521 h 6.08542 6.08541 v 1.45521 1.45521 h -6.08541 -6.08542 z m 46.0375,0 v -1.45521 h 6.08542 6.08541 v 1.45521 1.45521 h -6.08541 -6.08542 z m 26.12761,-3.16107 -1.52136,-1.6886 v -2.93298 -2.93298 h 7.80521 7.80521 v 1.45521 1.45521 h -1.5875 -1.5875 v 1.5875 1.5875 h 1.5875 1.5875 v 1.5875 1.5875 l -6.28385,-0.009 -6.28386,-0.009 -1.52135,-1.6886 z m 8.00364,-3.05664 v -1.5875 h -3.175 -3.175 v 1.5875 1.5875 h 3.175 3.175 z m -202.935424,0 v -1.5875 h 6.0854174 6.0854169 v 1.5875 1.5875 h -6.0854169 -6.0854174 z m 58.208336,0 v -1.5875 h 6.217709 6.217709 v 1.5875 1.5875 h -6.217709 -6.217709 z m 27.781252,0 v -1.5875 h 4.497917 4.497917 v 1.5875 1.5875 h -4.497917 -4.497917 z m 24.341668,0 v -1.5875 h 6.217708 6.21771 v 1.5875 1.5875 h -6.21771 -6.217708 z m 18.520838,0 v -1.5875 h 6.08541 6.08542 v 1.5875 1.5875 h -6.08542 -6.08541 z m 39.95208,0 v -1.5875 h 6.08542 6.08541 v 1.5875 1.5875 h -6.08541 -6.08542 z M -15.875004,101.6808 v -1.5875 h 6.0854174 6.0854169 v 1.5875 1.5875 h -6.0854169 -6.0854174 z m 52.12292,0 v -1.5875 h 6.085416 6.085417 v 1.5875 1.5875 h -6.085417 -6.085416 z m 15.345834,0 v -1.5875 h 1.5875 1.5875 v 1.5875 1.5875 h -1.5875 -1.5875 z m 16.66875,0 v -1.5875 h 6.350001 6.35 v 1.5875 1.5875 h -6.35 -6.350001 z m 26.193752,0 v -1.5875 h 6.217708 6.21771 v 1.5875 1.5875 h -6.21771 -6.217708 z m 24.606248,0 v -1.5875 h 6.21771 6.21771 v 1.5875 1.5875 h -6.21771 -6.21771 z m 33.86667,0 v -1.5875 h 6.08542 6.08541 v 1.5875 1.5875 h -6.08541 -6.08542 z m 24.60625,-6.217704 v -4.630208 h 3.175 3.175 v -1.455209 -1.455208 h 4.63021 4.63021 v 6.085417 6.085412 h -7.80521 -7.80521 z m 6.35,0.132292 v -1.5875 h -1.5875 -1.5875 v 1.5875 1.5875 h 1.5875 1.5875 z m 6.08542,-1.5875 v -3.175 h -1.45521 -1.45521 v 3.175 3.175 h 1.45521 1.45521 z m -205.845844,1.5875 v -1.5875 h 6.0854174 6.0854169 v 1.5875 1.5875 h -6.0854169 -6.0854174 z m 46.037503,0 v -1.5875 h 6.085417 6.085416 v 1.5875 1.5875 h -6.085416 -6.085417 z m 15.345834,0 v -1.5875 h 4.630208 4.630209 v 1.5875 1.5875 h -4.630209 -4.630208 z m 19.843751,0 v -1.5875 h 9.260417 9.260417 v 1.5875 1.5875 h -9.260417 -9.260417 z m 29.104168,0 v -1.5875 h 6.217708 6.21771 v 1.5875 1.5875 h -6.21771 -6.217708 z m 30.691668,0 v -1.5875 h 6.21771 6.21771 v 1.5875 1.5875 h -6.21771 -6.21771 z m 27.78125,0 v -1.5875 h 6.08542 6.08541 v 1.5875 1.5875 h -6.08541 -6.08542 z M -15.875004,89.377679 v -1.455208 h 6.0854174 6.0854169 v 1.455208 1.455209 h -6.0854169 -6.0854174 z m 39.687502,0 v -1.455208 h 6.217709 6.217709 v 1.455208 1.455209 h -6.217709 -6.217709 z m 18.520834,0 v -1.455208 h 6.217709 6.217709 v 1.455208 1.455209 h -6.217709 -6.217709 z m 18.520835,0 v -1.455208 h 6.085417 6.085417 v 1.455208 1.455209 h -6.085417 -6.085417 z m 15.345834,0 v -1.455208 h 6.085417 6.085417 v 1.455208 1.455209 h -6.085417 -6.085417 z m 18.256251,0 v -1.455208 h 6.217708 6.21771 v 1.455208 1.455209 h -6.21771 -6.217708 z m 37.041668,0 v -1.455208 h 6.08542 6.08541 v 1.455208 1.455209 h -6.08541 -6.08542 z m 21.43125,0 v -1.455208 h 6.08542 6.08541 v 1.455208 1.455209 h -6.08541 -6.08542 z M -15.875004,83.159971 v -1.5875 h 6.0854174 6.0854169 v 1.5875 1.5875 h -6.0854169 -6.0854174 z m 33.602085,0 v -1.5875 h 6.217709 6.217709 v 1.5875 1.5875 H 23.94479 17.727081 Z m 24.606251,0 v -1.5875 h 6.217709 6.217709 v 1.5875 1.5875 h -6.217709 -6.217709 z m 15.345835,0 v -1.5875 h 6.217708 6.217709 v 1.5875 1.5875 h -6.217709 -6.217708 z m 21.431251,0 v -1.5875 h 6.217708 6.217709 v 1.5875 1.5875 h -6.217709 -6.217708 z m 15.345834,0 v -1.5875 h 6.217708 6.21771 v 1.5875 1.5875 h -6.21771 -6.217708 z m 43.127088,0 v -1.5875 h 6.08541 6.08542 v 1.5875 1.5875 h -6.08542 -6.08541 z m 15.34583,0 v -1.5875 h 6.08542 6.08541 v 1.5875 1.5875 h -6.08541 -6.08542 z m 26.10174,0.01964 -1.49549,-1.567859 v -3.06235 -3.06235 h 1.5875 1.5875 l 0.0169,1.653646 0.0169,1.653646 1.57057,1.4163 1.57056,1.4163 v -3.069946 -3.069946 l 2.97657,0.0012 2.97656,0.0012 1.65364,1.668666 1.65365,1.668665 v 2.96032 2.960331 h -1.5875 -1.5875 v -1.530392 c 0,-1.504434 -0.0247,-1.554769 -1.45521,-2.967524 l -1.45521,-1.437132 v 2.967524 2.967524 h -3.26701 -3.26702 l -1.49548,-1.567858 z M -15.875004,77.074555 v -1.5875 h 6.0854174 6.0854169 v 1.5875 1.5875 h -6.0854169 -6.0854174 z m 27.516668,0 v -1.5875 h 6.085417 6.085417 v 1.5875 1.5875 h -6.085417 -6.085417 z m 30.691668,0 v -1.5875 h 12.303126 12.303126 v 1.5875 1.5875 H 54.636458 42.333332 Z m 39.952086,0 v -1.5875 h 12.303125 12.303127 v 1.5875 1.5875 H 94.588543 82.285418 Z m 61.383332,0 v -1.5875 H 154.38438 165.1 v 1.5875 1.5875 H 154.38438 143.66875 Z M -15.875004,70.989138 V 69.401639 H 0.92603888 17.727081 v 1.587499 1.5875 H 0.92603888 -15.875004 Z m 58.208336,0 v -1.587499 h 10.715626 10.715625 v 1.587499 1.5875 H 53.048958 42.333332 Z m 43.127086,0 v -1.587499 h 10.715625 10.715627 v 1.587499 1.5875 H 96.176043 85.460418 Z m 67.468752,0 v -1.587499 h 6.08542 6.08541 v 1.587499 1.5875 h -6.08541 -6.08542 z"
         inkscape:connector-curvature="0"
         id="path4522" />
    </g>
  </g>
</svg>
