<?xml version="1.0" encoding="UTF-8" standalone="no"?>
<!-- Created with Inkscape (http://www.inkscape.org/) -->

<svg
   xmlns:dc="http://purl.org/dc/elements/1.1/"
   xmlns:cc="http://creativecommons.org/ns#"
   xmlns:rdf="http://www.w3.org/1999/02/22-rdf-syntax-ns#"
   xmlns:svg="http://www.w3.org/2000/svg"
   xmlns="http://www.w3.org/2000/svg"
   xmlns:sodipodi="http://sodipodi.sourceforge.net/DTD/sodipodi-0.dtd"
   xmlns:inkscape="http://www.inkscape.org/namespaces/inkscape"
   width="210mm"
   height="297mm"
   viewBox="0 0 210 297"
   version="1.1"
   id="svg4542"
   inkscape:version="0.92.1 r15371"
   sodipodi:docname="dma.svg"
   inkscape:export-filename="C:\Projects\CommonSense\PCB\dma.png"
   inkscape:export-xdpi="8.2533932"
   inkscape:export-ydpi="8.2533932">
  <defs
     id="defs4536" />
  <sodipodi:namedview
     id="base"
     pagecolor="#ffffff"
     bordercolor="#666666"
     borderopacity="1.0"
     inkscape:pageopacity="0.0"
     inkscape:pageshadow="2"
     inkscape:zoom="2"
     inkscape:cx="303.20499"
     inkscape:cy="30.183377"
     inkscape:document-units="mm"
     inkscape:current-layer="layer1"
     showgrid="false" />
  <metadata
     id="metadata4539">
    <rdf:RDF>
      <cc:Work
         rdf:about="">
        <dc:format>image/svg+xml</dc:format>
        <dc:type
           rdf:resource="http://purl.org/dc/dcmitype/StillImage" />
        <dc:title></dc:title>
      </cc:Work>
    </rdf:RDF>
  </metadata>
  <g
     inkscape:label="Layer 1"
     inkscape:groupmode="layer"
     id="layer1">
    <path
       style="fill:#000000;stroke-width:0.26458335"
       d="M 0,295.4125 V 293.825 H 26.061459 52.122918 V 295.4125 297 H 26.061459 0 Z m 58.208334,0 v -1.5875 h 6.217709 6.217708 V 295.4125 297 h -6.217708 -6.217709 z m 52.122916,0 V 293.825 H 136.525 162.71875 V 295.4125 297 H 136.525 110.33125 Z m 58.47292,0 v -1.5875 h 6.08541 6.08542 V 295.4125 297 h -6.08542 -6.08541 z M 0,289.19479 v -1.45521 h 6.085417 6.085417 v 1.45521 1.45521 H 6.085417 0 Z m 46.037501,0 v -1.45521 h 6.085417 6.085416 v 1.45521 1.45521 h -6.085416 -6.085417 z m 15.345833,0 v -1.45521 h 4.630209 4.630208 v 1.45521 1.45521 h -4.630208 -4.630209 z m 48.947916,0 v -1.45521 h 1.5875 1.5875 v 1.45521 1.45521 h -1.5875 -1.5875 z m 6.35,0 v -1.45521 h 6.08541 6.08542 v 1.45521 1.45521 h -6.08542 -6.08541 z m 52.12292,0 v -1.45521 h 6.08541 6.08542 v 1.45521 1.45521 h -6.08542 -6.08541 z M 0,283.10937 v -1.4552 h 6.085417 6.085417 v 1.4552 1.45521 H 6.085417 0 Z m 52.122918,0 v -1.4552 h 6.085416 6.085417 v 1.4552 1.45521 h -6.085417 -6.085416 z m 15.345833,0 v -1.4552 h 1.5875 1.5875 v 1.4552 1.45521 h -1.5875 -1.5875 z m 42.862499,0 v -1.4552 h 4.63021 4.6302 v 1.4552 1.45521 h -4.6302 -4.63021 z m 12.43541,0 v -1.4552 h 6.08542 6.08542 v 1.4552 1.45521 h -6.08542 -6.08542 z m 46.03751,0 v -1.4552 h 6.08541 6.08542 v 1.4552 1.45521 h -6.08542 -6.08541 z M 0,276.89166 v -1.5875 h 6.085417 6.085417 v 1.5875 1.5875 H 6.085417 0 Z m 58.208334,0 v -1.5875 h 6.217709 6.217708 v 1.5875 1.5875 h -6.217708 -6.217709 z m 27.78125,0 v -1.5875 h 4.49792 4.49791 v 1.5875 1.5875 h -4.49791 -4.49792 z m 24.341666,0 v -1.5875 h 6.21771 6.2177 v 1.5875 1.5875 h -6.2177 -6.21771 z m 18.52083,0 v -1.5875 h 6.08542 6.08542 v 1.5875 1.5875 h -6.08542 -6.08542 z m 39.95209,0 v -1.5875 h 6.08541 6.08542 v 1.5875 1.5875 h -6.08542 -6.08541 z M 0,270.80625 v -1.5875 h 6.085417 6.085417 v 1.5875 1.5875 H 6.085417 0 Z m 52.122918,0 v -1.5875 h 6.085416 6.085417 v 1.5875 1.5875 h -6.085417 -6.085416 z m 15.345833,0 v -1.5875 h 1.5875 1.5875 v 1.5875 1.5875 h -1.5875 -1.5875 z m 16.668753,0 v -1.5875 h 6.35 6.35 v 1.5875 1.5875 h -6.35 -6.35 z m 26.193746,0 v -1.5875 h 6.21771 6.2177 v 1.5875 1.5875 h -6.2177 -6.21771 z m 24.60625,0 v -1.5875 h 6.21771 6.21771 v 1.5875 1.5875 h -6.21771 -6.21771 z m 33.86667,0 v -1.5875 h 6.08541 6.08542 v 1.5875 1.5875 h -6.08542 -6.08541 z M 0,264.72083 v -1.5875 h 6.085417 6.085417 v 1.5875 1.5875 H 6.085417 0 Z m 46.037501,0 v -1.5875 h 6.085417 6.085416 v 1.5875 1.5875 h -6.085416 -6.085417 z m 15.345833,0 v -1.5875 h 4.630209 4.630208 v 1.5875 1.5875 h -4.630208 -4.630209 z m 19.843751,0 v -1.5875 h 9.260419 9.260409 v 1.5875 1.5875 h -9.260409 -9.260419 z m 29.104165,0 v -1.5875 h 6.21771 6.2177 v 1.5875 1.5875 h -6.2177 -6.21771 z m 30.69167,0 v -1.5875 h 6.2177 6.21771 v 1.5875 1.5875 h -6.21771 -6.2177 z m 27.78125,0 v -1.5875 h 6.08541 6.08542 v 1.5875 1.5875 h -6.08542 -6.08541 z M 0,258.50312 v -1.45521 h 6.085417 6.085417 v 1.45521 1.45521 H 6.085417 0 Z m 39.687501,0 v -1.45521 h 6.217708 6.217709 v 1.45521 1.45521 h -6.217709 -6.217708 z m 18.520833,0 v -1.45521 h 6.217709 6.217708 v 1.45521 1.45521 h -6.217708 -6.217709 z m 18.520834,0 v -1.45521 h 6.085416 6.08542 v 1.45521 1.45521 h -6.08542 -6.085416 z m 15.345836,0 v -1.45521 h 6.08541 6.085416 v 1.45521 1.45521 h -6.085416 -6.08541 z m 18.256246,0 v -1.45521 h 6.21771 6.2177 v 1.45521 1.45521 h -6.2177 -6.21771 z m 37.04167,0 v -1.45521 h 6.08541 6.08542 v 1.45521 1.45521 h -6.08542 -6.08541 z m 21.43125,0 v -1.45521 h 6.08541 6.08542 v 1.45521 1.45521 h -6.08542 -6.08541 z M 0,252.28541 v -1.5875 h 6.085417 6.085417 v 1.5875 1.5875 H 6.085417 0 Z m 33.602084,0 v -1.5875 h 6.217708 6.217709 v 1.5875 1.5875 h -6.217709 -6.217708 z m 24.60625,0 v -1.5875 h 6.217709 6.217708 v 1.5875 1.5875 h -6.217708 -6.217709 z m 15.345834,0 v -1.5875 h 6.217708 6.217708 v 1.5875 1.5875 h -6.217708 -6.217708 z m 21.431246,0 v -1.5875 h 6.217706 6.21771 v 1.5875 1.5875 h -6.21771 -6.217706 z m 15.345836,0 v -1.5875 h 6.21771 6.2177 v 1.5875 1.5875 h -6.2177 -6.21771 z m 43.12708,0 v -1.5875 h 6.08542 6.08542 v 1.5875 1.5875 h -6.08542 -6.08542 z m 15.34584,0 v -1.5875 h 6.08541 6.08542 v 1.5875 1.5875 h -6.08542 -6.08541 z M 0,246.2 v -1.5875 h 6.085417 6.085417 v 1.5875 1.5875 H 6.085417 0 Z m 27.516667,0 v -1.5875 h 6.085417 6.085417 v 1.5875 1.5875 h -6.085417 -6.085417 z m 30.691667,0 v -1.5875 H 70.51146 82.814584 v 1.5875 1.5875 H 70.51146 58.208334 Z m 39.95208,0 v -1.5875 h 12.303126 12.30312 v 1.5875 1.5875 H 110.46354 98.160414 Z m 61.383336,0 v -1.5875 h 10.71562 10.71563 v 1.5875 1.5875 H 170.25937 159.54375 Z M 0,240.11458 v -1.5875 h 16.801042 16.801042 v 1.5875 1.5875 H 16.801042 0 Z m 58.208334,0 v -1.5875 H 68.92396 79.639585 v 1.5875 1.5875 H 68.92396 58.208334 Z m 43.127076,0 v -1.5875 h 10.71563 10.71562 v 1.5875 1.5875 h -10.71562 -10.71563 z m 67.46876,0 v -1.5875 h 6.08541 6.08542 v 1.5875 1.5875 h -6.08542 -6.08541 z"
       id="path5098"
       inkscape:connector-curvature="0" />
    <path
       inkscape:connector-curvature="0"
       id="path5100"
       d="M 0,295.4125 V 293.825 H 26.061459 52.122918 V 295.4125 297 H 26.061459 0 Z m 58.208334,0 v -1.5875 h 6.217709 6.217708 V 295.4125 297 h -6.217708 -6.217709 z m 52.122916,0 V 293.825 H 136.525 162.71875 V 295.4125 297 H 136.525 110.33125 Z m 58.47292,0 v -1.5875 h 6.08541 6.08542 V 295.4125 297 h -6.08542 -6.08541 z M 0,289.19479 v -1.45521 h 6.085417 6.085417 v 1.45521 1.45521 H 6.085417 0 Z m 46.037501,0 v -1.45521 h 6.085417 6.085416 v 1.45521 1.45521 h -6.085416 -6.085417 z m 15.345833,0 v -1.45521 h 4.630209 4.630208 v 1.45521 1.45521 h -4.630208 -4.630209 z m 48.947916,0 v -1.45521 h 1.5875 1.5875 v 1.45521 1.45521 h -1.5875 -1.5875 z m 6.35,0 v -1.45521 h 6.08541 6.08542 v 1.45521 1.45521 h -6.08542 -6.08541 z m 52.12292,0 v -1.45521 h 6.08541 6.08542 v 1.45521 1.45521 h -6.08542 -6.08541 z M 0,283.10937 v -1.4552 h 6.085417 6.085417 v 1.4552 1.45521 H 6.085417 0 Z m 52.122918,0 v -1.4552 h 6.085416 6.085417 v 1.4552 1.45521 h -6.085417 -6.085416 z m 15.345833,0 v -1.4552 h 1.5875 1.5875 v 1.4552 1.45521 h -1.5875 -1.5875 z m 42.862499,0 v -1.4552 h 4.63021 4.6302 v 1.4552 1.45521 h -4.6302 -4.63021 z m 12.43541,0 v -1.4552 h 6.08542 6.08542 v 1.4552 1.45521 h -6.08542 -6.08542 z m 46.03751,0 v -1.4552 h 6.08541 6.08542 v 1.4552 1.45521 h -6.08542 -6.08541 z M 0,276.89166 v -1.5875 h 6.085417 6.085417 v 1.5875 1.5875 H 6.085417 0 Z m 58.208334,0 v -1.5875 h 6.217709 6.217708 v 1.5875 1.5875 h -6.217708 -6.217709 z m 27.78125,0 v -1.5875 h 4.49792 4.49791 v 1.5875 1.5875 h -4.49791 -4.49792 z m 24.341666,0 v -1.5875 h 6.21771 6.2177 v 1.5875 1.5875 h -6.2177 -6.21771 z m 18.52083,0 v -1.5875 h 6.08542 6.08542 v 1.5875 1.5875 h -6.08542 -6.08542 z m 39.95209,0 v -1.5875 h 6.08541 6.08542 v 1.5875 1.5875 h -6.08542 -6.08541 z M 0,270.80625 v -1.5875 h 6.085417 6.085417 v 1.5875 1.5875 H 6.085417 0 Z m 52.122918,0 v -1.5875 h 6.085416 6.085417 v 1.5875 1.5875 h -6.085417 -6.085416 z m 15.345833,0 v -1.5875 h 1.5875 1.5875 v 1.5875 1.5875 h -1.5875 -1.5875 z m 16.668753,0 v -1.5875 h 6.35 6.35 v 1.5875 1.5875 h -6.35 -6.35 z m 26.193746,0 v -1.5875 h 6.21771 6.2177 v 1.5875 1.5875 h -6.2177 -6.21771 z m 24.60625,0 v -1.5875 h 6.21771 6.21771 v 1.5875 1.5875 h -6.21771 -6.21771 z m 33.86667,0 v -1.5875 h 6.08541 6.08542 v 1.5875 1.5875 h -6.08542 -6.08541 z M 0,264.72083 v -1.5875 h 6.085417 6.085417 v 1.5875 1.5875 H 6.085417 0 Z m 46.037501,0 v -1.5875 h 6.085417 6.085416 v 1.5875 1.5875 h -6.085416 -6.085417 z m 15.345833,0 v -1.5875 h 4.630209 4.630208 v 1.5875 1.5875 h -4.630208 -4.630209 z m 19.843751,0 v -1.5875 h 9.260419 9.260409 v 1.5875 1.5875 h -9.260409 -9.260419 z m 29.104165,0 v -1.5875 h 6.21771 6.2177 v 1.5875 1.5875 h -6.2177 -6.21771 z m 30.69167,0 v -1.5875 h 6.2177 6.21771 v 1.5875 1.5875 h -6.21771 -6.2177 z m 27.78125,0 v -1.5875 h 6.08541 6.08542 v 1.5875 1.5875 h -6.08542 -6.08541 z M 0,258.50312 v -1.45521 h 6.085417 6.085417 v 1.45521 1.45521 H 6.085417 0 Z m 39.687501,0 v -1.45521 h 6.217708 6.217709 v 1.45521 1.45521 h -6.217709 -6.217708 z m 18.520833,0 v -1.45521 h 6.217709 6.217708 v 1.45521 1.45521 h -6.217708 -6.217709 z m 18.520834,0 v -1.45521 h 6.085416 6.08542 v 1.45521 1.45521 h -6.08542 -6.085416 z m 15.345836,0 v -1.45521 h 6.08541 6.085416 v 1.45521 1.45521 h -6.085416 -6.08541 z m 18.256246,0 v -1.45521 h 6.21771 6.2177 v 1.45521 1.45521 h -6.2177 -6.21771 z m 37.04167,0 v -1.45521 h 6.08541 6.08542 v 1.45521 1.45521 h -6.08542 -6.08541 z m 21.43125,0 v -1.45521 h 6.08541 6.08542 v 1.45521 1.45521 h -6.08542 -6.08541 z M 0,252.28541 v -1.5875 h 6.085417 6.085417 v 1.5875 1.5875 H 6.085417 0 Z m 33.602084,0 v -1.5875 h 6.217708 6.217709 v 1.5875 1.5875 h -6.217709 -6.217708 z m 24.60625,0 v -1.5875 h 6.217709 6.217708 v 1.5875 1.5875 h -6.217708 -6.217709 z m 15.345834,0 v -1.5875 h 6.217708 6.217708 v 1.5875 1.5875 h -6.217708 -6.217708 z m 21.431246,0 v -1.5875 h 6.217706 6.21771 v 1.5875 1.5875 h -6.21771 -6.217706 z m 15.345836,0 v -1.5875 h 6.21771 6.2177 v 1.5875 1.5875 h -6.2177 -6.21771 z m 43.12708,0 v -1.5875 h 6.08542 6.08542 v 1.5875 1.5875 h -6.08542 -6.08542 z m 15.34584,0 v -1.5875 h 6.08541 6.08542 v 1.5875 1.5875 h -6.08542 -6.08541 z M 0,246.2 v -1.5875 h 6.085417 6.085417 v 1.5875 1.5875 H 6.085417 0 Z m 27.516667,0 v -1.5875 h 6.085417 6.085417 v 1.5875 1.5875 h -6.085417 -6.085417 z m 30.691667,0 v -1.5875 H 70.51146 82.814584 v 1.5875 1.5875 H 70.51146 58.208334 Z m 39.95208,0 v -1.5875 h 12.303126 12.30312 v 1.5875 1.5875 H 110.46354 98.160414 Z m 61.383336,0 v -1.5875 h 10.71562 10.71563 v 1.5875 1.5875 H 170.25937 159.54375 Z M 0,240.11458 v -1.5875 h 16.801042 16.801042 v 1.5875 1.5875 H 16.801042 0 Z m 58.208334,0 v -1.5875 H 68.92396 79.639585 v 1.5875 1.5875 H 68.92396 58.208334 Z m 43.127076,0 v -1.5875 h 10.71563 10.71562 v 1.5875 1.5875 h -10.71562 -10.71563 z m 67.46876,0 v -1.5875 h 6.08541 6.08542 v 1.5875 1.5875 h -6.08542 -6.08541 z"
       style="fill:#000000;stroke-width:0.26458335" />
  </g>
</svg>
