<?xml version="1.0" encoding="UTF-8" standalone="no"?>
<!-- Created with Inkscape (http://www.inkscape.org/) -->

<svg
   xmlns:dc="http://purl.org/dc/elements/1.1/"
   xmlns:cc="http://creativecommons.org/ns#"
   xmlns:rdf="http://www.w3.org/1999/02/22-rdf-syntax-ns#"
   xmlns:svg="http://www.w3.org/2000/svg"
   xmlns="http://www.w3.org/2000/svg"
   xmlns:sodipodi="http://sodipodi.sourceforge.net/DTD/sodipodi-0.dtd"
   xmlns:inkscape="http://www.inkscape.org/namespaces/inkscape"
   width="8.5485086mm"
   height="7.286355mm"
   viewBox="0 0 30.289992 25.817794"
   id="svg3362"
   version="1.1"
   inkscape:version="0.92.1 r15371"
   sodipodi:docname="MF-logo-paths.svg">
  <sodipodi:namedview
     id="base"
     pagecolor="#ffffff"
     bordercolor="#666666"
     borderopacity="1.0"
     inkscape:pageopacity="0.0"
     inkscape:pageshadow="2"
     inkscape:zoom="11.313709"
     inkscape:cx="2.8554124"
     inkscape:cy="18.850893"
     inkscape:document-units="px"
     inkscape:current-layer="layer3"
     showgrid="false"
     fit-margin-top="0"
     fit-margin-left="0"
     fit-margin-right="0"
     fit-margin-bottom="0"
     inkscape:window-width="1950"
     inkscape:window-height="1436"
     inkscape:window-x="200"
     inkscape:window-y="113"
     inkscape:window-maximized="0" />
  <defs
     id="defs3364" />
  <metadata
     id="metadata3367">
    <rdf:RDF>
      <cc:Work
         rdf:about="">
        <dc:format>image/svg+xml</dc:format>
        <dc:type
           rdf:resource="http://purl.org/dc/dcmitype/StillImage" />
        <dc:title></dc:title>
      </cc:Work>
    </rdf:RDF>
  </metadata>
  <g
     style="display:inline"
     transform="translate(-185.67053,-537.62091)"
     inkscape:label="F"
     id="layer2"
     inkscape:groupmode="layer">
    <path
       sodipodi:nodetypes="ccssssccssssccssssccsssscssssccsssc"
       inkscape:label="F"
       inkscape:connector-curvature="0"
       id="path4516"
       style="font-style:normal;font-variant:normal;font-weight:normal;font-stretch:normal;font-size:30px;line-height:125%;font-family:Melbourne;-inkscape-font-specification:'Melbourne, Normal';text-align:start;writing-mode:lr-tb;text-anchor:start;stroke-width:0.75925767"
       d="m 202.24512,554.98563 v -7.12943 h 4.6011 l 0.12207,-0.032 0.0687,-0.0705 0.0302,-0.0705 0.007,-0.032 v -0.91111 l -0.004,-0.032 -0.0249,-0.0705 -0.0676,-0.0705 -0.13169,-0.032 h -4.6011 v -5.94499 h 6.19554 l 0.12208,-0.032 0.0687,-0.0705 0.0302,-0.0705 0.007,-0.032 v -0.91111 l -0.004,-0.032 -0.0249,-0.0705 -0.0677,-0.0705 -0.13168,-0.032 h -7.58499 v 15.71664 l 0.0356,0.13168 0.0783,0.0677 0.0783,0.0249 0.0356,0.004 h 0.93388 l 0.0324,-0.004 0.073,-0.0249 0.0772,-0.0677 0.0452,-0.13168 h 3.4e-4" />
    <g
       id="text3383"
       style="font-style:normal;font-weight:normal;line-height:0%;font-family:sans-serif;letter-spacing:0px;word-spacing:0px;display:inline;fill:#000000;fill-opacity:1;stroke:none;stroke-width:1px;stroke-linecap:butt;stroke-linejoin:miter;stroke-opacity:1"
       aria-label="F" />
  </g>
  <g
     style="display:inline"
     transform="translate(-185.67053,-537.62091)"
     inkscape:label="M"
     id="layer3"
     inkscape:groupmode="layer">
    <path
       sodipodi:nodetypes="sssssssssscccsssscsssscssscccsssccsssscsssscssscccsssssssscccssssccsssssssssss"
       inkscape:label="M background"
       inkscape:connector-curvature="0"
       id="rect3378"
       d="m 187.34021,537.62091 -0.65128,0.13076 -0.53058,0.35706 -0.35706,0.53058 -0.13076,0.65128 v 16.26167 l 0.13076,0.6515 0.35706,0.53105 0.53058,0.35754 0.65128,0.13098 h 0.53524 v -1.90185 h -0.12234 l -0.0354,-0.004 -0.0779,-0.025 -0.0779,-0.0677 -0.0354,-0.13172 v -15.48872 l 0.003,-0.0356 0.0245,-0.0784 0.0672,-0.0784 0.1315,-0.0356 h 1.41249 l 0.0339,0.004 0.0832,0.025 0.10457,0.0677 0.098,0.13172 3.14334,7.3794 3.09746,-7.3794 0.0978,-0.13172 0.1041,-0.0677 0.0827,-0.025 0.0337,-0.004 h 1.41249 l 0.0356,0.004 0.0784,0.025 0.0784,0.0677 0.0356,0.13172 v 15.48869 l -0.004,0.0356 -0.025,0.0784 -0.0677,0.0784 -0.13172,0.0356 h -0.93424 l -0.0356,-0.004 -0.0784,-0.025 -0.0784,-0.0677 -0.0356,-0.13172 0.11396,-14.05399 -2.93758,7.33492 -0.0711,0.12211 -0.0711,0.0688 -0.0625,0.0303 -0.0455,0.007 h -1.09412 l -0.049,-0.007 -0.0702,-0.0303 -0.0787,-0.0688 -0.0746,-0.12211 -3.02934,-7.33492 0.0904,14.05396 -0.004,0.0356 -0.025,0.0784 -0.0677,0.0784 -0.13171,0.0356 h -0.80078 v 1.90185 h 9.94301 l 0.65128,-0.13097 0.53058,-0.35755 0.35707,-0.53105 0.13075,-0.6515 v -16.26167 l -0.13075,-0.65128 -0.35707,-0.53058 -0.53058,-0.35706 -0.65128,-0.13076 h -10.48938"
       style="display:inline;fill:#000000;stroke-width:0.75925767" />
    <g
       inkscape:label="M"
       id="text3372"
       style="font-style:normal;font-weight:normal;line-height:0%;font-family:sans-serif;letter-spacing:0px;word-spacing:0px;display:inline;fill:#000000;fill-opacity:1;stroke:none;stroke-width:1px;stroke-linecap:butt;stroke-linejoin:miter;stroke-opacity:1"
       aria-label="M" />
  </g>
</svg>
