M48
INCH
T01C0.013
T02C0.016
T03C0.02
T04C0.028
T05C0.0354
%
T01
X+022427Y+008727
X+022477Y+009067
X+022187Y+009237
X+021787Y+008727
X+022387Y+008117
X+021417Y+007737
X+021417Y+006897
X+022387Y+006137
X+022947Y+005647
X+023257Y+005647
X+023517Y+005827
X+023517Y+006137
X+023457Y+007227
X+023737Y+007677
X+024047Y+007687
X+024357Y+007687
X+024667Y+007697
X+024777Y+007987
X+024667Y+008427
X+023937Y+008687
X+023527Y+008477
X+020847Y+008727
X+020407Y+008127
X+019307Y+007667
X+019477Y+007357
X+020387Y+006117
X+021457Y+005217
X+021997Y+004917
X+019467Y+005037
X+019137Y+005037
X+024567Y+005337
X+025227Y+005287
X+025537Y+005207
T02
X+024466Y+008977
T03
X+020757Y+009157
X+018667Y+008207
X+023447Y+006827
X+024907Y+005727
T04
X+037397Y+004457
X+036397Y+004457
X+035397Y+004457
X+034397Y+004457
X+033397Y+004457
X+032397Y+004457
X+031397Y+004457
X+030397Y+004457
X+029397Y+004457
X+028397Y+004457
X+027397Y+004457
X+026397Y+004457
X+025397Y+004457
X+024397Y+004457
X+023397Y+004457
X+022397Y+004457
X+021397Y+004457
X+020397Y+004457
X+019397Y+004457
X+018397Y+004457
X+017397Y+004457
X+016397Y+004457
X+015397Y+004457
X+014397Y+004457
X+013397Y+004457
X+012397Y+004457
X+011397Y+004457
X+010397Y+004457
X+009397Y+004457
X+008397Y+004457
X+007397Y+004457
X+006397Y+004457
X+005397Y+004457
X+004397Y+004457
T05
X+029077Y+008827
X+030077Y+008827
X+030077Y+007827
X+029077Y+007827
X+029077Y+006827
X+030077Y+006827
X+027677Y+007227
X+027677Y+008227
X+026677Y+008227
X+026677Y+007227
X+026677Y+006227
X+027677Y+006227
X+008457Y+008827
X+007457Y+008827
T00
M30
