G04 DipTrace 3.0.0.2*
G04 TopMask.gbr*
%MOIN*%
G04 #@! TF.FileFunction,Soldermask,Top*
G04 #@! TF.Part,Single*
%AMOUTLINE1*
4,1,13,
-0.072063,-0.129937,
-0.072063,-0.136717,
-0.136717,-0.136717,
-0.136717,0.136717,
0.136717,0.136717,
0.136717,-0.136717,
0.008063,-0.136717,
0.008063,-0.116262,
0.116262,-0.116262,
0.116262,0.116262,
-0.116262,0.116262,
-0.116262,-0.116262,
-0.072063,-0.116262,
-0.072063,-0.129937,
0*%
%AMOUTLINE4*
4,1,6,
0.018937,-0.015937,
0.018937,0.015937,
0.005063,0.015937,
0.005063,-0.002063,
-0.018937,-0.002063,
-0.018937,-0.015937,
0.018937,-0.015937,
0*%
%AMOUTLINE7*
4,1,7,
0.018937,-0.012937,
0.018937,0.000937,
0.018937,0.012937,
-0.018937,0.012937,
-0.018937,-0.004631,
-0.010631,-0.012937,
-0.003,-0.012937,
0.018937,-0.012937,
0*%
%AMOUTLINE10*
4,1,8,
0.018937,-0.015937,
0.018937,0.015937,
-0.006937,0.015937,
-0.006937,0.009937,
-0.018937,0.009937,
-0.018937,-0.015937,
-0.005063,-0.015937,
0.006937,-0.015937,
0.018937,-0.015937,
0*%
%AMOUTLINE13*
4,1,8,
0.018937,-0.012937,
0.018937,0.004631,
0.010631,0.012937,
-0.006937,0.012937,
-0.018937,0.012937,
-0.018937,-0.004631,
-0.010631,-0.012937,
0.006937,-0.012937,
0.018937,-0.012937,
0*%
%ADD54R,0.013874X0.013874*%
%ADD56R,0.025874X0.013874*%
%ADD58R,0.043874X0.013874*%
%ADD60R,0.049874X0.013874*%
%ADD62R,0.055874X0.013874*%
%ADD64R,0.073874X0.013874*%
%ADD66R,0.031874X0.013874*%
%ADD68R,0.109874X0.013874*%
%ADD70C,0.066929*%
%ADD72R,0.066929X0.066929*%
%ADD74R,0.114173X0.05315*%
%ADD76R,0.051181X0.047244*%
%ADD78R,0.23622X0.23622*%
%ADD80R,0.041339X0.015748*%
%ADD82R,0.015748X0.041339*%
%ADD84C,0.047874*%
%ADD88OUTLINE1*%
%ADD91OUTLINE4*%
%ADD94OUTLINE7*%
%ADD97OUTLINE10*%
%ADD100OUTLINE13*%
%FSLAX26Y26*%
G04*
G70*
G90*
G75*
G01*
G04 TopMask*
%LPD*%
D84*
X3739701Y445701D3*
X3639701D3*
X3539701D3*
X3439701D3*
X3339701D3*
X3239701D3*
X3139701D3*
X3039701D3*
X2939701D3*
X2839701D3*
X2739701D3*
X2639701D3*
X2539701D3*
X2439701D3*
X2339701D3*
X2239701D3*
X2139701D3*
X2039701D3*
X1939701D3*
X1839701D3*
X1739701D3*
X1639701D3*
X1539701D3*
X1439701D3*
X1339701D3*
X1239701D3*
X1139701D3*
X1039701D3*
X939701D3*
X839701D3*
X739701D3*
X639701D3*
X539701D3*
X439701D3*
D82*
X2013717Y557160D3*
X2029465D3*
X2045213D3*
X2060961D3*
X2076709D3*
X2092457D3*
X2108205D3*
X2123953D3*
X2139701D3*
X2155449D3*
X2171197D3*
X2186945D3*
X2202693D3*
X2218441D3*
X2234189D3*
X2249937D3*
X2265685D3*
D80*
X2295213Y586688D3*
Y602436D3*
Y618184D3*
Y633932D3*
Y649680D3*
Y665428D3*
Y681176D3*
Y696924D3*
Y712672D3*
Y728420D3*
Y744168D3*
Y759916D3*
Y775664D3*
Y791412D3*
Y807160D3*
Y822908D3*
Y838656D3*
D82*
X2265685Y868184D3*
X2249937D3*
X2234189D3*
X2218441D3*
X2202693D3*
X2186945D3*
X2171197D3*
X2155449D3*
X2139701D3*
X2123953D3*
X2108205D3*
X2092457D3*
X2076709D3*
X2060961D3*
X2045213D3*
X2029465D3*
X2013717D3*
D80*
X1984189Y838656D3*
Y822908D3*
Y807160D3*
Y791412D3*
Y775664D3*
Y759916D3*
Y744168D3*
Y728420D3*
Y712672D3*
Y696924D3*
Y681176D3*
Y665428D3*
Y649680D3*
Y633932D3*
Y618184D3*
Y602436D3*
Y586688D3*
D78*
X2139701Y712672D3*
D88*
D3*
D76*
X2106701Y915672D3*
X2173630D3*
X2441701Y728672D3*
X2374772D3*
X2459701Y618672D3*
X2392772D3*
X2460701Y664672D3*
X2393772D3*
X1866701Y849672D3*
X1933630D3*
X2379701Y916672D3*
X2446630D3*
X2506701Y746672D3*
X2573630D3*
D74*
X2561701Y795672D3*
Y913782D3*
D72*
X2907701Y882672D3*
D70*
X3007701D3*
X2907701Y782672D3*
X3007701D3*
X2907701Y682672D3*
X3007701D3*
D72*
X2667701Y822672D3*
D70*
X2767701D3*
X2667701Y722672D3*
X2767701D3*
X2667701Y622672D3*
X2767701D3*
D72*
X745701Y882701D3*
D70*
X845701D3*
D76*
X2392701Y572672D3*
X2459630D3*
D68*
X1318701Y656701D3*
D66*
X1279701Y668701D3*
Y704701D3*
Y716701D3*
Y680701D3*
Y692701D3*
Y728701D3*
Y740701D3*
X1345701D3*
X1357701Y728701D3*
X1279701Y752701D3*
D64*
X1300701Y764701D3*
D66*
X1369701Y716701D3*
X1381701Y704701D3*
X1393701Y692701D3*
X1381701Y680701D3*
X1369701Y668701D3*
X1393701Y656701D3*
Y728701D3*
Y740701D3*
D62*
X1405701Y752701D3*
D60*
X1402701Y764701D3*
D66*
X1423701Y740701D3*
X1429701Y728701D3*
D58*
X1444701Y716701D3*
D66*
X1495701Y728701D3*
Y740701D3*
D60*
X1486701Y764701D3*
D62*
X1483701Y752701D3*
D66*
X1444701Y704701D3*
X1459701Y728701D3*
X1465701Y740701D3*
D56*
X1444701Y692701D3*
D66*
X1519701Y680701D3*
X1531701Y692701D3*
X1543701Y704701D3*
X1555701Y716701D3*
D68*
X1534701Y656701D3*
D66*
X1507701Y668701D3*
X1609701Y656701D3*
Y668701D3*
Y704701D3*
Y716701D3*
Y680701D3*
Y692701D3*
Y728701D3*
Y740701D3*
X1495701Y716701D3*
X1609701Y764701D3*
X1579701Y740701D3*
X1567701Y728701D3*
D60*
X1600701Y752701D3*
D66*
X1495701Y704701D3*
Y692701D3*
D56*
X1492701Y680701D3*
D54*
X1486701Y668701D3*
D66*
X1333701Y752701D3*
D54*
X1402701Y680701D3*
D56*
X1396701Y668701D3*
Y716701D3*
D54*
X1402701Y704701D3*
D91*
X1660701Y665701D3*
D94*
Y692701D3*
D97*
Y719701D3*
D100*
Y746701D3*
M02*
