G04 DipTrace 3.0.0.2*
G04 TopPaste.gbr*
%MOIN*%
G04 #@! TF.FileFunction,Paste,Top*
G04 #@! TF.Part,Single*
%AMOUTLINE2*
4,1,15,
-0.079063,-0.126,
-0.079937,-0.129937,
-0.079937,-0.128843,
-0.128843,-0.128843,
-0.128843,0.128843,
0.128843,0.128843,
0.128843,-0.128843,
0.015937,-0.128843,
0.015937,-0.124136,
0.124136,-0.124136,
0.124136,0.124136,
-0.124136,0.124136,
-0.124136,-0.124136,
-0.079937,-0.124136,
-0.079937,-0.122063,
-0.079063,-0.126,
0*%
%AMOUTLINE5*
4,1,6,
0.011063,-0.008063,
0.011063,0.008063,
0.012937,0.008063,
0.012937,-0.009937,
-0.011063,-0.009937,
-0.011063,-0.008063,
0.011063,-0.008063,
0*%
%AMOUTLINE8*
4,1,11,
0.011063,-0.005063,
0.011063,-0.006937,
-0.012937,-0.006937,
-0.012937,0.006937,
0.006937,0.006937,
0.006937,0.003635,
0.006127,0.005063,
-0.011063,0.005063,
-0.011063,-0.001369,
-0.007369,-0.005063,
-0.003,-0.005063,
0.011063,-0.005063,
0*%
%AMOUTLINE11*
4,1,14,
0.011063,-0.008063,
0.011063,0.008063,
0.000937,0.008063,
0.000937,0.002063,
-0.011063,0.002063,
-0.011063,-0.008063,
-0.012937,-0.008063,
-0.012937,0.003937,
-0.000937,0.003937,
-0.000937,0.009937,
0.012937,0.009937,
0.012937,-0.009937,
0.006937,-0.009937,
0.006937,-0.008063,
0.011063,-0.008063,
0*%
%AMOUTLINE14*
4,1,6,
0.006505,0.005063,
0.000937,0.005063,
0.000937,-0.012505,
-0.006505,-0.005063,
-0.000937,-0.005063,
-0.000937,0.012505,
0.006505,0.005063,
0*%
%ADD55R,-0.001874X-0.001874*%
%ADD57R,0.010126X-0.001874*%
%ADD59R,0.028126X-0.001874*%
%ADD61R,0.034126X-0.001874*%
%ADD63R,0.040126X-0.001874*%
%ADD65R,0.058126X-0.001874*%
%ADD67R,0.016126X-0.001874*%
%ADD69R,0.094126X-0.001874*%
%ADD75R,0.098425X0.037402*%
%ADD77R,0.035433X0.031496*%
%ADD79R,0.220472X0.220472*%
%ADD81R,0.025591X0.0*%
%ADD83R,0.0X0.025591*%
%ADD89OUTLINE2*%
%ADD92OUTLINE5*%
%ADD95OUTLINE8*%
%ADD98OUTLINE11*%
%ADD101OUTLINE14*%
%FSLAX26Y26*%
G04*
G70*
G90*
G75*
G01*
G04 TopPaste*
%LPD*%
D83*
X2013717Y557160D3*
X2029465D3*
X2045213D3*
X2060961D3*
X2076709D3*
X2092457D3*
X2108205D3*
X2123953D3*
X2139701D3*
X2155449D3*
X2171197D3*
X2186945D3*
X2202693D3*
X2218441D3*
X2234189D3*
X2249937D3*
X2265685D3*
D81*
X2295213Y586688D3*
Y602436D3*
Y618184D3*
Y633932D3*
Y649680D3*
Y665428D3*
Y681176D3*
Y696924D3*
Y712672D3*
Y728420D3*
Y744168D3*
Y759916D3*
Y775664D3*
Y791412D3*
Y807160D3*
Y822908D3*
Y838656D3*
D83*
X2265685Y868184D3*
X2249937D3*
X2234189D3*
X2218441D3*
X2202693D3*
X2186945D3*
X2171197D3*
X2155449D3*
X2139701D3*
X2123953D3*
X2108205D3*
X2092457D3*
X2076709D3*
X2060961D3*
X2045213D3*
X2029465D3*
X2013717D3*
D81*
X1984189Y838656D3*
Y822908D3*
Y807160D3*
Y791412D3*
Y775664D3*
Y759916D3*
Y744168D3*
Y728420D3*
Y712672D3*
Y696924D3*
Y681176D3*
Y665428D3*
Y649680D3*
Y633932D3*
Y618184D3*
Y602436D3*
Y586688D3*
D79*
X2139701Y712672D3*
D89*
D3*
D77*
X2106701Y915672D3*
X2173630D3*
X2441701Y728672D3*
X2374772D3*
X2459701Y618672D3*
X2392772D3*
X2460701Y664672D3*
X2393772D3*
X1866701Y849672D3*
X1933630D3*
X2379701Y916672D3*
X2446630D3*
X2506701Y746672D3*
X2573630D3*
D75*
X2561701Y795672D3*
Y913782D3*
D77*
X2392701Y572672D3*
X2459630D3*
D69*
X1318701Y656701D3*
D67*
X1279701Y668701D3*
Y704701D3*
Y716701D3*
Y680701D3*
Y692701D3*
Y728701D3*
Y740701D3*
X1345701D3*
X1357701Y728701D3*
X1279701Y752701D3*
D65*
X1300701Y764701D3*
D67*
X1369701Y716701D3*
X1381701Y704701D3*
X1393701Y692701D3*
X1381701Y680701D3*
X1369701Y668701D3*
X1393701Y656701D3*
Y728701D3*
Y740701D3*
D63*
X1405701Y752701D3*
D61*
X1402701Y764701D3*
D67*
X1423701Y740701D3*
X1429701Y728701D3*
D59*
X1444701Y716701D3*
D67*
X1495701Y728701D3*
Y740701D3*
D61*
X1486701Y764701D3*
D63*
X1483701Y752701D3*
D67*
X1444701Y704701D3*
X1459701Y728701D3*
X1465701Y740701D3*
D57*
X1444701Y692701D3*
D67*
X1519701Y680701D3*
X1531701Y692701D3*
X1543701Y704701D3*
X1555701Y716701D3*
D69*
X1534701Y656701D3*
D67*
X1507701Y668701D3*
X1609701Y656701D3*
Y668701D3*
Y704701D3*
Y716701D3*
Y680701D3*
Y692701D3*
Y728701D3*
Y740701D3*
X1495701Y716701D3*
X1609701Y764701D3*
X1579701Y740701D3*
X1567701Y728701D3*
D61*
X1600701Y752701D3*
D67*
X1495701Y704701D3*
Y692701D3*
D57*
X1492701Y680701D3*
D55*
X1486701Y668701D3*
D67*
X1333701Y752701D3*
D55*
X1402701Y680701D3*
D57*
X1396701Y668701D3*
Y716701D3*
D55*
X1402701Y704701D3*
D92*
X1660701Y665701D3*
D95*
Y692701D3*
D98*
Y719701D3*
D101*
Y746701D3*
M02*
