G04 DipTrace 3.0.0.2*
G04 TopSilk.gbr*
%MOIN*%
G04 #@! TF.FileFunction,Legend,Top*
G04 #@! TF.Part,Single*
%ADD10C,0.009843*%
%ADD14C,0.007874*%
%ADD26C,0.001969*%
%ADD86C,0.004632*%
%FSLAX26Y26*%
G04*
G70*
G90*
G75*
G01*
G04 TopSilk*
%LPD*%
X1957614Y530586D2*
D26*
Y894759D1*
X2321788D1*
Y530586D1*
X1957614D1*
X1986166Y540418D2*
D14*
G02X1986166Y540418I3933J0D01*
G01*
X2610918Y838944D2*
D10*
Y870429D1*
X2512484Y838944D2*
Y870429D1*
X2857701Y824372D2*
Y632672D1*
Y932672D2*
Y632672D1*
X3057701Y932672D2*
Y632672D1*
X2857701Y932672D2*
X3057701D1*
X2857701Y632672D2*
X3057701D1*
X2617701Y764372D2*
Y572672D1*
Y872672D2*
Y572672D1*
X2817701Y872672D2*
Y572672D1*
X2617701Y872672D2*
X2817701D1*
X2617701Y572672D2*
X2817701D1*
X895701Y832701D2*
Y932701D1*
X695701Y832701D2*
X895701D1*
X695701D2*
Y932701D1*
X895701D1*
X2843488Y507635D2*
D86*
Y484687D1*
X2842062Y480376D1*
X2840603Y478950D1*
X2837751Y477491D1*
X2834866D1*
X2832014Y478950D1*
X2830588Y480376D1*
X2829129Y484687D1*
Y487539D1*
X2867110Y477491D2*
Y507602D1*
X2852751Y487539D1*
X2874273D1*
X1914423Y711693D2*
Y690171D1*
X1915849Y685860D1*
X1918734Y683008D1*
X1923045Y681549D1*
X1925897D1*
X1930208Y683008D1*
X1933093Y685860D1*
X1934519Y690171D1*
Y711693D1*
X1943783Y705922D2*
X1946668Y707382D1*
X1950979Y711659D1*
Y681549D1*
X2055697Y923128D2*
X2054271Y925980D1*
X2051386Y928865D1*
X2048534Y930291D1*
X2042797D1*
X2039912Y928865D1*
X2037060Y925980D1*
X2035601Y923128D1*
X2034175Y918817D1*
Y911621D1*
X2035601Y907343D1*
X2037060Y904458D1*
X2039912Y901606D1*
X2042797Y900147D1*
X2048534D1*
X2051386Y901606D1*
X2054271Y904458D1*
X2055697Y907343D1*
X2064960Y924521D2*
X2067845Y925980D1*
X2072156Y930258D1*
Y900147D1*
X2398318Y698128D2*
X2396892Y700980D1*
X2394007Y703865D1*
X2391155Y705291D1*
X2385418D1*
X2382533Y703865D1*
X2379681Y700980D1*
X2378222Y698128D1*
X2376796Y693817D1*
Y686621D1*
X2378222Y682343D1*
X2379681Y679458D1*
X2382533Y676606D1*
X2385418Y675147D1*
X2391155D1*
X2394007Y676606D1*
X2396892Y679458D1*
X2398318Y682343D1*
X2409040Y698095D2*
Y699521D1*
X2410466Y702406D1*
X2411892Y703832D1*
X2414777Y705258D1*
X2420514D1*
X2423366Y703832D1*
X2424792Y702406D1*
X2426251Y699521D1*
Y696669D1*
X2424792Y693784D1*
X2421940Y689506D1*
X2407581Y675147D1*
X2427677D1*
X2485959Y618932D2*
X2498859D1*
X2503170Y620391D1*
X2504629Y621817D1*
X2506055Y624669D1*
Y627554D1*
X2504629Y630406D1*
X2503170Y631865D1*
X2498859Y633291D1*
X2485959D1*
Y603147D1*
X2496007Y618932D2*
X2506055Y603147D1*
X2515318Y627521D2*
X2518203Y628980D1*
X2522514Y633258D1*
Y603147D1*
X2488509Y664932D2*
X2501409D1*
X2505720Y666391D1*
X2507179Y667817D1*
X2508605Y670669D1*
Y673554D1*
X2507179Y676406D1*
X2505720Y677865D1*
X2501409Y679291D1*
X2488509D1*
Y649147D1*
X2498557Y664932D2*
X2508605Y649147D1*
X2519327Y672095D2*
Y673521D1*
X2520753Y676406D1*
X2522179Y677832D1*
X2525064Y679258D1*
X2530801D1*
X2533653Y677832D1*
X2535079Y676406D1*
X2536538Y673521D1*
Y670669D1*
X2535079Y667784D1*
X2532227Y663506D1*
X2517868Y649147D1*
X2537964D1*
X1896247Y899128D2*
X1894821Y901980D1*
X1891936Y904865D1*
X1889084Y906291D1*
X1883347D1*
X1880462Y904865D1*
X1877610Y901980D1*
X1876151Y899128D1*
X1874725Y894817D1*
Y887621D1*
X1876151Y883343D1*
X1877610Y880458D1*
X1880462Y877606D1*
X1883347Y876147D1*
X1889084D1*
X1891936Y877606D1*
X1894821Y880458D1*
X1896247Y883343D1*
X1908395Y906258D2*
X1924147D1*
X1915558Y894784D1*
X1919869D1*
X1922721Y893358D1*
X1924147Y891932D1*
X1925606Y887621D1*
Y884769D1*
X1924147Y880458D1*
X1921295Y877573D1*
X1916984Y876147D1*
X1912673D1*
X1908395Y877573D1*
X1906969Y879032D1*
X1905510Y881884D1*
X2414534Y884128D2*
X2413108Y886980D1*
X2410223Y889865D1*
X2407371Y891291D1*
X2401634D1*
X2398749Y889865D1*
X2395897Y886980D1*
X2394438Y884128D1*
X2393012Y879817D1*
Y872621D1*
X2394438Y868343D1*
X2395897Y865458D1*
X2398749Y862606D1*
X2401634Y861147D1*
X2407371D1*
X2410223Y862606D1*
X2413108Y865458D1*
X2414534Y868343D1*
X2438156Y861147D2*
Y891258D1*
X2423797Y871195D1*
X2445319D1*
X2453976Y785128D2*
X2452550Y787980D1*
X2449665Y790865D1*
X2446813Y792291D1*
X2441076D1*
X2438191Y790865D1*
X2435339Y787980D1*
X2433880Y785128D1*
X2432454Y780817D1*
Y773621D1*
X2433880Y769343D1*
X2435339Y766458D1*
X2438191Y763606D1*
X2441076Y762147D1*
X2446813D1*
X2449665Y763606D1*
X2452550Y766458D1*
X2453976Y769343D1*
X2480451Y787980D2*
X2479025Y790832D1*
X2474714Y792258D1*
X2471862D1*
X2467551Y790832D1*
X2464666Y786521D1*
X2463240Y779358D1*
Y772195D1*
X2464666Y766458D1*
X2467551Y763573D1*
X2471862Y762147D1*
X2473288D1*
X2477566Y763573D1*
X2480451Y766458D1*
X2481877Y770769D1*
Y772195D1*
X2480451Y776506D1*
X2477566Y779358D1*
X2473288Y780784D1*
X2471862D1*
X2467551Y779358D1*
X2464666Y776506D1*
X2463240Y772195D1*
X2565806Y884354D2*
X2547136D1*
Y854210D1*
Y869995D2*
X2558610D1*
X2575070Y878584D2*
X2577955Y880043D1*
X2582266Y884321D1*
Y854210D1*
X3089201Y795606D2*
Y772658D1*
X3087775Y768347D1*
X3086316Y766921D1*
X3083464Y765462D1*
X3080579D1*
X3077727Y766921D1*
X3076301Y768347D1*
X3074842Y772658D1*
Y775510D1*
X3099923Y788410D2*
Y789836D1*
X3101349Y792721D1*
X3102775Y794147D1*
X3105660Y795573D1*
X3111397D1*
X3114249Y794147D1*
X3115675Y792721D1*
X3117134Y789836D1*
Y786984D1*
X3115675Y784099D1*
X3112823Y779821D1*
X3098464Y765462D1*
X3118560D1*
X2845651Y750606D2*
Y727658D1*
X2844225Y723347D1*
X2842766Y721921D1*
X2839914Y720462D1*
X2837029D1*
X2834177Y721921D1*
X2832751Y723347D1*
X2831292Y727658D1*
Y730510D1*
X2854914Y744836D2*
X2857799Y746295D1*
X2862110Y750573D1*
Y720462D1*
X771102Y810472D2*
X769676Y813324D1*
X766791Y816209D1*
X763939Y817635D1*
X758203D1*
X755317Y816209D1*
X752466Y813324D1*
X751006Y810472D1*
X749580Y806161D1*
Y798965D1*
X751006Y794687D1*
X752466Y791802D1*
X755317Y788950D1*
X758203Y787491D1*
X763939D1*
X766791Y788950D1*
X769676Y791802D1*
X771102Y794687D1*
Y798965D1*
X763939D1*
X800462Y817635D2*
Y787491D1*
X780366Y817635D1*
Y787491D1*
X809726Y817635D2*
Y787491D1*
X819774D1*
X824085Y788950D1*
X826970Y791802D1*
X828396Y794687D1*
X829822Y798965D1*
Y806161D1*
X828396Y810472D1*
X826970Y813324D1*
X824085Y816209D1*
X819774Y817635D1*
X809726D1*
X2423247Y539128D2*
X2421821Y541980D1*
X2418936Y544865D1*
X2416084Y546291D1*
X2410347D1*
X2407462Y544865D1*
X2404610Y541980D1*
X2403151Y539128D1*
X2401725Y534817D1*
Y527621D1*
X2403151Y523343D1*
X2404610Y520458D1*
X2407462Y517606D1*
X2410347Y516147D1*
X2416084D1*
X2418936Y517606D1*
X2421821Y520458D1*
X2423247Y523343D1*
X2449721Y546258D2*
X2435395D1*
X2433969Y533358D1*
X2435395Y534784D1*
X2439706Y536243D1*
X2443984D1*
X2448295Y534784D1*
X2451180Y531932D1*
X2452606Y527621D1*
Y524769D1*
X2451180Y520458D1*
X2448295Y517573D1*
X2443984Y516147D1*
X2439706D1*
X2435395Y517573D1*
X2433969Y519032D1*
X2432510Y521884D1*
X1460973Y1032635D2*
Y1011113D1*
X1462399Y1006802D1*
X1465284Y1003950D1*
X1469595Y1002491D1*
X1472447D1*
X1476758Y1003950D1*
X1479643Y1006802D1*
X1481069Y1011113D1*
Y1032635D1*
X1491792Y1025439D2*
Y1026865D1*
X1493218Y1029750D1*
X1494644Y1031176D1*
X1497529Y1032602D1*
X1503266D1*
X1506118Y1031176D1*
X1507544Y1029750D1*
X1509003Y1026865D1*
Y1024013D1*
X1507544Y1021128D1*
X1504692Y1016850D1*
X1490333Y1002491D1*
X1510429D1*
X1248657Y1046687D2*
Y1025165D1*
X1250083Y1020854D1*
X1252968Y1018002D1*
X1257279Y1016543D1*
X1260131D1*
X1264442Y1018002D1*
X1267327Y1020854D1*
X1268753Y1025165D1*
Y1046687D1*
X1280902Y1046654D2*
X1296653D1*
X1288065Y1035180D1*
X1292376D1*
X1295227Y1033754D1*
X1296653Y1032328D1*
X1298113Y1028017D1*
Y1025165D1*
X1296653Y1020854D1*
X1293801Y1017969D1*
X1289490Y1016543D1*
X1285179D1*
X1280902Y1017969D1*
X1279476Y1019428D1*
X1278017Y1022280D1*
M02*
