G04 DipTrace 3.0.0.2*
G04 Bottom.gbr*
%MOIN*%
G04 #@! TF.FileFunction,Copper,L2,Bot*
G04 #@! TF.Part,Single*
%AMOUTLINE15*
4,1,4,
-0.078878,-0.025644,
0.078878,-0.025644,
0.027588,0.025644,
-0.027588,0.025644,
-0.078878,-0.025644,
0*%
%AMOUTLINE18*
4,1,7,
0.089072,0.046454,
0.040937,0.046454,
-0.000157,0.00536,
-0.089177,0.00536,
-0.037364,-0.046454,
0.037152,-0.046454,
0.089177,0.00557,
0.089072,0.046454,
0*%
%AMOUTLINE21*
4,1,17,
-0.007217,-0.030899,
-0.028378,-0.009528,
-0.028378,0.002314,
-0.006165,0.024594,
0.055633,0.024524,
0.028797,0.051499,
-0.028448,0.051499,
-0.06264,0.017306,
-0.062849,-0.016886,
-0.028026,-0.051499,
0.028026,-0.051499,
0.062849,-0.016815,
0.062849,0.017307,
0.012541,0.017236,
0.027466,0.002312,
0.027466,-0.009529,
0.006165,-0.0309,
-0.007217,-0.030899,
0*%
%AMOUTLINE24*
4,1,4,
0.017727,0.051499,
-0.017727,0.016045,
-0.017727,-0.051499,
0.017727,-0.051499,
0.017727,0.051499,
0*%
%AMOUTLINE27*
4,1,12,
-0.006446,0.051499,
-0.0419,0.016045,
-0.0419,-0.051499,
-0.006446,-0.051499,
-0.006446,-0.025504,
0.019479,-0.051499,
0.025154,-0.051499,
0.0419,-0.034823,
0.0419,0.01044,
0.028448,-0.003083,
0.014434,-0.003012,
-0.006446,0.017867,
-0.006446,0.051499,
0*%
%AMOUTLINE30*
4,1,12,
-0.006446,0.051499,
-0.0419,0.016045,
-0.0419,-0.051499,
-0.006446,-0.051499,
-0.006446,-0.025504,
0.019478,-0.051499,
0.025154,-0.051499,
0.0419,-0.034823,
0.0419,0.01044,
0.028448,-0.003083,
0.014433,-0.003012,
-0.006446,0.017867,
-0.006446,0.051499,
0*%
%AMOUTLINE33*
4,1,17,
-0.007218,-0.030899,
-0.028378,-0.009528,
-0.028378,0.002314,
-0.006167,0.024594,
0.055633,0.024524,
0.028797,0.051499,
-0.028448,0.051499,
-0.06264,0.017306,
-0.062849,-0.016886,
-0.028026,-0.051499,
0.028026,-0.051499,
0.062849,-0.016815,
0.062849,0.017307,
0.012541,0.017236,
0.027465,0.002312,
0.027465,-0.009529,
0.006165,-0.0309,
-0.007218,-0.030899,
0*%
%AMOUTLINE36*
4,1,4,
0.017727,0.051499,
-0.017727,0.016115,
-0.017727,-0.051499,
0.017727,-0.051499,
0.017727,0.051499,
0*%
%AMOUTLINE39*
4,1,8,
0.038608,0.017306,
0.004344,-0.016886,
-0.003083,-0.016886,
-0.003083,0.051499,
-0.038608,0.016115,
-0.038608,-0.051499,
0.004064,-0.051499,
0.038608,-0.016886,
0.038608,0.017306,
0*%
%AMOUTLINE42*
4,1,4,
-0.082819,-0.025644,
0.082819,-0.025644,
0.03153,0.025644,
-0.031425,0.025644,
-0.082819,-0.025644,
0*%
%AMOUTLINE45*
4,1,9,
-0.07935,-0.000106,
-0.033001,-0.046455,
0.027642,-0.046455,
0.07935,0.005465,
0.016815,0.005465,
0.017025,0.013556,
0.0495,0.046348,
-0.038469,0.046455,
-0.079248,0.005361,
-0.07935,-0.000106,
0*%
%AMOUTLINE48*
4,1,6,
0.055143,0.051499,
0.019689,0.051499,
0.019689,-0.024383,
-0.027957,-0.024383,
-0.055143,-0.051499,
0.055143,-0.051499,
0.055143,0.051499,
0*%
%AMOUTLINE51*
4,1,4,
0.027396,0.013663,
0.00014,0.013663,
-0.027396,-0.013663,
0.027396,-0.013663,
0.027396,0.013663,
0*%
%AMOUTLINE54*
4,1,4,
0.024138,0.017096,
0.010125,0.017096,
-0.024138,-0.017096,
0.024138,-0.017096,
0.024138,0.017096,
0*%
%AMOUTLINE58*
4,1,4,
-0.055213,-0.017096,
0.055213,-0.017096,
0.02102,0.017096,
-0.02095,0.017096,
-0.055213,-0.017096,
0*%
%AMOUTLINE61*
4,1,9,
-0.0529,-0.00007,
-0.022001,-0.03097,
0.018428,-0.03097,
0.0529,0.003643,
0.01121,0.003643,
0.011353,0.009038,
0.033004,0.030899,
-0.025643,0.03097,
-0.052828,0.003573,
-0.0529,-0.00007,
0*%
G04 #@! TA.AperFunction,Conductor*
%ADD13C,0.008*%
G04 #@! TA.AperFunction,ViaPad*
%ADD15C,0.025*%
%ADD17C,0.04*%
G04 #@! TA.AperFunction,CopperBalancing*
%ADD20C,0.006*%
G04 #@! TA.AperFunction,Conductor*
%ADD24C,0.028*%
G04 #@! TA.AperFunction,ComponentPad*
%ADD25C,0.08*%
%ADD33R,0.059055X0.059055*%
%ADD34C,0.059055*%
G04 #@! TA.AperFunction,ViaPad*
%ADD45C,0.03*%
%ADD102OUTLINE15*%
%ADD105OUTLINE18*%
%ADD108OUTLINE21*%
%ADD111OUTLINE24*%
%ADD114OUTLINE27*%
%ADD117OUTLINE30*%
%ADD120OUTLINE33*%
%ADD123OUTLINE36*%
%ADD126OUTLINE39*%
%ADD129OUTLINE42*%
%ADD132OUTLINE45*%
%ADD135OUTLINE48*%
%ADD138OUTLINE51*%
%ADD141OUTLINE54*%
%ADD145OUTLINE58*%
%ADD148OUTLINE61*%
%FSLAX26Y26*%
G04*
G70*
G90*
G75*
G01*
G04 Bottom*
%LPD*%
X2480701Y1016672D2*
D15*
X2499701D1*
Y1024672D1*
D17*
X2582701D1*
X2627701Y979672D1*
X2882701D1*
D15*
X2875701Y972672D1*
X2895701D1*
X2728701Y1122672D2*
Y1060672D1*
X2691701Y1023672D1*
X2625701Y1165672D2*
D17*
X2655701D1*
X2678701Y1142672D1*
Y1067672D1*
X2697701Y1048672D1*
X2775701D1*
D15*
X2788701Y1061672D1*
X2634701Y1122672D2*
Y1080672D1*
D20*
X2691701Y1023672D1*
X2894701Y932672D2*
D17*
X2698701D1*
D13*
X2691701Y939672D1*
X2792701Y1122672D2*
D15*
Y1065672D1*
X2788701Y1061672D1*
X2497701Y985672D2*
X2558701D1*
D13*
X2609701Y934672D1*
X2686701D1*
X2691701Y939672D1*
Y1023672D2*
X2750701D1*
X2788701Y1061672D1*
X2634701Y1122672D2*
Y1075672D1*
X2619701Y1060672D1*
X2592701D1*
X2590701Y1062672D1*
X2416701Y1070672D2*
D17*
X2511701Y1165672D1*
X2625701D1*
X2996630Y1147672D2*
D15*
X2969701D1*
X2967701Y1149672D1*
X2862701D1*
X2774701Y1061672D1*
X2788701D1*
X3040701Y822672D2*
D17*
X2930701Y932672D1*
X2894701D1*
X3217701Y972672D2*
D24*
X3267701Y1022672D1*
X3447701D1*
X3457701Y1032672D1*
X3217701Y972672D2*
X3267701Y922672D1*
X3347701D1*
X3457701Y1032672D1*
X2416701Y1070672D2*
D15*
X1357730D1*
X1295701Y1132701D1*
X1395701D1*
X4351701Y861701D2*
X3553672D1*
X3507701Y907672D1*
Y1056672D1*
X3481701Y1082672D1*
X3413701D1*
X3352701Y1143672D1*
X3000630D1*
X2996630Y1147672D1*
X1295701Y1132701D2*
X969701D1*
X512701Y675701D1*
X2901701Y863672D2*
D20*
X2937701D1*
X3007701Y793672D1*
Y782672D1*
X3006701Y783672D1*
X2901701Y832672D2*
X2972672Y761701D1*
X3034701D1*
X3051701Y778701D1*
X3072701D1*
X2797701Y1156672D2*
X2796701D1*
X2811701Y1171672D1*
X3490701D1*
X3511701Y1150672D1*
Y1111672D1*
X3570701Y1052672D1*
Y1032672D1*
X3557701D1*
X2768701Y1173672D2*
X2778701Y1183672D1*
X3506701D1*
X3557701Y1132672D1*
X2695701Y771672D2*
X2693701D1*
X2734701Y812672D1*
X2811701D1*
X2887701Y888672D1*
X2932701D1*
X3028672Y792701D1*
X3051701D1*
X3059701Y800701D1*
X3086701D1*
X3095701Y791701D1*
Y778701D1*
X3103701Y770701D1*
X2844701Y814672D2*
X2938701Y720672D1*
Y648701D1*
X2971701Y615701D1*
X3559701D1*
X3619701Y675701D1*
X3632701D1*
X2875701Y814672D2*
X2945672Y744701D1*
X3143701D1*
X3153701Y734701D1*
X3743701D1*
X3802701Y675701D1*
X3788701D1*
X2923701Y1017672D2*
X2968701Y972672D1*
X3038701D1*
X3061701Y949672D1*
Y843672D1*
X3158672Y746701D1*
X3873701D1*
X3944701Y675701D1*
X2954701Y1018672D2*
X2947701D1*
X2981701Y984672D1*
X3043701D1*
X3073701Y954672D1*
Y849672D1*
X3164672Y758701D1*
X4017701D1*
X4100701Y675701D1*
X4256701D2*
Y684701D1*
X4169730Y771672D1*
X3169701D1*
X3085701Y855672D1*
Y959672D1*
X3048701Y996672D1*
X3001701D1*
X2979701Y1018672D1*
X2985701D1*
X3016701Y1019672D2*
X3042701D1*
X3097701Y964672D1*
Y861672D1*
X3175701Y783672D1*
X4304730D1*
X4412701Y675701D1*
X4568701D2*
X4448730Y795672D1*
X3180701D1*
X3109701Y866672D1*
Y994672D1*
X3046701Y1057672D1*
X3027701D1*
Y1048672D1*
X2902701Y1097672D2*
Y1091672D1*
X2923701Y1070672D1*
X3050701D1*
X3121701Y999672D1*
Y873672D1*
X3187701Y807672D1*
X4592730D1*
X4724701Y675701D1*
X3016701Y1092672D2*
X3046701D1*
X3133701Y1005672D1*
Y878672D1*
X3192701Y819672D1*
X4736730D1*
X4880701Y675701D1*
X2943701Y1118672D2*
X2945701D1*
X2944701Y1117672D2*
X3038701D1*
X3145701Y1010672D1*
Y883672D1*
X3197701Y831672D1*
X4880730D1*
X5036701Y675701D1*
X2532701Y804701D2*
Y740701D1*
X2398701Y606701D1*
X2297701D1*
X2228701Y675701D1*
X2496701Y753701D2*
X2504701D1*
X2478701Y727701D1*
X2124701D1*
X2072701Y675701D1*
X2463701Y753701D2*
X1994701D1*
X1916701Y675701D1*
D15*
X2480701Y1016672D3*
X2895701Y972672D3*
D3*
D17*
X2894701Y932672D3*
D15*
X2497701Y985672D3*
D17*
X2416701Y1070672D3*
D45*
X2996630Y1147672D3*
D17*
X3040701Y822672D3*
X2894701Y932672D3*
X2416701Y1070672D3*
D45*
X2996630Y1147672D3*
D15*
X2901701Y863672D3*
X3006701Y783672D3*
X2901701Y832672D3*
X3072701Y778701D3*
X2797701Y1156672D3*
X2768701Y1173672D3*
X2695701Y771672D3*
X3103701Y770701D3*
X2532701Y804701D3*
X2496701Y753701D3*
X2463701D3*
X2792701Y1122672D3*
X2923701Y1017672D3*
X2954701Y1018672D3*
X2985701D3*
X3016701Y1019672D3*
X3027701Y1048672D3*
X2902701Y1097672D3*
X3016701Y1092672D3*
X2943701Y1118672D3*
X2590701Y1062672D3*
X2588701Y861672D3*
X2788701Y863672D3*
Y1061672D3*
X2691701Y939672D3*
Y1023672D3*
X2634701Y1122672D3*
X2728701D3*
D17*
X2625701Y1165672D3*
D15*
X2844701Y814672D3*
X2875701D3*
X2560301Y1086803D2*
D20*
X2820101D1*
X2560301Y1080935D2*
X2820101D1*
X2560301Y1075066D2*
X2820101D1*
X2560301Y1069197D2*
X2820101D1*
X2560301Y1063328D2*
X2820101D1*
X2560301Y1057460D2*
X2820101D1*
X2594689Y1051591D2*
X2820101D1*
X2603572Y1045722D2*
X2820101D1*
X2609456Y1039853D2*
X2820101D1*
X2615327Y1033984D2*
X2820101D1*
X2621185Y1028116D2*
X2820101D1*
X2627057Y1022247D2*
X2820101D1*
X2632928Y1016378D2*
X2820101D1*
X2638799Y1010509D2*
X2820101D1*
X2560301Y992903D2*
X2572537D1*
X2560301Y987034D2*
X2578407D1*
X2560301Y981166D2*
X2584278D1*
X2560301Y975297D2*
X2590138D1*
X2560301Y969428D2*
X2596009D1*
X2560301Y963559D2*
X2601881D1*
X2560301Y957691D2*
X2607834D1*
X2560301Y951822D2*
X2618239D1*
X2560301Y945953D2*
X2820101D1*
X2560301Y940084D2*
X2820101D1*
X2560301Y934215D2*
X2820101D1*
X2560301Y928347D2*
X2820101D1*
X2560301Y922478D2*
X2820101D1*
X2560301Y916609D2*
X2820101D1*
X2560301Y910740D2*
X2820101D1*
X2560301Y904872D2*
X2820101D1*
X2560301Y899003D2*
X2820101D1*
X2560301Y893134D2*
X2820101D1*
X2560301Y887265D2*
X2820101D1*
X2560301Y881397D2*
X2820101D1*
X2560301Y875528D2*
X2820101D1*
X2560301Y869659D2*
X2820101D1*
X2560301Y863790D2*
X2820101D1*
X2560301Y857921D2*
X2820101D1*
X2560301Y852053D2*
X2820101D1*
X2560301Y846184D2*
X2820101D1*
X2560301Y840315D2*
X2820101D1*
X2560301Y834446D2*
X2815583D1*
X2559689Y1053912D2*
X2582701D1*
X2584995Y1053822D1*
X2587276Y1053553D1*
X2589526Y1053104D1*
X2591736Y1052481D1*
X2593891Y1051687D1*
X2595975Y1050725D1*
X2597979Y1049604D1*
X2599887Y1048328D1*
X2601691Y1046907D1*
X2603377Y1045348D1*
X2639828Y1008897D1*
X2820721Y1008912D1*
X2820701Y1092672D1*
X2559701D1*
Y1053895D1*
X2570618Y995432D2*
X2559697D1*
X2559701Y831672D1*
X2813400D1*
X2820721Y839002D1*
X2820701Y950441D1*
X2627701Y950432D1*
X2625407Y950523D1*
X2623126Y950792D1*
X2620876Y951240D1*
X2618666Y951864D1*
X2616511Y952658D1*
X2614427Y953620D1*
X2612423Y954740D1*
X2610515Y956016D1*
X2608711Y957437D1*
X2607025Y958996D1*
X2570574Y995448D1*
D25*
X5036701Y675701D3*
X4880701D3*
X4724701D3*
X4568701D3*
X4412701D3*
X4256701D3*
X4100701D3*
X3944701D3*
X3788701D3*
X3632701D3*
X3476701D3*
X3320701D3*
X3164701D3*
X3008701D3*
X2852701D3*
X2696701D3*
X2540701D3*
X2384701D3*
X2228701D3*
X2072701D3*
X1916701D3*
X1760701D3*
X1604701D3*
X1448701D3*
X1292701D3*
X1136701D3*
X980701D3*
X824701D3*
X668701D3*
X512701D3*
X5036701Y475701D3*
X4880701D3*
X4724701D3*
X4568701D3*
X4412701D3*
X4256701D3*
X4100701D3*
X3944701D3*
X3788701D3*
X3632701D3*
X3476701D3*
X3320701D3*
X3164701D3*
X3008701D3*
X2852701D3*
X2696701D3*
X2540701D3*
X2384701D3*
X2228701D3*
X2072701D3*
X1916701D3*
X1760701D3*
X1604701D3*
X1448701D3*
X1292701D3*
X1136701D3*
X980701D3*
X824701D3*
X668701D3*
X512701D3*
D33*
X3457701Y1132672D3*
D34*
X3557701D3*
X3457701Y1032672D3*
X3557701D3*
X3457701Y932672D3*
X3557701D3*
D33*
X3217701Y1072672D3*
D34*
X3317701D3*
X3217701Y972672D3*
X3317701D3*
X3217701Y872672D3*
X3317701D3*
D33*
X1295701Y1132701D3*
D34*
X1395701D3*
D102*
X2238701Y1005701D3*
D105*
X2228192Y923302D3*
D108*
X2092751Y989253D3*
D111*
X1999702Y989255D3*
D114*
X1933979D3*
D111*
X1861810D3*
D117*
X1796088D3*
D120*
X1678797Y989253D3*
D123*
X1585747Y989255D3*
D126*
X1523318D3*
D129*
X1394580Y1006109D3*
D132*
X1398049Y923713D3*
D135*
X1239255Y929066D3*
D138*
X1225450Y925843D3*
D141*
X1228709Y963469D3*
D123*
X1153633Y929066D3*
D126*
X1091202D3*
D145*
X984141Y963469D3*
D148*
X986453Y908537D3*
D135*
X860334Y929066D3*
D138*
X846529Y925843D3*
D141*
X849788Y963469D3*
M02*
