M48
INCH
T01C0.013
T02C0.016
T03C0.02
T04C0.0354
T05C0.04
%
T01
X+027927Y+011227
X+027977Y+011567
X+027687Y+011737
X+027287Y+011227
X+027887Y+010617
X+026917Y+010237
X+026917Y+009397
X+027887Y+008637
X+028447Y+008147
X+028757Y+008147
X+029017Y+008327
X+029017Y+008637
X+028957Y+009727
X+029237Y+010177
X+029547Y+010187
X+029857Y+010187
X+030167Y+010197
X+030277Y+010487
X+030167Y+010927
X+029437Y+011187
X+029027Y+010977
X+026347Y+011227
X+025907Y+010627
X+024807Y+010167
X+024977Y+009857
X+025887Y+008617
X+025327Y+008047
X+024967Y+007537
X+024637Y+007537
X+026957Y+007717
X+030067Y+007837
X+030727Y+007787
X+031037Y+007707
T02
X+029966Y+011477
T03
X+026257Y+011657
X+024167Y+010707
X+028947Y+009327
X+030407Y+008227
T04
X+034577Y+011327
X+035577Y+011327
X+035577Y+010327
X+034577Y+010327
X+034577Y+009327
X+035577Y+009327
X+033177Y+009727
X+033177Y+010727
X+032177Y+010727
X+032177Y+009727
X+032177Y+008727
X+033177Y+008727
X+013957Y+011327
X+012957Y+011327
T05
X+050367Y+006757
X+048807Y+006757
X+047247Y+006757
X+045687Y+006757
X+044127Y+006757
X+042567Y+006757
X+041007Y+006757
X+039447Y+006757
X+037887Y+006757
X+036327Y+006757
X+034767Y+006757
X+033207Y+006757
X+031647Y+006757
X+030087Y+006757
X+028527Y+006757
X+026967Y+006757
X+025407Y+006757
X+023847Y+006757
X+022287Y+006757
X+020727Y+006757
X+019167Y+006757
X+017607Y+006757
X+016047Y+006757
X+014487Y+006757
X+012927Y+006757
X+011367Y+006757
X+009807Y+006757
X+008247Y+006757
X+006687Y+006757
X+005127Y+006757
X+005127Y+004757
X+006687Y+004757
X+008247Y+004757
X+009807Y+004757
X+011367Y+004757
X+012927Y+004757
X+014487Y+004757
X+016047Y+004757
X+017607Y+004757
X+019167Y+004757
X+020727Y+004757
X+022287Y+004757
X+023847Y+004757
X+025407Y+004757
X+026967Y+004757
X+028527Y+004757
X+030087Y+004757
X+031647Y+004757
X+033207Y+004757
X+034767Y+004757
X+036327Y+004757
X+037887Y+004757
X+039447Y+004757
X+041007Y+004757
X+042567Y+004757
X+044127Y+004757
X+045687Y+004757
X+047247Y+004757
X+048807Y+004757
X+050367Y+004757
T00
M30
