G04 DipTrace 3.0.0.2*
G04 Top.gbr*
%MOIN*%
G04 #@! TF.FileFunction,Copper,L1,Top*
G04 #@! TF.Part,Single*
%AMOUTLINE0*
4,1,15,
-0.083,-0.126,
-0.076,-0.126,
-0.076,-0.13278,
-0.13278,-0.13278,
-0.13278,0.13278,
0.13278,0.13278,
0.13278,-0.13278,
0.012,-0.13278,
0.012,-0.120199,
0.120199,-0.120199,
0.120199,0.120199,
-0.120199,0.120199,
-0.120199,-0.120199,
-0.076,-0.120199,
-0.076,-0.126,
-0.083,-0.126,
0*%
%AMOUTLINE3*
4,1,6,
0.015,-0.012,
0.015,0.012,
0.009,0.012,
0.009,-0.006,
-0.015,-0.006,
-0.015,-0.012,
0.015,-0.012,
0*%
%AMOUTLINE6*
4,1,14,
0.015,-0.009,
0.015,-0.003,
-0.009,-0.003,
-0.009,0.003,
0.003,0.003,
0.003,-0.003,
0.009,-0.003,
0.009,0.003,
0.015,0.003,
0.015,0.009,
-0.015,0.009,
-0.015,-0.003,
-0.009,-0.009,
-0.003,-0.009,
0.015,-0.009,
0*%
%AMOUTLINE9*
4,1,18,
0.015,-0.012,
0.015,0.012,
-0.003,0.012,
-0.003,0.006,
-0.015,0.006,
-0.015,-0.012,
-0.009,-0.012,
-0.009,0.0,
-0.003,0.0,
-0.003,-0.006,
-0.009,-0.006,
-0.009,-0.012,
0.003,-0.012,
0.003,0.006,
0.009,0.006,
0.009,-0.006,
0.003,-0.006,
0.003,-0.012,
0.015,-0.012,
0*%
%AMOUTLINE12*
4,1,14,
0.015,-0.009,
0.015,0.003,
0.009,0.009,
-0.003,0.009,
-0.003,-0.003,
-0.009,0.003,
-0.009,0.009,
-0.015,0.009,
-0.015,-0.003,
-0.009,-0.009,
0.003,-0.009,
0.003,0.003,
0.009,-0.003,
0.009,-0.009,
0.015,-0.009,
0*%
G04 #@! TA.AperFunction,Conductor*
%ADD13C,0.008*%
%ADD14C,0.007874*%
G04 #@! TA.AperFunction,ViaPad*
%ADD15C,0.025*%
G04 #@! TA.AperFunction,Conductor*
%ADD16C,0.03937*%
G04 #@! TA.AperFunction,ViaPad*
%ADD17C,0.04*%
G04 #@! TA.AperFunction,Conductor*
%ADD18C,0.01*%
%ADD19C,0.015*%
%ADD20C,0.006*%
%ADD21C,0.022*%
%ADD22C,0.021*%
%ADD23C,0.012*%
%ADD24C,0.028*%
G04 #@! TA.AperFunction,ComponentPad*
%ADD25C,0.08*%
%ADD28R,0.007874X0.033465*%
%ADD29R,0.033465X0.007874*%
%ADD30R,0.228346X0.228346*%
%ADD31R,0.043307X0.03937*%
%ADD32R,0.106299X0.045276*%
G04 #@! TA.AperFunction,ComponentPad*
%ADD33R,0.059055X0.059055*%
%ADD34C,0.059055*%
%ADD35R,0.102X0.006*%
%ADD36R,0.024X0.006*%
%ADD37R,0.066X0.006*%
%ADD38R,0.048X0.006*%
%ADD39R,0.042X0.006*%
%ADD40R,0.036X0.006*%
%ADD41R,0.018X0.006*%
%ADD42R,0.006X0.006*%
G04 #@! TA.AperFunction,ViaPad*
%ADD45C,0.03*%
%ADD87OUTLINE0*%
%ADD90OUTLINE3*%
%ADD93OUTLINE6*%
%ADD96OUTLINE9*%
%ADD99OUTLINE12*%
%FSLAX26Y26*%
G04*
G70*
G90*
G75*
G01*
G04 Top*
%LPD*%
X2534189Y978420D2*
D13*
X2563701D1*
Y852436D1*
D14*
X2562701D1*
X2534189D1*
Y1088656D2*
D13*
X2563701D1*
Y1072908D1*
D14*
X2534189D1*
X2579465Y1118184D2*
D13*
Y1089672D1*
X2563701Y1088656D1*
X2673953Y1118184D2*
Y1089672D1*
X2579465D1*
X2815685Y1118184D2*
Y1096150D1*
Y1089672D1*
X2673953D1*
X2845213Y931176D2*
X2825138D1*
X2815685D1*
D14*
Y831918D1*
Y807160D1*
X2483630Y1099672D2*
D15*
X2495701D1*
X2514701Y1080672D1*
X2555701D1*
D13*
Y1070672D1*
X2563701Y1062672D1*
Y982672D1*
X2559449Y978420D1*
X2534189D1*
Y1088656D2*
X2494646D1*
X2483630Y1099672D1*
X2534189Y1072908D2*
X2510394D1*
X2483630Y1099672D1*
X2929701Y1166672D2*
D16*
X2876701D1*
D17*
X2832701Y1122672D1*
D13*
X2820173D1*
D14*
X2815685Y1118184D1*
X2832701Y1122672D2*
D13*
Y1113166D1*
D18*
X2815685Y1096150D1*
X2929701Y1166672D2*
D15*
X2909701D1*
D19*
X2898701Y1155672D1*
X2945701D1*
X2982701Y1118672D1*
X3018701D1*
X3053701Y1153672D1*
D15*
X3101591D1*
X3111701Y1163782D1*
X2606701Y836672D2*
D13*
X2565701D1*
X2562701Y839672D1*
Y852436D1*
X3111701Y1163782D2*
D17*
X3426591D1*
X3457701Y1132672D1*
X2815685Y1118184D2*
D20*
Y940629D1*
X2825138Y931176D1*
X2942701Y822672D2*
D21*
X2905701Y785672D1*
D22*
X2821701D1*
D14*
Y807160D1*
X2815685D1*
X2821701D2*
D20*
Y825902D1*
X2815685Y831918D1*
X2534189Y1009916D2*
D13*
X2480701D1*
Y1016672D1*
X2895701Y972672D2*
D14*
Y962672D1*
X2845213D1*
X2924772Y978672D2*
D13*
Y973672D1*
X2895701D1*
Y972672D1*
X2658205Y807160D2*
Y931176D1*
X2689701Y962672D1*
X2673953Y807160D2*
Y946924D1*
X2689701Y962672D1*
Y807160D2*
Y937672D1*
X2691701Y939672D1*
X2626709Y807160D2*
Y899680D1*
X2689701Y962672D1*
X2588701Y861672D2*
X2613701D1*
X2691701Y939672D1*
X2845213Y946924D2*
X2884701D1*
Y931672D1*
X2895701D1*
X2894701Y932672D1*
X2728701Y1122672D2*
X2725685D1*
D14*
X2721197Y1118184D1*
X2728701Y1122672D2*
D13*
X2732457D1*
D14*
X2736945Y1118184D1*
X2634701Y1122672D2*
D13*
X2631197D1*
D14*
X2626709Y1118184D1*
X2634701Y1122672D2*
D13*
X2637969D1*
D14*
X2642457Y1118184D1*
X2784189D2*
X2788213D1*
D13*
X2792701Y1122672D1*
X2795449D1*
D14*
X2799937Y1118184D1*
X2534189Y994168D2*
D13*
X2497701D1*
Y985672D1*
X2691701Y1023672D2*
Y939672D1*
X2625701Y1165672D2*
X2656701D1*
X2689701Y1118184D2*
D14*
Y1139672D1*
D13*
X2679701Y1149672D1*
X2672701D1*
X2656701Y1165672D1*
X2634701Y1122672D2*
X2653717D1*
D14*
X2658205Y1118184D1*
X2416701Y1099672D2*
D16*
Y1070672D1*
X2996630Y1166672D2*
D15*
Y1147672D1*
X2894701Y932672D2*
D23*
X2901701D1*
X2915701Y946672D1*
X2959701D1*
X2991701Y978672D1*
D15*
X3038701D1*
X3056701Y996672D1*
X3050701D1*
D24*
X3090701Y956672D1*
X3201701D1*
D15*
X3217701Y972672D1*
X3009630Y822672D2*
D16*
X3040701D1*
X3177701Y899672D2*
D15*
X3063701D1*
Y845672D1*
X3040701Y822672D1*
X512701Y475701D2*
Y675701D1*
X2705449Y1118184D2*
D13*
Y1147491D1*
X2723630Y1165672D1*
X2845213Y899680D2*
D20*
X2867693D1*
X2881701Y885672D1*
X2925772D1*
X2942772Y868672D1*
X2845213Y915428D2*
X2868945D1*
X2880701Y903672D1*
X2932772D1*
X2943772Y914672D1*
X3317701Y1072672D2*
Y1057672D1*
X3279701Y1019672D1*
Y979672D1*
X3233701Y933672D1*
X3029701D1*
X3010701Y914672D1*
X3317701Y972672D2*
X3290701D1*
X3239701Y921672D1*
X3047701D1*
X3041701Y915672D1*
Y890672D1*
X3026701Y875672D1*
X3016701D1*
X3009701Y868672D1*
X2866441Y883932D2*
X2845213D1*
X2866441D2*
X2880701Y869672D1*
X2895701D1*
X2901701Y863672D1*
X3006701Y783672D2*
Y791672D1*
X3051701D1*
X3093701Y833672D1*
X3233701D1*
X3256701Y856672D1*
Y883672D1*
X3297701Y924672D1*
X3457701D1*
Y932672D1*
X2845213Y868184D2*
X2864189D1*
X2901701Y830672D1*
Y832672D1*
X3072701Y778701D2*
Y780701D1*
X3073701D1*
Y796672D1*
X3098701Y821672D1*
X3239701D1*
X3270701Y852672D1*
Y880672D1*
X3301701Y911672D1*
X3415701D1*
X3434701Y892672D1*
X3517701D1*
X3557701Y932672D1*
X2768441Y1118184D2*
Y1136412D1*
X2782701Y1150672D1*
X2791701D1*
X2797701Y1156672D1*
X2752693Y1118184D2*
Y1137664D1*
X2754701Y1139672D1*
Y1159672D1*
X2768701Y1173672D1*
X2705449Y807160D2*
Y781420D1*
X2695701Y771672D1*
X3103701Y770701D2*
X3142672Y809672D1*
X3254701D1*
X3317701Y872672D1*
X3123630Y996672D2*
D16*
Y1033743D1*
D17*
X3111701Y1045672D1*
X3217701Y1072672D2*
X3199630D1*
X3151692Y1024734D1*
D16*
X3123630Y996672D1*
X2563717Y807160D2*
D20*
Y770717D1*
X2488701Y695701D1*
X2489701D1*
X2469701Y675701D1*
X2384701D1*
Y475701D2*
D15*
Y675701D1*
X2579465Y807160D2*
D20*
Y700436D1*
X2555215Y676187D1*
X2540701Y661672D1*
Y675701D1*
X2555215Y676187D2*
X2541187D1*
X2540701Y675701D1*
Y475701D2*
D15*
Y675701D1*
X2721197Y807160D2*
D20*
Y772176D1*
X2720701Y772672D1*
Y727701D1*
X2696701Y703701D1*
Y675701D1*
Y475701D2*
D15*
Y675701D1*
X2736945Y807160D2*
D20*
Y765457D1*
X2826701Y675701D1*
X2852701D1*
Y475701D2*
D15*
Y675701D1*
X2752693Y807160D2*
D20*
Y774680D1*
X2802672Y724701D1*
X2902701D1*
X2951701Y675701D1*
X3008701D1*
Y475701D2*
D15*
Y675701D1*
X2768441Y807160D2*
D20*
Y776932D1*
X2807672Y737701D1*
X3035701D1*
X3097701Y675701D1*
X3164701D1*
Y475701D2*
D15*
Y675701D1*
X2784189Y807160D2*
D20*
Y778184D1*
X2812672Y749701D1*
X3040701D1*
X3055701Y734701D1*
X3241701D1*
X3300701Y675701D1*
X3320701D1*
Y475701D2*
D15*
Y675701D1*
X2799937Y807160D2*
D20*
Y779436D1*
X2817672Y761701D1*
X3048701D1*
X3063701Y746701D1*
X3405701D1*
X3476701Y675701D1*
Y475701D2*
D15*
Y675701D1*
X2845213Y836688D2*
D20*
Y815184D1*
X2844701Y814672D1*
X3632701Y475701D2*
D15*
Y675701D1*
X2845213Y852436D2*
D20*
X2862937D1*
X2875701Y839672D1*
Y814672D1*
X3788701Y475701D2*
D15*
Y675701D1*
X2845213Y978420D2*
D20*
X2870449D1*
X2910701Y1018672D1*
X2922701D1*
X2923701Y1017672D1*
X3944701Y475701D2*
D15*
Y675701D1*
X2845213Y994168D2*
D20*
X2869197D1*
X2914701Y1039672D1*
X2933701D1*
X2954701Y1018672D1*
X4100701Y475701D2*
D15*
Y675701D1*
X2845213Y1009916D2*
D20*
X2867945D1*
X2909701Y1051672D1*
X2953701D1*
X2985701Y1019672D1*
Y1018672D1*
X4256701Y475701D2*
D15*
Y675701D1*
X2845213Y1025664D2*
D20*
X2866693D1*
X2904701Y1063672D1*
X2971701D1*
X3021701Y1013672D1*
Y1024672D1*
X3016701Y1019672D1*
X4412701Y475701D2*
D15*
Y675701D1*
X2845213Y1041412D2*
D20*
X2865441D1*
X2899701Y1075672D1*
X2993701D1*
X3023701Y1045672D1*
X3024701D1*
X3027701Y1048672D1*
X4568701Y475701D2*
D15*
Y675701D1*
X2845213Y1057160D2*
D20*
X2864189D1*
X2904701Y1097672D1*
X2902701D1*
X4724701Y475701D2*
D15*
Y675701D1*
X2845213Y1072908D2*
D20*
X2862937D1*
X2878701Y1088672D1*
Y1104672D1*
X2894701Y1120672D1*
X2910701D1*
X2937701Y1093672D1*
X3016701D1*
Y1092672D1*
X4880701Y475701D2*
D15*
Y675701D1*
X2845213Y1088656D2*
D20*
X2889229Y1132672D1*
X2941701D1*
X2950701Y1123672D1*
Y1118672D1*
X2943701D1*
X5036701Y475701D2*
D15*
Y675701D1*
X2534189Y836688D2*
D20*
Y806189D1*
X2532701Y804701D1*
X2228701Y475701D2*
D15*
Y675701D1*
X2534189Y868184D2*
D20*
X2516213D1*
X2505701Y857672D1*
Y762701D1*
X2496701Y753701D1*
X2072701Y475701D2*
D15*
Y675701D1*
X2534189Y883932D2*
D20*
X2512961D1*
X2492701Y863672D1*
Y782701D1*
X2463701Y753701D1*
X1916701Y475701D2*
D15*
Y675701D1*
X2534189Y899680D2*
D20*
X2508709D1*
X2478701Y869672D1*
Y800701D1*
X2402701Y724701D1*
X1809701D1*
X1760701Y675701D1*
Y475701D2*
D15*
Y675701D1*
X2534189Y915428D2*
D20*
X2505457D1*
X2464701Y874672D1*
Y803701D1*
X2397701Y736701D1*
X1665701D1*
X1604701Y675701D1*
Y475701D2*
D15*
Y675701D1*
X2534189Y931176D2*
D20*
X2504205D1*
X2451701Y878672D1*
Y807701D1*
X2392701Y748701D1*
X1519701D1*
X1448701Y677701D1*
Y675701D1*
Y475701D2*
D15*
Y675701D1*
X2534189Y946924D2*
D20*
X2500953D1*
X2439701Y885672D1*
Y812701D1*
X2387701Y760701D1*
X1378701D1*
X1292701Y674701D1*
Y675701D1*
Y475701D2*
D15*
Y675701D1*
X2534189Y962672D2*
D20*
X2496701D1*
X2427701Y893672D1*
Y817701D1*
X2382701Y772701D1*
X1233701D1*
X1136701Y675701D1*
Y475701D2*
D15*
Y675701D1*
X2534189Y1025664D2*
D20*
X2503709D1*
X2490701Y1038672D1*
X2470701D1*
X2415701Y983672D1*
Y822701D1*
X2377701Y784701D1*
X1089701D1*
X980701Y675701D1*
Y475701D2*
D15*
Y675701D1*
X2534189Y1041412D2*
D20*
X2505961D1*
X2494701Y1052672D1*
X2459701D1*
X2402701Y995672D1*
Y826701D1*
X2372701Y796701D1*
X946701D1*
X824701Y674701D1*
Y675701D1*
Y475701D2*
D15*
Y675701D1*
X2534189Y1057160D2*
D20*
X2507213D1*
X2497701Y1066672D1*
X2454701D1*
X2390701Y1002672D1*
Y831701D1*
X2367701Y808701D1*
X801701D1*
X668701Y675701D1*
Y475701D2*
D15*
Y675701D1*
X2480701Y1016672D3*
X2895701Y972672D3*
D3*
D17*
X2894701Y932672D3*
D15*
X2497701Y985672D3*
D17*
X2416701Y1070672D3*
D45*
X2996630Y1147672D3*
D17*
X3040701Y822672D3*
X2894701Y932672D3*
X2416701Y1070672D3*
D45*
X2996630Y1147672D3*
D15*
X2901701Y863672D3*
X3006701Y783672D3*
X2901701Y832672D3*
X3072701Y778701D3*
X2797701Y1156672D3*
X2768701Y1173672D3*
X2695701Y771672D3*
X3103701Y770701D3*
X2532701Y804701D3*
X2496701Y753701D3*
X2463701D3*
X2792701Y1122672D3*
X2923701Y1017672D3*
X2954701Y1018672D3*
X2985701D3*
X3016701Y1019672D3*
X3027701Y1048672D3*
X2902701Y1097672D3*
X3016701Y1092672D3*
X2943701Y1118672D3*
X2590701Y1062672D3*
X2588701Y861672D3*
X2788701Y863672D3*
Y1061672D3*
X2691701Y939672D3*
Y1023672D3*
X2634701Y1122672D3*
X2728701D3*
D17*
X2625701Y1165672D3*
D15*
X2844701Y814672D3*
X2875701D3*
D25*
X5036701Y675701D3*
X4880701D3*
X4724701D3*
X4568701D3*
X4412701D3*
X4256701D3*
X4100701D3*
X3944701D3*
X3788701D3*
X3632701D3*
X3476701D3*
X3320701D3*
X3164701D3*
X3008701D3*
X2852701D3*
X2696701D3*
X2540701D3*
X2384701D3*
X2228701D3*
X2072701D3*
X1916701D3*
X1760701D3*
X1604701D3*
X1448701D3*
X1292701D3*
X1136701D3*
X980701D3*
X824701D3*
X668701D3*
X512701D3*
X5036701Y475701D3*
X4880701D3*
X4724701D3*
X4568701D3*
X4412701D3*
X4256701D3*
X4100701D3*
X3944701D3*
X3788701D3*
X3632701D3*
X3476701D3*
X3320701D3*
X3164701D3*
X3008701D3*
X2852701D3*
X2696701D3*
X2540701D3*
X2384701D3*
X2228701D3*
X2072701D3*
X1916701D3*
X1760701D3*
X1604701D3*
X1448701D3*
X1292701D3*
X1136701D3*
X980701D3*
X824701D3*
X668701D3*
X512701D3*
D28*
X2563717Y807160D3*
X2579465D3*
X2595213D3*
X2610961D3*
X2626709D3*
X2642457D3*
X2658205D3*
X2673953D3*
X2689701D3*
X2705449D3*
X2721197D3*
X2736945D3*
X2752693D3*
X2768441D3*
X2784189D3*
X2799937D3*
X2815685D3*
D29*
X2845213Y836688D3*
Y852436D3*
Y868184D3*
Y883932D3*
Y899680D3*
Y915428D3*
Y931176D3*
Y946924D3*
Y962672D3*
Y978420D3*
Y994168D3*
Y1009916D3*
Y1025664D3*
Y1041412D3*
Y1057160D3*
Y1072908D3*
Y1088656D3*
D28*
X2815685Y1118184D3*
X2799937D3*
X2784189D3*
X2768441D3*
X2752693D3*
X2736945D3*
X2721197D3*
X2705449D3*
X2689701D3*
X2673953D3*
X2658205D3*
X2642457D3*
X2626709D3*
X2610961D3*
X2595213D3*
X2579465D3*
X2563717D3*
D29*
X2534189Y1088656D3*
Y1072908D3*
Y1057160D3*
Y1041412D3*
Y1025664D3*
Y1009916D3*
Y994168D3*
Y978420D3*
Y962672D3*
Y946924D3*
Y931176D3*
Y915428D3*
Y899680D3*
Y883932D3*
Y868184D3*
Y852436D3*
Y836688D3*
D30*
X2689701Y962672D3*
D87*
D3*
D31*
X2656701Y1165672D3*
X2723630D3*
X2991701Y978672D3*
X2924772D3*
X3009701Y868672D3*
X2942772D3*
X3010701Y914672D3*
X2943772D3*
X2416701Y1099672D3*
X2483630D3*
X2929701Y1166672D3*
X2996630D3*
X3056701Y996672D3*
X3123630D3*
D32*
X3111701Y1045672D3*
Y1163782D3*
D33*
X3457701Y1132672D3*
D34*
X3557701D3*
X3457701Y1032672D3*
X3557701D3*
X3457701Y932672D3*
X3557701D3*
D33*
X3217701Y1072672D3*
D34*
X3317701D3*
X3217701Y972672D3*
X3317701D3*
X3217701Y872672D3*
X3317701D3*
D33*
X1295701Y1132701D3*
D34*
X1395701D3*
D31*
X2942701Y822672D3*
X3009630D3*
D35*
X1978701Y880701D3*
D36*
X1939701Y892701D3*
Y928701D3*
Y940701D3*
Y904701D3*
Y916701D3*
Y952701D3*
Y964701D3*
X2005701D3*
X2017701Y952701D3*
X1939701Y976701D3*
D37*
X1960701Y988701D3*
D36*
X2029701Y940701D3*
X2041701Y928701D3*
X2053701Y916701D3*
X2041701Y904701D3*
X2029701Y892701D3*
X2053701Y880701D3*
Y952701D3*
Y964701D3*
D38*
X2065701Y976701D3*
D39*
X2062701Y988701D3*
D36*
X2083701Y964701D3*
X2089701Y952701D3*
D40*
X2104701Y940701D3*
D36*
X2155701Y952701D3*
Y964701D3*
D39*
X2146701Y988701D3*
D38*
X2143701Y976701D3*
D36*
X2104701Y928701D3*
X2119701Y952701D3*
X2125701Y964701D3*
D41*
X2104701Y916701D3*
D36*
X2179701Y904701D3*
X2191701Y916701D3*
X2203701Y928701D3*
X2215701Y940701D3*
D35*
X2194701Y880701D3*
D36*
X2167701Y892701D3*
X2269701Y880701D3*
Y892701D3*
Y928701D3*
Y940701D3*
Y904701D3*
Y916701D3*
Y952701D3*
Y964701D3*
X2155701Y940701D3*
X2269701Y988701D3*
X2239701Y964701D3*
X2227701Y952701D3*
D39*
X2260701Y976701D3*
D36*
X2155701Y928701D3*
Y916701D3*
D41*
X2152701Y904701D3*
D42*
X2146701Y892701D3*
D36*
X1993701Y976701D3*
D42*
X2062701Y904701D3*
D41*
X2056701Y892701D3*
Y940701D3*
D42*
X2062701Y928701D3*
D90*
X2320701Y889701D3*
D93*
Y916701D3*
D96*
Y943701D3*
D99*
Y970701D3*
M02*
