G04 DipTrace 3.0.0.2*
G04 TopMask.gbr*
%MOIN*%
G04 #@! TF.FileFunction,Soldermask,Top*
G04 #@! TF.Part,Single*
%AMOUTLINE1*
4,1,13,
-0.072063,-0.129937,
-0.072063,-0.136717,
-0.136717,-0.136717,
-0.136717,0.136717,
0.136717,0.136717,
0.136717,-0.136717,
0.008063,-0.136717,
0.008063,-0.116262,
0.116262,-0.116262,
0.116262,0.116262,
-0.116262,0.116262,
-0.116262,-0.116262,
-0.072063,-0.116262,
-0.072063,-0.129937,
0*%
%AMOUTLINE4*
4,1,6,
0.018937,-0.015937,
0.018937,0.015937,
0.005063,0.015937,
0.005063,-0.002063,
-0.018937,-0.002063,
-0.018937,-0.015937,
0.018937,-0.015937,
0*%
%AMOUTLINE7*
4,1,7,
0.018937,-0.012937,
0.018937,0.000937,
0.018937,0.012937,
-0.018937,0.012937,
-0.018937,-0.004631,
-0.010631,-0.012937,
-0.003,-0.012937,
0.018937,-0.012937,
0*%
%AMOUTLINE10*
4,1,8,
0.018937,-0.015937,
0.018937,0.015937,
-0.006937,0.015937,
-0.006937,0.009937,
-0.018937,0.009937,
-0.018937,-0.015937,
-0.005063,-0.015937,
0.006937,-0.015937,
0.018937,-0.015937,
0*%
%AMOUTLINE13*
4,1,8,
0.018937,-0.012937,
0.018937,0.004631,
0.010631,0.012937,
-0.006937,0.012937,
-0.018937,0.012937,
-0.018937,-0.004631,
-0.010631,-0.012937,
0.006937,-0.012937,
0.018937,-0.012937,
0*%
%ADD54R,0.013874X0.013874*%
%ADD56R,0.025874X0.013874*%
%ADD58R,0.043874X0.013874*%
%ADD60R,0.049874X0.013874*%
%ADD62R,0.055874X0.013874*%
%ADD64R,0.073874X0.013874*%
%ADD66R,0.031874X0.013874*%
%ADD68R,0.109874X0.013874*%
%ADD70C,0.066929*%
%ADD72R,0.066929X0.066929*%
%ADD74R,0.114173X0.05315*%
%ADD76R,0.051181X0.047244*%
%ADD78R,0.23622X0.23622*%
%ADD80R,0.041339X0.015748*%
%ADD82R,0.015748X0.041339*%
%ADD84C,0.087874*%
%ADD88OUTLINE1*%
%ADD91OUTLINE4*%
%ADD94OUTLINE7*%
%ADD97OUTLINE10*%
%ADD100OUTLINE13*%
%FSLAX26Y26*%
G04*
G70*
G90*
G75*
G01*
G04 TopMask*
%LPD*%
D84*
X5036701Y675701D3*
X4880701D3*
X4724701D3*
X4568701D3*
X4412701D3*
X4256701D3*
X4100701D3*
X3944701D3*
X3788701D3*
X3632701D3*
X3476701D3*
X3320701D3*
X3164701D3*
X3008701D3*
X2852701D3*
X2696701D3*
X2540701D3*
X2384701D3*
X2228701D3*
X2072701D3*
X1916701D3*
X1760701D3*
X1604701D3*
X1448701D3*
X1292701D3*
X1136701D3*
X980701D3*
X824701D3*
X668701D3*
X512701D3*
X5036701Y475701D3*
X4880701D3*
X4724701D3*
X4568701D3*
X4412701D3*
X4256701D3*
X4100701D3*
X3944701D3*
X3788701D3*
X3632701D3*
X3476701D3*
X3320701D3*
X3164701D3*
X3008701D3*
X2852701D3*
X2696701D3*
X2540701D3*
X2384701D3*
X2228701D3*
X2072701D3*
X1916701D3*
X1760701D3*
X1604701D3*
X1448701D3*
X1292701D3*
X1136701D3*
X980701D3*
X824701D3*
X668701D3*
X512701D3*
D82*
X2563717Y807160D3*
X2579465D3*
X2595213D3*
X2610961D3*
X2626709D3*
X2642457D3*
X2658205D3*
X2673953D3*
X2689701D3*
X2705449D3*
X2721197D3*
X2736945D3*
X2752693D3*
X2768441D3*
X2784189D3*
X2799937D3*
X2815685D3*
D80*
X2845213Y836688D3*
Y852436D3*
Y868184D3*
Y883932D3*
Y899680D3*
Y915428D3*
Y931176D3*
Y946924D3*
Y962672D3*
Y978420D3*
Y994168D3*
Y1009916D3*
Y1025664D3*
Y1041412D3*
Y1057160D3*
Y1072908D3*
Y1088656D3*
D82*
X2815685Y1118184D3*
X2799937D3*
X2784189D3*
X2768441D3*
X2752693D3*
X2736945D3*
X2721197D3*
X2705449D3*
X2689701D3*
X2673953D3*
X2658205D3*
X2642457D3*
X2626709D3*
X2610961D3*
X2595213D3*
X2579465D3*
X2563717D3*
D80*
X2534189Y1088656D3*
Y1072908D3*
Y1057160D3*
Y1041412D3*
Y1025664D3*
Y1009916D3*
Y994168D3*
Y978420D3*
Y962672D3*
Y946924D3*
Y931176D3*
Y915428D3*
Y899680D3*
Y883932D3*
Y868184D3*
Y852436D3*
Y836688D3*
D78*
X2689701Y962672D3*
D88*
D3*
D76*
X2656701Y1165672D3*
X2723630D3*
X2991701Y978672D3*
X2924772D3*
X3009701Y868672D3*
X2942772D3*
X3010701Y914672D3*
X2943772D3*
X2416701Y1099672D3*
X2483630D3*
X2929701Y1166672D3*
X2996630D3*
X3056701Y996672D3*
X3123630D3*
D74*
X3111701Y1045672D3*
Y1163782D3*
D72*
X3457701Y1132672D3*
D70*
X3557701D3*
X3457701Y1032672D3*
X3557701D3*
X3457701Y932672D3*
X3557701D3*
D72*
X3217701Y1072672D3*
D70*
X3317701D3*
X3217701Y972672D3*
X3317701D3*
X3217701Y872672D3*
X3317701D3*
D72*
X1295701Y1132701D3*
D70*
X1395701D3*
D76*
X2942701Y822672D3*
X3009630D3*
D68*
X1978701Y880701D3*
D66*
X1939701Y892701D3*
Y928701D3*
Y940701D3*
Y904701D3*
Y916701D3*
Y952701D3*
Y964701D3*
X2005701D3*
X2017701Y952701D3*
X1939701Y976701D3*
D64*
X1960701Y988701D3*
D66*
X2029701Y940701D3*
X2041701Y928701D3*
X2053701Y916701D3*
X2041701Y904701D3*
X2029701Y892701D3*
X2053701Y880701D3*
Y952701D3*
Y964701D3*
D62*
X2065701Y976701D3*
D60*
X2062701Y988701D3*
D66*
X2083701Y964701D3*
X2089701Y952701D3*
D58*
X2104701Y940701D3*
D66*
X2155701Y952701D3*
Y964701D3*
D60*
X2146701Y988701D3*
D62*
X2143701Y976701D3*
D66*
X2104701Y928701D3*
X2119701Y952701D3*
X2125701Y964701D3*
D56*
X2104701Y916701D3*
D66*
X2179701Y904701D3*
X2191701Y916701D3*
X2203701Y928701D3*
X2215701Y940701D3*
D68*
X2194701Y880701D3*
D66*
X2167701Y892701D3*
X2269701Y880701D3*
Y892701D3*
Y928701D3*
Y940701D3*
Y904701D3*
Y916701D3*
Y952701D3*
Y964701D3*
X2155701Y940701D3*
X2269701Y988701D3*
X2239701Y964701D3*
X2227701Y952701D3*
D60*
X2260701Y976701D3*
D66*
X2155701Y928701D3*
Y916701D3*
D56*
X2152701Y904701D3*
D54*
X2146701Y892701D3*
D66*
X1993701Y976701D3*
D54*
X2062701Y904701D3*
D56*
X2056701Y892701D3*
Y940701D3*
D54*
X2062701Y928701D3*
D91*
X2320701Y889701D3*
D94*
Y916701D3*
D97*
Y943701D3*
D100*
Y970701D3*
M02*
