G04 DipTrace 3.0.0.2*
G04 TopPaste.gbr*
%MOIN*%
G04 #@! TF.FileFunction,Paste,Top*
G04 #@! TF.Part,Single*
%AMOUTLINE2*
4,1,15,
-0.079063,-0.126,
-0.079937,-0.129937,
-0.079937,-0.128843,
-0.128843,-0.128843,
-0.128843,0.128843,
0.128843,0.128843,
0.128843,-0.128843,
0.015937,-0.128843,
0.015937,-0.124136,
0.124136,-0.124136,
0.124136,0.124136,
-0.124136,0.124136,
-0.124136,-0.124136,
-0.079937,-0.124136,
-0.079937,-0.122063,
-0.079063,-0.126,
0*%
%AMOUTLINE5*
4,1,6,
0.011063,-0.008063,
0.011063,0.008063,
0.012937,0.008063,
0.012937,-0.009937,
-0.011063,-0.009937,
-0.011063,-0.008063,
0.011063,-0.008063,
0*%
%AMOUTLINE8*
4,1,11,
0.011063,-0.005063,
0.011063,-0.006937,
-0.012937,-0.006937,
-0.012937,0.006937,
0.006937,0.006937,
0.006937,0.003635,
0.006127,0.005063,
-0.011063,0.005063,
-0.011063,-0.001369,
-0.007369,-0.005063,
-0.003,-0.005063,
0.011063,-0.005063,
0*%
%AMOUTLINE11*
4,1,14,
0.011063,-0.008063,
0.011063,0.008063,
0.000937,0.008063,
0.000937,0.002063,
-0.011063,0.002063,
-0.011063,-0.008063,
-0.012937,-0.008063,
-0.012937,0.003937,
-0.000937,0.003937,
-0.000937,0.009937,
0.012937,0.009937,
0.012937,-0.009937,
0.006937,-0.009937,
0.006937,-0.008063,
0.011063,-0.008063,
0*%
%AMOUTLINE14*
4,1,6,
0.006505,0.005063,
0.000937,0.005063,
0.000937,-0.012505,
-0.006505,-0.005063,
-0.000937,-0.005063,
-0.000937,0.012505,
0.006505,0.005063,
0*%
%ADD55R,-0.001874X-0.001874*%
%ADD57R,0.010126X-0.001874*%
%ADD59R,0.028126X-0.001874*%
%ADD61R,0.034126X-0.001874*%
%ADD63R,0.040126X-0.001874*%
%ADD65R,0.058126X-0.001874*%
%ADD67R,0.016126X-0.001874*%
%ADD69R,0.094126X-0.001874*%
%ADD75R,0.098425X0.037402*%
%ADD77R,0.035433X0.031496*%
%ADD79R,0.220472X0.220472*%
%ADD81R,0.025591X0.0*%
%ADD83R,0.0X0.025591*%
%ADD89OUTLINE2*%
%ADD92OUTLINE5*%
%ADD95OUTLINE8*%
%ADD98OUTLINE11*%
%ADD101OUTLINE14*%
%FSLAX26Y26*%
G04*
G70*
G90*
G75*
G01*
G04 TopPaste*
%LPD*%
D83*
X2563717Y807160D3*
X2579465D3*
X2595213D3*
X2610961D3*
X2626709D3*
X2642457D3*
X2658205D3*
X2673953D3*
X2689701D3*
X2705449D3*
X2721197D3*
X2736945D3*
X2752693D3*
X2768441D3*
X2784189D3*
X2799937D3*
X2815685D3*
D81*
X2845213Y836688D3*
Y852436D3*
Y868184D3*
Y883932D3*
Y899680D3*
Y915428D3*
Y931176D3*
Y946924D3*
Y962672D3*
Y978420D3*
Y994168D3*
Y1009916D3*
Y1025664D3*
Y1041412D3*
Y1057160D3*
Y1072908D3*
Y1088656D3*
D83*
X2815685Y1118184D3*
X2799937D3*
X2784189D3*
X2768441D3*
X2752693D3*
X2736945D3*
X2721197D3*
X2705449D3*
X2689701D3*
X2673953D3*
X2658205D3*
X2642457D3*
X2626709D3*
X2610961D3*
X2595213D3*
X2579465D3*
X2563717D3*
D81*
X2534189Y1088656D3*
Y1072908D3*
Y1057160D3*
Y1041412D3*
Y1025664D3*
Y1009916D3*
Y994168D3*
Y978420D3*
Y962672D3*
Y946924D3*
Y931176D3*
Y915428D3*
Y899680D3*
Y883932D3*
Y868184D3*
Y852436D3*
Y836688D3*
D79*
X2689701Y962672D3*
D89*
D3*
D77*
X2656701Y1165672D3*
X2723630D3*
X2991701Y978672D3*
X2924772D3*
X3009701Y868672D3*
X2942772D3*
X3010701Y914672D3*
X2943772D3*
X2416701Y1099672D3*
X2483630D3*
X2929701Y1166672D3*
X2996630D3*
X3056701Y996672D3*
X3123630D3*
D75*
X3111701Y1045672D3*
Y1163782D3*
D77*
X2942701Y822672D3*
X3009630D3*
D69*
X1978701Y880701D3*
D67*
X1939701Y892701D3*
Y928701D3*
Y940701D3*
Y904701D3*
Y916701D3*
Y952701D3*
Y964701D3*
X2005701D3*
X2017701Y952701D3*
X1939701Y976701D3*
D65*
X1960701Y988701D3*
D67*
X2029701Y940701D3*
X2041701Y928701D3*
X2053701Y916701D3*
X2041701Y904701D3*
X2029701Y892701D3*
X2053701Y880701D3*
Y952701D3*
Y964701D3*
D63*
X2065701Y976701D3*
D61*
X2062701Y988701D3*
D67*
X2083701Y964701D3*
X2089701Y952701D3*
D59*
X2104701Y940701D3*
D67*
X2155701Y952701D3*
Y964701D3*
D61*
X2146701Y988701D3*
D63*
X2143701Y976701D3*
D67*
X2104701Y928701D3*
X2119701Y952701D3*
X2125701Y964701D3*
D57*
X2104701Y916701D3*
D67*
X2179701Y904701D3*
X2191701Y916701D3*
X2203701Y928701D3*
X2215701Y940701D3*
D69*
X2194701Y880701D3*
D67*
X2167701Y892701D3*
X2269701Y880701D3*
Y892701D3*
Y928701D3*
Y940701D3*
Y904701D3*
Y916701D3*
Y952701D3*
Y964701D3*
X2155701Y940701D3*
X2269701Y988701D3*
X2239701Y964701D3*
X2227701Y952701D3*
D61*
X2260701Y976701D3*
D67*
X2155701Y928701D3*
Y916701D3*
D57*
X2152701Y904701D3*
D55*
X2146701Y892701D3*
D67*
X1993701Y976701D3*
D55*
X2062701Y904701D3*
D57*
X2056701Y892701D3*
Y940701D3*
D55*
X2062701Y928701D3*
D92*
X2320701Y889701D3*
D95*
Y916701D3*
D98*
Y943701D3*
D101*
Y970701D3*
M02*
