G04 DipTrace 3.0.0.2*
G04 TopSilk.gbr*
%MOIN*%
G04 #@! TF.FileFunction,Legend,Top*
G04 #@! TF.Part,Single*
%ADD10C,0.009843*%
%ADD14C,0.007874*%
%ADD26C,0.001969*%
%ADD86C,0.004632*%
%FSLAX26Y26*%
G04*
G70*
G90*
G75*
G01*
G04 TopSilk*
%LPD*%
X2507614Y780586D2*
D26*
Y1144759D1*
X2871788D1*
Y780586D1*
X2507614D1*
X2536166Y790418D2*
D14*
G02X2536166Y790418I3933J0D01*
G01*
X3160918Y1088944D2*
D10*
Y1120429D1*
X3062484Y1088944D2*
Y1120429D1*
X3407701Y1074372D2*
Y882672D1*
Y1182672D2*
Y882672D1*
X3607701Y1182672D2*
Y882672D1*
X3407701Y1182672D2*
X3607701D1*
X3407701Y882672D2*
X3607701D1*
X3167701Y1014372D2*
Y822672D1*
Y1122672D2*
Y822672D1*
X3367701Y1122672D2*
Y822672D1*
X3167701Y1122672D2*
X3367701D1*
X3167701Y822672D2*
X3367701D1*
X1445701Y1082701D2*
Y1182701D1*
X1245701Y1082701D2*
X1445701D1*
X1245701D2*
Y1182701D1*
X1445701D1*
X3528488Y757635D2*
D86*
Y734687D1*
X3527062Y730376D1*
X3525603Y728950D1*
X3522751Y727491D1*
X3519866D1*
X3517014Y728950D1*
X3515588Y730376D1*
X3514129Y734687D1*
Y737539D1*
X3552110Y727491D2*
Y757602D1*
X3537751Y737539D1*
X3559273D1*
X2464423Y961693D2*
Y940171D1*
X2465849Y935860D1*
X2468734Y933008D1*
X2473045Y931549D1*
X2475897D1*
X2480208Y933008D1*
X2483093Y935860D1*
X2484519Y940171D1*
Y961693D1*
X2493783Y955922D2*
X2496668Y957382D1*
X2500979Y961659D1*
Y931549D1*
X2605697Y1173128D2*
X2604271Y1175980D1*
X2601386Y1178865D1*
X2598534Y1180291D1*
X2592797D1*
X2589912Y1178865D1*
X2587060Y1175980D1*
X2585601Y1173128D1*
X2584175Y1168817D1*
Y1161621D1*
X2585601Y1157343D1*
X2587060Y1154458D1*
X2589912Y1151606D1*
X2592797Y1150147D1*
X2598534D1*
X2601386Y1151606D1*
X2604271Y1154458D1*
X2605697Y1157343D1*
X2614960Y1174521D2*
X2617845Y1175980D1*
X2622156Y1180258D1*
Y1150147D1*
X2948318Y948128D2*
X2946892Y950980D1*
X2944007Y953865D1*
X2941155Y955291D1*
X2935418D1*
X2932533Y953865D1*
X2929681Y950980D1*
X2928222Y948128D1*
X2926796Y943817D1*
Y936621D1*
X2928222Y932343D1*
X2929681Y929458D1*
X2932533Y926606D1*
X2935418Y925147D1*
X2941155D1*
X2944007Y926606D1*
X2946892Y929458D1*
X2948318Y932343D1*
X2959040Y948095D2*
Y949521D1*
X2960466Y952406D1*
X2961892Y953832D1*
X2964777Y955258D1*
X2970514D1*
X2973366Y953832D1*
X2974792Y952406D1*
X2976251Y949521D1*
Y946669D1*
X2974792Y943784D1*
X2971940Y939506D1*
X2957581Y925147D1*
X2977677D1*
X3035959Y868932D2*
X3048859D1*
X3053170Y870391D1*
X3054629Y871817D1*
X3056055Y874669D1*
Y877554D1*
X3054629Y880406D1*
X3053170Y881865D1*
X3048859Y883291D1*
X3035959D1*
Y853147D1*
X3046007Y868932D2*
X3056055Y853147D1*
X3065318Y877521D2*
X3068203Y878980D1*
X3072514Y883258D1*
Y853147D1*
X3038509Y914932D2*
X3051409D1*
X3055720Y916391D1*
X3057179Y917817D1*
X3058605Y920669D1*
Y923554D1*
X3057179Y926406D1*
X3055720Y927865D1*
X3051409Y929291D1*
X3038509D1*
Y899147D1*
X3048557Y914932D2*
X3058605Y899147D1*
X3069327Y922095D2*
Y923521D1*
X3070753Y926406D1*
X3072179Y927832D1*
X3075064Y929258D1*
X3080801D1*
X3083653Y927832D1*
X3085079Y926406D1*
X3086538Y923521D1*
Y920669D1*
X3085079Y917784D1*
X3082227Y913506D1*
X3067868Y899147D1*
X3087964D1*
X2446247Y1149128D2*
X2444821Y1151980D1*
X2441936Y1154865D1*
X2439084Y1156291D1*
X2433347D1*
X2430462Y1154865D1*
X2427610Y1151980D1*
X2426151Y1149128D1*
X2424725Y1144817D1*
Y1137621D1*
X2426151Y1133343D1*
X2427610Y1130458D1*
X2430462Y1127606D1*
X2433347Y1126147D1*
X2439084D1*
X2441936Y1127606D1*
X2444821Y1130458D1*
X2446247Y1133343D1*
X2458395Y1156258D2*
X2474147D1*
X2465558Y1144784D1*
X2469869D1*
X2472721Y1143358D1*
X2474147Y1141932D1*
X2475606Y1137621D1*
Y1134769D1*
X2474147Y1130458D1*
X2471295Y1127573D1*
X2466984Y1126147D1*
X2462673D1*
X2458395Y1127573D1*
X2456969Y1129032D1*
X2455510Y1131884D1*
X2964534Y1134128D2*
X2963108Y1136980D1*
X2960223Y1139865D1*
X2957371Y1141291D1*
X2951634D1*
X2948749Y1139865D1*
X2945897Y1136980D1*
X2944438Y1134128D1*
X2943012Y1129817D1*
Y1122621D1*
X2944438Y1118343D1*
X2945897Y1115458D1*
X2948749Y1112606D1*
X2951634Y1111147D1*
X2957371D1*
X2960223Y1112606D1*
X2963108Y1115458D1*
X2964534Y1118343D1*
X2988156Y1111147D2*
Y1141258D1*
X2973797Y1121195D1*
X2995319D1*
X3003976Y1035128D2*
X3002550Y1037980D1*
X2999665Y1040865D1*
X2996813Y1042291D1*
X2991076D1*
X2988191Y1040865D1*
X2985339Y1037980D1*
X2983880Y1035128D1*
X2982454Y1030817D1*
Y1023621D1*
X2983880Y1019343D1*
X2985339Y1016458D1*
X2988191Y1013606D1*
X2991076Y1012147D1*
X2996813D1*
X2999665Y1013606D1*
X3002550Y1016458D1*
X3003976Y1019343D1*
X3030451Y1037980D2*
X3029025Y1040832D1*
X3024714Y1042258D1*
X3021862D1*
X3017551Y1040832D1*
X3014666Y1036521D1*
X3013240Y1029358D1*
Y1022195D1*
X3014666Y1016458D1*
X3017551Y1013573D1*
X3021862Y1012147D1*
X3023288D1*
X3027566Y1013573D1*
X3030451Y1016458D1*
X3031877Y1020769D1*
Y1022195D1*
X3030451Y1026506D1*
X3027566Y1029358D1*
X3023288Y1030784D1*
X3021862D1*
X3017551Y1029358D1*
X3014666Y1026506D1*
X3013240Y1022195D1*
X3115806Y1134354D2*
X3097136D1*
Y1104210D1*
Y1119995D2*
X3108610D1*
X3125070Y1128584D2*
X3127955Y1130043D1*
X3132266Y1134321D1*
Y1104210D1*
X3639201Y1045606D2*
Y1022658D1*
X3637775Y1018347D1*
X3636316Y1016921D1*
X3633464Y1015462D1*
X3630579D1*
X3627727Y1016921D1*
X3626301Y1018347D1*
X3624842Y1022658D1*
Y1025510D1*
X3649923Y1038410D2*
Y1039836D1*
X3651349Y1042721D1*
X3652775Y1044147D1*
X3655660Y1045573D1*
X3661397D1*
X3664249Y1044147D1*
X3665675Y1042721D1*
X3667134Y1039836D1*
Y1036984D1*
X3665675Y1034099D1*
X3662823Y1029821D1*
X3648464Y1015462D1*
X3668560D1*
X3395651Y1000606D2*
Y977658D1*
X3394225Y973347D1*
X3392766Y971921D1*
X3389914Y970462D1*
X3387029D1*
X3384177Y971921D1*
X3382751Y973347D1*
X3381292Y977658D1*
Y980510D1*
X3404914Y994836D2*
X3407799Y996295D1*
X3412110Y1000573D1*
Y970462D1*
X1321102Y1060472D2*
X1319676Y1063324D1*
X1316791Y1066209D1*
X1313939Y1067635D1*
X1308203D1*
X1305317Y1066209D1*
X1302466Y1063324D1*
X1301006Y1060472D1*
X1299580Y1056161D1*
Y1048965D1*
X1301006Y1044687D1*
X1302466Y1041802D1*
X1305317Y1038950D1*
X1308203Y1037491D1*
X1313939D1*
X1316791Y1038950D1*
X1319676Y1041802D1*
X1321102Y1044687D1*
Y1048965D1*
X1313939D1*
X1350462Y1067635D2*
Y1037491D1*
X1330366Y1067635D1*
Y1037491D1*
X1359726Y1067635D2*
Y1037491D1*
X1369774D1*
X1374085Y1038950D1*
X1376970Y1041802D1*
X1378396Y1044687D1*
X1379822Y1048965D1*
Y1056161D1*
X1378396Y1060472D1*
X1376970Y1063324D1*
X1374085Y1066209D1*
X1369774Y1067635D1*
X1359726D1*
X2973247Y789128D2*
X2971821Y791980D1*
X2968936Y794865D1*
X2966084Y796291D1*
X2960347D1*
X2957462Y794865D1*
X2954610Y791980D1*
X2953151Y789128D1*
X2951725Y784817D1*
Y777621D1*
X2953151Y773343D1*
X2954610Y770458D1*
X2957462Y767606D1*
X2960347Y766147D1*
X2966084D1*
X2968936Y767606D1*
X2971821Y770458D1*
X2973247Y773343D1*
X2999721Y796258D2*
X2985395D1*
X2983969Y783358D1*
X2985395Y784784D1*
X2989706Y786243D1*
X2993984D1*
X2998295Y784784D1*
X3001180Y781932D1*
X3002606Y777621D1*
Y774769D1*
X3001180Y770458D1*
X2998295Y767573D1*
X2993984Y766147D1*
X2989706D1*
X2985395Y767573D1*
X2983969Y769032D1*
X2982510Y771884D1*
X1814973Y1269635D2*
Y1248113D1*
X1816399Y1243802D1*
X1819284Y1240950D1*
X1823595Y1239491D1*
X1826447D1*
X1830758Y1240950D1*
X1833643Y1243802D1*
X1835069Y1248113D1*
Y1269635D1*
X1845792Y1262439D2*
Y1263865D1*
X1847218Y1266750D1*
X1848644Y1268176D1*
X1851529Y1269602D1*
X1857266D1*
X1860118Y1268176D1*
X1861544Y1266750D1*
X1863003Y1263865D1*
Y1261013D1*
X1861544Y1258128D1*
X1858692Y1253850D1*
X1844333Y1239491D1*
X1864429D1*
X1577657Y1274687D2*
Y1253165D1*
X1579083Y1248854D1*
X1581968Y1246002D1*
X1586279Y1244543D1*
X1589131D1*
X1593442Y1246002D1*
X1596327Y1248854D1*
X1597753Y1253165D1*
Y1274687D1*
X1609902Y1274654D2*
X1625653D1*
X1617065Y1263180D1*
X1621376D1*
X1624227Y1261754D1*
X1625653Y1260328D1*
X1627113Y1256017D1*
Y1253165D1*
X1625653Y1248854D1*
X1622801Y1245969D1*
X1618490Y1244543D1*
X1614179D1*
X1609902Y1245969D1*
X1608476Y1247428D1*
X1607017Y1250280D1*
M02*
