G04 DipTrace 3.0.0.2*
G04 Bottom.gbr*
%MOIN*%
G04 #@! TF.FileFunction,Copper,L2,Bot*
G04 #@! TF.Part,Single*
G04 #@! TA.AperFunction,CopperBalancing*
%ADD13C,0.006*%
G04 #@! TA.AperFunction,Conductor*
%ADD15C,0.012*%
G04 #@! TA.AperFunction,ViaPad*
%ADD17C,0.04*%
G04 #@! TA.AperFunction,ComponentPad*
%ADD21R,0.059055X0.059055*%
%ADD22C,0.059055*%
%ADD29R,0.325X0.325*%
G04 #@! TA.AperFunction,ViaPad*
%ADD38C,0.025*%
%FSLAX26Y26*%
G04*
G70*
G90*
G75*
G01*
G04 Bottom*
%LPD*%
X1538701Y443701D2*
D17*
X1838701Y441701D1*
X538701Y443701D2*
X638701D1*
X3538701Y441701D2*
X3638701D1*
X638701Y443701D2*
X709701Y514701D1*
X1472701D1*
X1543701Y443701D1*
X1538701D1*
X1838701Y441701D2*
X1910701Y513701D1*
X3466701D1*
X3473637Y506765D1*
X3538701Y441701D1*
X3588701Y1193701D2*
Y637701D1*
X3473637Y522637D1*
Y506765D1*
X588701Y1193701D2*
Y635701D1*
X709701Y514701D1*
X1543701Y443701D2*
X1563252Y424150D1*
X2167921Y1028819D1*
X2651921Y919819D2*
X2692803Y960701D1*
X2880701D1*
X2692803D2*
Y967937D1*
X2651921Y1008819D1*
X2960701Y1205701D2*
X3025701Y1140701D1*
X3175701D1*
X3238701Y1203701D1*
X2600701Y1321701D2*
D15*
X2599701Y1322701D1*
X2644701Y1367701D1*
X3274701D1*
X3338701Y1303701D1*
X2625701Y1300701D2*
X2673701Y1348701D1*
X3267701D1*
X3287701Y1328701D1*
Y1254701D1*
X3338701Y1203701D1*
X2503701Y909701D2*
D13*
Y1029701D1*
X2769701Y1009701D2*
D17*
X3130701D1*
X2170921Y1185819D2*
X2178921Y1177819D1*
X2367921D1*
X2426118D1*
X2496395Y1107542D1*
X2671860D1*
X2769701Y1009701D1*
X2496395Y1107542D2*
Y1096395D1*
X2436526Y1036526D1*
Y746995D1*
X2609746D1*
X2656921Y699819D1*
X2154921Y697819D2*
X2387351D1*
X2436526Y746995D1*
X2496395Y1107542D2*
X2363645D1*
X2159921Y903819D1*
D38*
X2600701Y1321701D3*
X2625701Y1300701D3*
X2503701Y909701D3*
Y1029701D3*
D17*
X2769701Y1009701D3*
X3130701D3*
X2769701D3*
X2950701Y960701D3*
X2159921Y903819D3*
X2167921Y1028819D3*
X2656921Y699819D3*
X2651921Y1008819D3*
X2170921Y1185819D3*
X2651921Y919819D3*
X2880701Y960701D3*
X2367921Y1177819D3*
X2154921Y697819D3*
X3304705Y1359832D2*
D13*
X3387107D1*
X3310576Y1353963D2*
X3387107D1*
X3316436Y1348095D2*
X3387107D1*
X3322307Y1342226D2*
X3333774D1*
X3343635D2*
X3387107D1*
X3360193Y1336357D2*
X3387107D1*
X3079301Y1330488D2*
X3110075D1*
X3167327D2*
X3210071D1*
X3367331D2*
X3387107D1*
X3079301Y1324620D2*
X3105458D1*
X3171944D2*
X3205466D1*
X3371936D2*
X3387107D1*
X3079301Y1318751D2*
X3102377D1*
X3175025D2*
X3202373D1*
X3375029D2*
X3387107D1*
X3079301Y1312882D2*
X3100431D1*
X3176971D2*
X3200439D1*
X3376963D2*
X3387107D1*
X3079301Y1307013D2*
X3099470D1*
X3177932D2*
X3199478D1*
X3377924D2*
X3387107D1*
X3079301Y1301145D2*
X3099423D1*
X3177979D2*
X3199419D1*
X3377983D2*
X3387107D1*
X3079301Y1295276D2*
X3100255D1*
X3177147D2*
X3200263D1*
X3377139D2*
X3387107D1*
X3079301Y1289407D2*
X3102061D1*
X3175341D2*
X3202067D1*
X3375335D2*
X3387107D1*
X3079301Y1283538D2*
X3104990D1*
X3172412D2*
X3204986D1*
X3372416D2*
X3387107D1*
X3079301Y1277670D2*
X3109373D1*
X3168029D2*
X3209369D1*
X3268025D2*
X3271877D1*
X3303533D2*
X3309377D1*
X3368033D2*
X3387107D1*
X3079301Y1271801D2*
X3116075D1*
X3161327D2*
X3216071D1*
X3261335D2*
X3271877D1*
X3303533D2*
X3316067D1*
X3361331D2*
X3387107D1*
X3079301Y1265932D2*
X3129365D1*
X3148037D2*
X3229361D1*
X3248045D2*
X3271877D1*
X3303533D2*
X3329357D1*
X3348041D2*
X3387107D1*
X3079301Y1260063D2*
X3271877D1*
X3304471D2*
X3387107D1*
X3079301Y1254194D2*
X3271889D1*
X3310341D2*
X3387107D1*
X3079301Y1248326D2*
X3273271D1*
X3316213D2*
X3387107D1*
X3079301Y1242457D2*
X3099330D1*
X3178072D2*
X3277806D1*
X3322084D2*
X3387107D1*
X3079301Y1236588D2*
X3099330D1*
X3178072D2*
X3217571D1*
X3259823D2*
X3283677D1*
X3359831D2*
X3387107D1*
X3079301Y1230719D2*
X3099330D1*
X3178072D2*
X3210294D1*
X3267100D2*
X3289549D1*
X3367108D2*
X3387107D1*
X3079301Y1224851D2*
X3099330D1*
X3178072D2*
X3205607D1*
X3271788D2*
X3295419D1*
X3371795D2*
X3387107D1*
X3079301Y1218982D2*
X3099330D1*
X3178072D2*
X3202478D1*
X3274928D2*
X3301290D1*
X3374924D2*
X3387107D1*
X3079301Y1213113D2*
X3099330D1*
X3178072D2*
X3200498D1*
X3276908D2*
X3300494D1*
X3376904D2*
X3387107D1*
X3079301Y1207244D2*
X3099330D1*
X3178072D2*
X3199502D1*
X3277904D2*
X3299498D1*
X3377900D2*
X3387107D1*
X3079301Y1201376D2*
X3099330D1*
X3178072D2*
X3199407D1*
X3277999D2*
X3299403D1*
X3377995D2*
X3387107D1*
X3079301Y1195507D2*
X3099330D1*
X3178072D2*
X3200205D1*
X3277189D2*
X3300213D1*
X3377197D2*
X3387107D1*
X3079301Y1189638D2*
X3099330D1*
X3178072D2*
X3201974D1*
X3275432D2*
X3301970D1*
X3375428D2*
X3387107D1*
X3079301Y1183769D2*
X3099330D1*
X3178072D2*
X3204845D1*
X3272549D2*
X3304853D1*
X3372557D2*
X3387107D1*
X3079301Y1177900D2*
X3099330D1*
X3178072D2*
X3209170D1*
X3268236D2*
X3309166D1*
X3368232D2*
X3387107D1*
X3079301Y1172032D2*
X3099330D1*
X3178072D2*
X3215743D1*
X3261663D2*
X3315739D1*
X3361659D2*
X3387107D1*
X3079301Y1166163D2*
X3099330D1*
X3178072D2*
X3228411D1*
X3248983D2*
X3328419D1*
X3348991D2*
X3387107D1*
X3079301Y1160294D2*
X3387107D1*
X3079301Y1154425D2*
X3387107D1*
X3102933Y1242469D2*
X3177469D1*
Y1164933D1*
X3099933D1*
Y1242469D1*
X3102933D1*
X3177352Y1300704D2*
X3177005Y1297725D1*
X3176428Y1294781D1*
X3175626Y1291891D1*
X3174603Y1289072D1*
X3173364Y1286341D1*
X3171919Y1283713D1*
X3170274Y1281205D1*
X3168440Y1278831D1*
X3166429Y1276607D1*
X3164251Y1274545D1*
X3161920Y1272656D1*
X3159452Y1270954D1*
X3156857Y1269448D1*
X3154155Y1268147D1*
X3151360Y1267059D1*
X3148490Y1266189D1*
X3145561Y1265545D1*
X3142591Y1265129D1*
X3139597Y1264944D1*
X3136597Y1264991D1*
X3133612Y1265269D1*
X3130656Y1265777D1*
X3127748Y1266513D1*
X3124906Y1267471D1*
X3122146Y1268646D1*
X3119486Y1270030D1*
X3116941Y1271617D1*
X3114525Y1273395D1*
X3112255Y1275355D1*
X3110142Y1277484D1*
X3108201Y1279771D1*
X3106442Y1282200D1*
X3104877Y1284757D1*
X3103513Y1287429D1*
X3102361Y1290198D1*
X3101425Y1293047D1*
X3100714Y1295961D1*
X3100229Y1298921D1*
X3099975Y1301910D1*
X3099952Y1304908D1*
X3100162Y1307900D1*
X3100601Y1310868D1*
X3101269Y1313792D1*
X3102162Y1316655D1*
X3103273Y1319441D1*
X3104596Y1322133D1*
X3106122Y1324714D1*
X3107844Y1327170D1*
X3109751Y1329486D1*
X3111831Y1331646D1*
X3113887Y1333477D1*
X3078689Y1333461D1*
X3078701Y1151701D1*
X3387701D1*
Y1365701D1*
X3298229D1*
X3324267Y1339689D1*
X3327189Y1340719D1*
X3330086Y1341499D1*
X3333033Y1342053D1*
X3336016Y1342376D1*
X3339013Y1342467D1*
X3342009Y1342327D1*
X3344986Y1341956D1*
X3347924Y1341356D1*
X3350807Y1340530D1*
X3353618Y1339483D1*
X3356340Y1338223D1*
X3358956Y1336756D1*
X3361450Y1335092D1*
X3363809Y1333239D1*
X3366017Y1331210D1*
X3368062Y1329016D1*
X3369932Y1326670D1*
X3371614Y1324187D1*
X3373099Y1321582D1*
X3374378Y1318869D1*
X3375444Y1316065D1*
X3376290Y1313188D1*
X3376911Y1310253D1*
X3377303Y1307280D1*
X3377469Y1303701D1*
X3377352Y1300704D1*
X3377005Y1297725D1*
X3376428Y1294781D1*
X3375626Y1291891D1*
X3374603Y1289072D1*
X3373364Y1286341D1*
X3371919Y1283713D1*
X3370274Y1281205D1*
X3368440Y1278831D1*
X3366429Y1276607D1*
X3364251Y1274545D1*
X3361920Y1272656D1*
X3359452Y1270954D1*
X3356857Y1269448D1*
X3354155Y1268147D1*
X3351360Y1267059D1*
X3348490Y1266189D1*
X3345561Y1265545D1*
X3342591Y1265129D1*
X3339597Y1264944D1*
X3336597Y1264991D1*
X3333612Y1265269D1*
X3330656Y1265777D1*
X3327748Y1266513D1*
X3324906Y1267471D1*
X3322146Y1268646D1*
X3319486Y1270030D1*
X3316941Y1271617D1*
X3314525Y1273395D1*
X3312255Y1275355D1*
X3310142Y1277484D1*
X3308201Y1279771D1*
X3306442Y1282200D1*
X3304877Y1284757D1*
X3303513Y1287429D1*
X3302924Y1288847D1*
X3302941Y1261002D1*
X3324273Y1239681D1*
X3327189Y1240719D1*
X3330086Y1241499D1*
X3333033Y1242053D1*
X3336016Y1242376D1*
X3339013Y1242467D1*
X3342009Y1242327D1*
X3344986Y1241956D1*
X3347924Y1241356D1*
X3350807Y1240530D1*
X3353618Y1239483D1*
X3356340Y1238223D1*
X3358956Y1236756D1*
X3361450Y1235092D1*
X3363809Y1233239D1*
X3366017Y1231210D1*
X3368062Y1229016D1*
X3369932Y1226670D1*
X3371614Y1224187D1*
X3373099Y1221582D1*
X3374378Y1218869D1*
X3375444Y1216065D1*
X3376290Y1213188D1*
X3376911Y1210253D1*
X3377303Y1207280D1*
X3377469Y1203701D1*
X3377352Y1200704D1*
X3377005Y1197725D1*
X3376428Y1194781D1*
X3375626Y1191891D1*
X3374603Y1189072D1*
X3373364Y1186341D1*
X3371919Y1183713D1*
X3370274Y1181205D1*
X3368440Y1178831D1*
X3366429Y1176607D1*
X3364251Y1174545D1*
X3361920Y1172656D1*
X3359452Y1170954D1*
X3356857Y1169448D1*
X3354155Y1168147D1*
X3351360Y1167059D1*
X3348490Y1166189D1*
X3345561Y1165545D1*
X3342591Y1165129D1*
X3339597Y1164944D1*
X3336597Y1164991D1*
X3333612Y1165269D1*
X3330656Y1165777D1*
X3327748Y1166513D1*
X3324906Y1167471D1*
X3322146Y1168646D1*
X3319486Y1170030D1*
X3316941Y1171617D1*
X3314525Y1173395D1*
X3312255Y1175355D1*
X3310142Y1177484D1*
X3308201Y1179771D1*
X3306442Y1182200D1*
X3304877Y1184757D1*
X3303513Y1187429D1*
X3302361Y1190198D1*
X3301425Y1193047D1*
X3300714Y1195961D1*
X3300229Y1198921D1*
X3299975Y1201910D1*
X3299952Y1204908D1*
X3300162Y1207900D1*
X3300601Y1210868D1*
X3301269Y1213792D1*
X3302162Y1216655D1*
X3302747Y1218125D1*
X3276924Y1243924D1*
X3275372Y1245743D1*
X3274122Y1247782D1*
X3273206Y1249991D1*
X3272649Y1252316D1*
X3272461Y1254701D1*
X3272474Y1255033D1*
X3272461Y1284642D1*
X3270274Y1281205D1*
X3268440Y1278831D1*
X3266429Y1276607D1*
X3264251Y1274545D1*
X3261920Y1272656D1*
X3259452Y1270954D1*
X3256857Y1269448D1*
X3254155Y1268147D1*
X3251360Y1267059D1*
X3248490Y1266189D1*
X3245561Y1265545D1*
X3242591Y1265129D1*
X3239597Y1264944D1*
X3236597Y1264991D1*
X3233612Y1265269D1*
X3230656Y1265777D1*
X3227748Y1266513D1*
X3224906Y1267471D1*
X3222146Y1268646D1*
X3219486Y1270030D1*
X3216941Y1271617D1*
X3214525Y1273395D1*
X3212255Y1275355D1*
X3210142Y1277484D1*
X3208201Y1279771D1*
X3206442Y1282200D1*
X3204877Y1284757D1*
X3203513Y1287429D1*
X3202361Y1290198D1*
X3201425Y1293047D1*
X3200714Y1295961D1*
X3200229Y1298921D1*
X3199975Y1301910D1*
X3199952Y1304908D1*
X3200162Y1307900D1*
X3200601Y1310868D1*
X3201269Y1313792D1*
X3202162Y1316655D1*
X3203273Y1319441D1*
X3204596Y1322133D1*
X3206122Y1324714D1*
X3207844Y1327170D1*
X3209751Y1329486D1*
X3211831Y1331646D1*
X3213887Y1333477D1*
X3163557Y1333461D1*
X3166017Y1331210D1*
X3168062Y1329016D1*
X3169932Y1326670D1*
X3171614Y1324187D1*
X3173099Y1321582D1*
X3174378Y1318869D1*
X3175444Y1316065D1*
X3176290Y1313188D1*
X3176911Y1310253D1*
X3177303Y1307280D1*
X3177469Y1303701D1*
X3177352Y1300704D1*
X3277463Y1203101D2*
X3277242Y1199509D1*
X3276687Y1195953D1*
X3275805Y1192465D1*
X3274603Y1189072D1*
X3273092Y1185806D1*
X3271284Y1182694D1*
X3269196Y1179764D1*
X3266845Y1177040D1*
X3264251Y1174545D1*
X3261437Y1172301D1*
X3258428Y1170328D1*
X3255248Y1168642D1*
X3251925Y1167259D1*
X3248490Y1166189D1*
X3244969Y1165444D1*
X3241395Y1165028D1*
X3237797Y1164944D1*
X3234208Y1165194D1*
X3230656Y1165777D1*
X3227173Y1166687D1*
X3223792Y1167915D1*
X3220537Y1169452D1*
X3217440Y1171284D1*
X3214525Y1173395D1*
X3211819Y1175767D1*
X3209345Y1178381D1*
X3207124Y1181211D1*
X3205173Y1184236D1*
X3203513Y1187429D1*
X3202156Y1190763D1*
X3201114Y1194206D1*
X3200395Y1197732D1*
X3200007Y1201311D1*
X3199952Y1204908D1*
X3200231Y1208496D1*
X3200841Y1212044D1*
X3201778Y1215519D1*
X3203033Y1218891D1*
X3204596Y1222133D1*
X3206452Y1225215D1*
X3208586Y1228113D1*
X3210979Y1230801D1*
X3213612Y1233255D1*
X3216460Y1235454D1*
X3219500Y1237379D1*
X3222706Y1239015D1*
X3226049Y1240347D1*
X3229502Y1241361D1*
X3233033Y1242053D1*
X3236614Y1242412D1*
X3240213Y1242439D1*
X3243798Y1242131D1*
X3247340Y1241494D1*
X3250807Y1240530D1*
X3254170Y1239248D1*
X3257399Y1237662D1*
X3260469Y1235781D1*
X3263349Y1233624D1*
X3266017Y1231210D1*
X3268450Y1228558D1*
X3270628Y1225692D1*
X3272529Y1222637D1*
X3274139Y1219419D1*
X3275444Y1216065D1*
X3276432Y1212605D1*
X3277095Y1209067D1*
X3277428Y1205484D1*
X3277463Y1203101D1*
X3238701Y1242457D2*
Y1164945D1*
X3199945Y1203701D2*
X3277457D1*
D21*
X538701Y443701D3*
D22*
X638701D3*
X738701D3*
X838701D3*
X938701D3*
X1038701D3*
X1138701D3*
X1238701D3*
X1338701D3*
X1438701D3*
X1538701D3*
D21*
X1838701Y441701D3*
D22*
X1938701D3*
X2038701D3*
X2138701D3*
X2238701D3*
X2338701D3*
X2438701D3*
X2538701D3*
X2638701D3*
X2738701D3*
X2838701D3*
X2938701D3*
X3038701D3*
X3138701D3*
X3238701D3*
X3338701D3*
X3438701D3*
X3538701D3*
X3638701D3*
D21*
X2960701Y1105701D3*
D22*
X2860701D3*
X2960701Y1205701D3*
X2860701D3*
X2960701Y1305701D3*
X2860701D3*
D21*
X3138701Y1203701D3*
D22*
Y1303701D3*
X3238701Y1203701D3*
Y1303701D3*
X3338701Y1203701D3*
Y1303701D3*
D29*
X3588701Y1193701D3*
X588701D3*
M02*
