G04 DipTrace 3.1.0.1*
G04 Bottom.gbr*
%MOIN*%
G04 #@! TF.FileFunction,Copper,L2,Bot*
G04 #@! TF.Part,Single*
G04 #@! TA.AperFunction,CopperBalancing*
%ADD13C,0.006*%
G04 #@! TA.AperFunction,Conductor*
%ADD15C,0.012*%
G04 #@! TA.AperFunction,ViaPad*
%ADD17C,0.04*%
%ADD19C,0.025*%
G04 #@! TA.AperFunction,ComponentPad*
%ADD29R,0.059055X0.059055*%
%ADD30C,0.059055*%
%ADD37R,0.325X0.325*%
%FSLAX26Y26*%
G04*
G70*
G90*
G75*
G01*
G04 Bottom*
%LPD*%
X1538701Y443701D2*
D17*
X1838701D1*
Y441701D1*
X538701Y443701D2*
X638701D1*
X3538701Y441701D2*
X3638701D1*
X638701Y443701D2*
X709701Y514701D1*
X1472701D1*
X1543701Y443701D1*
X1538701D1*
X1838701Y441701D2*
X1910701Y513701D1*
X3466701D1*
X3473637Y506765D1*
X3538701Y441701D1*
X3588701Y1193701D2*
Y637701D1*
X3473637Y522637D1*
Y506765D1*
X588701Y1193701D2*
Y635701D1*
X709701Y514701D1*
X1543701Y443701D2*
X1531701Y455701D1*
X1594803D1*
X2167921Y1028819D1*
X2651921Y919819D2*
X2690803Y958701D1*
X2880701D1*
X2690803D2*
Y969937D1*
X2651921Y1008819D1*
X2960701Y1205701D2*
X3018701Y1147701D1*
X3363701D1*
X3370701Y1154701D1*
X2600701Y1321701D2*
D15*
X2599701Y1322701D1*
X2644701Y1367701D1*
X3364701D1*
X3396701Y1335701D1*
Y1263701D1*
X3347701Y1214701D1*
Y1197701D1*
X3341701Y1203701D1*
X3338701D1*
X2622701Y1299701D2*
X2623701Y1298701D1*
X2673701Y1348701D1*
X3167701D1*
X3196701Y1319701D1*
Y1242701D1*
X3224701Y1214701D1*
X3237701D1*
Y1204701D1*
X3238701Y1203701D1*
X2503701Y909701D2*
D13*
Y1029701D1*
X2135701Y1242701D2*
D17*
X2200583Y1177819D1*
X2367921D1*
X2616583D1*
X2684860Y1109542D1*
X2772701Y1021701D1*
X3130701D1*
X2684860Y1109542D2*
X2593701D1*
Y818701D1*
X2744701Y667701D1*
X2064701Y669701D2*
X2065701D1*
X2505542Y1109542D1*
X2593701D1*
X2684860D2*
X2365645D1*
X2159921Y903819D1*
D19*
X2600701Y1321701D3*
X2622701Y1299701D3*
X2503701Y909701D3*
Y1029701D3*
D17*
X3130701Y1021701D3*
X2772701D3*
D3*
X2950701Y958701D3*
X2159921Y903819D3*
X2167921Y1028819D3*
X2744701Y667701D3*
X2651921Y1008819D3*
X2135701Y1242701D3*
X2651921Y919819D3*
X2880701Y958701D3*
X2367921Y1177819D3*
X2064701Y669701D3*
X3190460Y1348095D2*
D13*
X3362158D1*
X3196331Y1342226D2*
X3233767D1*
X3243628D2*
X3333774D1*
X3343635D2*
X3368029D1*
X3202201Y1336357D2*
X3217209D1*
X3260197D2*
X3317205D1*
X3360193D2*
X3373889D1*
X3079307Y1330488D2*
X3110075D1*
X3267323D2*
X3310079D1*
X3367331D2*
X3379759D1*
X3079307Y1324620D2*
X3105458D1*
X3271940D2*
X3305462D1*
X3371936D2*
X3380861D1*
X3079307Y1318751D2*
X3102377D1*
X3275033D2*
X3302369D1*
X3375029D2*
X3380861D1*
X3079307Y1312882D2*
X3100431D1*
X3176971D2*
X3180857D1*
X3276967D2*
X3300435D1*
X3376963D2*
X3380861D1*
X3079307Y1307013D2*
X3099470D1*
X3277928D2*
X3299474D1*
X3079307Y1301145D2*
X3099423D1*
X3277987D2*
X3299415D1*
X3079307Y1295276D2*
X3100255D1*
X3177147D2*
X3180857D1*
X3277143D2*
X3300259D1*
X3377139D2*
X3380869D1*
X3079307Y1289407D2*
X3102061D1*
X3175341D2*
X3180857D1*
X3275337D2*
X3302065D1*
X3375335D2*
X3380861D1*
X3079307Y1283538D2*
X3104990D1*
X3172412D2*
X3180857D1*
X3272408D2*
X3304994D1*
X3372416D2*
X3380861D1*
X3079307Y1277670D2*
X3109373D1*
X3168029D2*
X3180857D1*
X3268025D2*
X3309377D1*
X3368033D2*
X3380861D1*
X3079307Y1271801D2*
X3116075D1*
X3161327D2*
X3180857D1*
X3212537D2*
X3216074D1*
X3261335D2*
X3316067D1*
X3361331D2*
X3380861D1*
X3079307Y1265932D2*
X3129365D1*
X3148037D2*
X3180857D1*
X3212537D2*
X3229361D1*
X3248045D2*
X3329357D1*
X3348041D2*
X3376782D1*
X3079307Y1260063D2*
X3180857D1*
X3212537D2*
X3370911D1*
X3079307Y1254194D2*
X3180857D1*
X3212537D2*
X3365041D1*
X3079307Y1248326D2*
X3180857D1*
X3213229D2*
X3359170D1*
X3079307Y1242457D2*
X3099330D1*
X3219100D2*
X3353310D1*
X3079307Y1236588D2*
X3099330D1*
X3178072D2*
X3182146D1*
X3259823D2*
X3317579D1*
X3079307Y1230719D2*
X3099330D1*
X3178072D2*
X3186529D1*
X3267100D2*
X3310302D1*
X3079307Y1224851D2*
X3099330D1*
X3178072D2*
X3192400D1*
X3271788D2*
X3305614D1*
X3379999D2*
X3387095D1*
X3079307Y1218982D2*
X3099330D1*
X3178072D2*
X3198271D1*
X3274928D2*
X3302474D1*
X3374936D2*
X3387095D1*
X3079307Y1213113D2*
X3099330D1*
X3178072D2*
X3200498D1*
X3276908D2*
X3300494D1*
X3376904D2*
X3387095D1*
X3079307Y1207244D2*
X3099330D1*
X3178072D2*
X3199502D1*
X3277904D2*
X3299498D1*
X3377900D2*
X3387095D1*
X3079307Y1201376D2*
X3099330D1*
X3178072D2*
X3199407D1*
X3277999D2*
X3299403D1*
X3377995D2*
X3387095D1*
X3079307Y1195507D2*
X3099330D1*
X3178072D2*
X3200205D1*
X3277189D2*
X3300213D1*
X3377197D2*
X3387095D1*
X3079307Y1189638D2*
X3099330D1*
X3178072D2*
X3201974D1*
X3275432D2*
X3301970D1*
X3375428D2*
X3387095D1*
X3079307Y1183769D2*
X3099330D1*
X3178072D2*
X3204845D1*
X3272549D2*
X3304853D1*
X3372557D2*
X3387095D1*
X3079307Y1177900D2*
X3099330D1*
X3178072D2*
X3209170D1*
X3268236D2*
X3309166D1*
X3368232D2*
X3387095D1*
X3079307Y1172032D2*
X3099330D1*
X3178072D2*
X3215743D1*
X3261663D2*
X3315739D1*
X3361659D2*
X3387095D1*
X3079307Y1166163D2*
X3099330D1*
X3178072D2*
X3228411D1*
X3248983D2*
X3328419D1*
X3348991D2*
X3387095D1*
X3079307Y1160294D2*
X3387095D1*
X3079307Y1154425D2*
X3387095D1*
X3102933Y1242469D2*
X3177469D1*
Y1164933D1*
X3099933D1*
Y1242469D1*
X3102933D1*
X3177352Y1300704D2*
X3177005Y1297725D1*
X3176428Y1294781D1*
X3175626Y1291891D1*
X3174603Y1289072D1*
X3173364Y1286341D1*
X3171919Y1283713D1*
X3170274Y1281205D1*
X3168440Y1278831D1*
X3166429Y1276607D1*
X3164251Y1274545D1*
X3161920Y1272656D1*
X3159452Y1270954D1*
X3156857Y1269448D1*
X3154155Y1268147D1*
X3151360Y1267059D1*
X3148490Y1266189D1*
X3145561Y1265545D1*
X3142591Y1265129D1*
X3139597Y1264944D1*
X3136597Y1264991D1*
X3133612Y1265269D1*
X3130656Y1265777D1*
X3127748Y1266513D1*
X3124906Y1267471D1*
X3122146Y1268646D1*
X3119486Y1270030D1*
X3116941Y1271617D1*
X3114525Y1273395D1*
X3112255Y1275355D1*
X3110142Y1277484D1*
X3108201Y1279771D1*
X3106442Y1282200D1*
X3104877Y1284757D1*
X3103513Y1287429D1*
X3102361Y1290198D1*
X3101425Y1293047D1*
X3100714Y1295961D1*
X3100229Y1298921D1*
X3099975Y1301910D1*
X3099952Y1304908D1*
X3100162Y1307900D1*
X3100601Y1310868D1*
X3101269Y1313792D1*
X3102162Y1316655D1*
X3103273Y1319441D1*
X3104596Y1322133D1*
X3106122Y1324714D1*
X3107844Y1327170D1*
X3109751Y1329486D1*
X3111831Y1331646D1*
X3113870Y1333461D1*
X3078697D1*
X3078701Y1151705D1*
X3387689Y1151701D1*
X3387701Y1233158D1*
X3374091Y1219538D1*
X3375444Y1216065D1*
X3376290Y1213188D1*
X3376911Y1210253D1*
X3377303Y1207280D1*
X3377469Y1203701D1*
X3377352Y1200704D1*
X3377005Y1197725D1*
X3376428Y1194781D1*
X3375626Y1191891D1*
X3374603Y1189072D1*
X3373364Y1186341D1*
X3371919Y1183713D1*
X3370274Y1181205D1*
X3368440Y1178831D1*
X3366429Y1176607D1*
X3364251Y1174545D1*
X3361920Y1172656D1*
X3359452Y1170954D1*
X3356857Y1169448D1*
X3354155Y1168147D1*
X3351360Y1167059D1*
X3348490Y1166189D1*
X3345561Y1165545D1*
X3342591Y1165129D1*
X3339597Y1164944D1*
X3336597Y1164991D1*
X3333612Y1165269D1*
X3330656Y1165777D1*
X3327748Y1166513D1*
X3324906Y1167471D1*
X3322146Y1168646D1*
X3319486Y1170030D1*
X3316941Y1171617D1*
X3314525Y1173395D1*
X3312255Y1175355D1*
X3310142Y1177484D1*
X3308201Y1179771D1*
X3306442Y1182200D1*
X3304877Y1184757D1*
X3303513Y1187429D1*
X3302361Y1190198D1*
X3301425Y1193047D1*
X3300714Y1195961D1*
X3300229Y1198921D1*
X3299975Y1201910D1*
X3299952Y1204908D1*
X3300162Y1207900D1*
X3300601Y1210868D1*
X3301269Y1213792D1*
X3302162Y1216655D1*
X3303273Y1219441D1*
X3304596Y1222133D1*
X3306122Y1224714D1*
X3307844Y1227170D1*
X3309751Y1229486D1*
X3311831Y1231646D1*
X3314071Y1233639D1*
X3316460Y1235454D1*
X3318981Y1237079D1*
X3321621Y1238503D1*
X3324362Y1239719D1*
X3327189Y1240719D1*
X3330086Y1241499D1*
X3333033Y1242053D1*
X3336016Y1242376D1*
X3339013Y1242467D1*
X3342009Y1242327D1*
X3344986Y1241956D1*
X3347924Y1241356D1*
X3351652Y1240215D1*
X3381463Y1270017D1*
X3381461Y1329385D1*
X3358389Y1352461D1*
X3185486D1*
X3208290Y1329599D1*
X3209033Y1328655D1*
X3211831Y1331646D1*
X3214071Y1333639D1*
X3216460Y1335454D1*
X3218981Y1337079D1*
X3221621Y1338503D1*
X3224362Y1339719D1*
X3227189Y1340719D1*
X3230086Y1341499D1*
X3233033Y1342053D1*
X3236016Y1342376D1*
X3239013Y1342467D1*
X3242009Y1342327D1*
X3244986Y1341956D1*
X3247924Y1341356D1*
X3250807Y1340530D1*
X3253618Y1339483D1*
X3256340Y1338223D1*
X3258956Y1336756D1*
X3261450Y1335092D1*
X3263809Y1333239D1*
X3266017Y1331210D1*
X3268062Y1329016D1*
X3269932Y1326670D1*
X3271614Y1324187D1*
X3273099Y1321582D1*
X3274378Y1318869D1*
X3275444Y1316065D1*
X3276290Y1313188D1*
X3276911Y1310253D1*
X3277303Y1307280D1*
X3277469Y1303701D1*
X3277352Y1300704D1*
X3277005Y1297725D1*
X3276428Y1294781D1*
X3275626Y1291891D1*
X3274603Y1289072D1*
X3273364Y1286341D1*
X3271919Y1283713D1*
X3270274Y1281205D1*
X3268440Y1278831D1*
X3266429Y1276607D1*
X3264251Y1274545D1*
X3261920Y1272656D1*
X3259452Y1270954D1*
X3256857Y1269448D1*
X3254155Y1268147D1*
X3251360Y1267059D1*
X3248490Y1266189D1*
X3245561Y1265545D1*
X3242591Y1265129D1*
X3239597Y1264944D1*
X3236597Y1264991D1*
X3233612Y1265269D1*
X3230656Y1265777D1*
X3227748Y1266513D1*
X3224906Y1267471D1*
X3222146Y1268646D1*
X3219486Y1270030D1*
X3216941Y1271617D1*
X3214525Y1273395D1*
X3211933Y1275679D1*
X3211941Y1249025D1*
X3222185Y1238769D1*
X3224362Y1239719D1*
X3227189Y1240719D1*
X3230086Y1241499D1*
X3233033Y1242053D1*
X3236016Y1242376D1*
X3239013Y1242467D1*
X3242009Y1242327D1*
X3244986Y1241956D1*
X3247924Y1241356D1*
X3250807Y1240530D1*
X3253618Y1239483D1*
X3256340Y1238223D1*
X3258956Y1236756D1*
X3261450Y1235092D1*
X3263809Y1233239D1*
X3266017Y1231210D1*
X3268062Y1229016D1*
X3269932Y1226670D1*
X3271614Y1224187D1*
X3273099Y1221582D1*
X3274378Y1218869D1*
X3275444Y1216065D1*
X3276290Y1213188D1*
X3276911Y1210253D1*
X3277303Y1207280D1*
X3277469Y1203701D1*
X3277352Y1200704D1*
X3277005Y1197725D1*
X3276428Y1194781D1*
X3275626Y1191891D1*
X3274603Y1189072D1*
X3273364Y1186341D1*
X3271919Y1183713D1*
X3270274Y1181205D1*
X3268440Y1178831D1*
X3266429Y1176607D1*
X3264251Y1174545D1*
X3261920Y1172656D1*
X3259452Y1170954D1*
X3256857Y1169448D1*
X3254155Y1168147D1*
X3251360Y1167059D1*
X3248490Y1166189D1*
X3245561Y1165545D1*
X3242591Y1165129D1*
X3239597Y1164944D1*
X3236597Y1164991D1*
X3233612Y1165269D1*
X3230656Y1165777D1*
X3227748Y1166513D1*
X3224906Y1167471D1*
X3222146Y1168646D1*
X3219486Y1170030D1*
X3216941Y1171617D1*
X3214525Y1173395D1*
X3212255Y1175355D1*
X3210142Y1177484D1*
X3208201Y1179771D1*
X3206442Y1182200D1*
X3204877Y1184757D1*
X3203513Y1187429D1*
X3202361Y1190198D1*
X3201425Y1193047D1*
X3200714Y1195961D1*
X3200229Y1198921D1*
X3199975Y1201910D1*
X3199952Y1204908D1*
X3200162Y1207900D1*
X3200601Y1210868D1*
X3201269Y1213792D1*
X3201936Y1215928D1*
X3185112Y1232803D1*
X3183706Y1234738D1*
X3182621Y1236869D1*
X3181882Y1239143D1*
X3181508Y1241505D1*
X3181461Y1251701D1*
Y1313377D1*
X3172907Y1321942D1*
X3174378Y1318869D1*
X3175444Y1316065D1*
X3176290Y1313188D1*
X3176911Y1310253D1*
X3177303Y1307280D1*
X3177469Y1303701D1*
X3177352Y1300704D1*
X3377463Y1303101D2*
X3377242Y1299509D1*
X3376687Y1295953D1*
X3375805Y1292465D1*
X3374603Y1289072D1*
X3373092Y1285806D1*
X3371284Y1282694D1*
X3369196Y1279764D1*
X3366845Y1277040D1*
X3364251Y1274545D1*
X3361437Y1272301D1*
X3358428Y1270328D1*
X3355248Y1268642D1*
X3351925Y1267259D1*
X3348490Y1266189D1*
X3344969Y1265444D1*
X3341395Y1265028D1*
X3337797Y1264944D1*
X3334208Y1265194D1*
X3330656Y1265777D1*
X3327173Y1266687D1*
X3323792Y1267915D1*
X3320537Y1269452D1*
X3317440Y1271284D1*
X3314525Y1273395D1*
X3311819Y1275767D1*
X3309345Y1278381D1*
X3307124Y1281211D1*
X3305173Y1284236D1*
X3303513Y1287429D1*
X3302156Y1290763D1*
X3301114Y1294206D1*
X3300395Y1297732D1*
X3300007Y1301311D1*
X3299952Y1304908D1*
X3300231Y1308496D1*
X3300841Y1312044D1*
X3301778Y1315519D1*
X3303033Y1318891D1*
X3304596Y1322133D1*
X3306452Y1325215D1*
X3308586Y1328113D1*
X3310979Y1330801D1*
X3313612Y1333255D1*
X3316460Y1335454D1*
X3319500Y1337379D1*
X3322706Y1339015D1*
X3326049Y1340347D1*
X3329502Y1341361D1*
X3333033Y1342053D1*
X3336614Y1342412D1*
X3340213Y1342439D1*
X3343798Y1342131D1*
X3347340Y1341494D1*
X3350807Y1340530D1*
X3354170Y1339248D1*
X3357399Y1337662D1*
X3360469Y1335781D1*
X3363349Y1333624D1*
X3366017Y1331210D1*
X3368450Y1328558D1*
X3370628Y1325692D1*
X3372529Y1322637D1*
X3374139Y1319419D1*
X3375444Y1316065D1*
X3376432Y1312605D1*
X3377095Y1309067D1*
X3377428Y1305484D1*
X3377463Y1303101D1*
X3338701Y1342457D2*
Y1264945D1*
X3299945Y1303701D2*
X3377457D1*
X2623537Y1023832D2*
X2728614D1*
X2623537Y1017963D2*
X2734486D1*
X2623537Y1012095D2*
X2740357D1*
X2623537Y1006226D2*
X2746229D1*
X2623537Y1000357D2*
X2752110D1*
X2623537Y994488D2*
X2761403D1*
X2623537Y988620D2*
X2975095D1*
X2623537Y982751D2*
X2975095D1*
X2623537Y976882D2*
X2975095D1*
X2623537Y971013D2*
X2975095D1*
X2623537Y965145D2*
X2975095D1*
X2623537Y959276D2*
X2975095D1*
X2623537Y953407D2*
X2975095D1*
X2623537Y947538D2*
X2975095D1*
X2623537Y941670D2*
X2975095D1*
X2623537Y935801D2*
X2975095D1*
X2623537Y929932D2*
X2975095D1*
X2623537Y924063D2*
X2975095D1*
X2623537Y918194D2*
X2975095D1*
X2623537Y912326D2*
X2975095D1*
X2623537Y906457D2*
X2975095D1*
X2623537Y900588D2*
X2975095D1*
X2623537Y894719D2*
X2975095D1*
X2623537Y888851D2*
X2975095D1*
X2623537Y882982D2*
X2975095D1*
X2623537Y877113D2*
X2975095D1*
X2623537Y871244D2*
X2975095D1*
X2623537Y865376D2*
X2975095D1*
X2623537Y859507D2*
X2975095D1*
X2623537Y853638D2*
X2975095D1*
X2623537Y847769D2*
X2975095D1*
X2623537Y841900D2*
X2975095D1*
X2623537Y836032D2*
X2975095D1*
X2624193Y830163D2*
X2975095D1*
X2630065Y824294D2*
X2975095D1*
X2635924Y818425D2*
X2975095D1*
X2641795Y812557D2*
X2975095D1*
X2647667Y806688D2*
X2975095D1*
X2653537Y800819D2*
X2975095D1*
X2752017Y1001033D2*
X2723345Y1029705D1*
X2626790Y1029701D1*
X2622935Y1029474D1*
X2622941Y830811D1*
X2658816Y794937D1*
X2975701Y796701D1*
Y992462D1*
X2772701Y992461D1*
X2770407Y992551D1*
X2768128Y992820D1*
X2765876Y993269D1*
X2763666Y993893D1*
X2761511Y994687D1*
X2759427Y995649D1*
X2757423Y996769D1*
X2755515Y998045D1*
X2753711Y999466D1*
X2752019Y1001032D1*
D29*
X538701Y443701D3*
D30*
X638701D3*
X738701D3*
X838701D3*
X938701D3*
X1038701D3*
X1138701D3*
X1238701D3*
X1338701D3*
X1438701D3*
X1538701D3*
D29*
X1838701Y441701D3*
D30*
X1938701D3*
X2038701D3*
X2138701D3*
X2238701D3*
X2338701D3*
X2438701D3*
X2538701D3*
X2638701D3*
X2738701D3*
X2838701D3*
X2938701D3*
X3038701D3*
X3138701D3*
X3238701D3*
X3338701D3*
X3438701D3*
X3538701D3*
X3638701D3*
D29*
X2960701Y1105701D3*
D30*
X2860701D3*
X2960701Y1205701D3*
X2860701D3*
X2960701Y1305701D3*
X2860701D3*
D29*
X3138701Y1203701D3*
D30*
Y1303701D3*
X3238701Y1203701D3*
Y1303701D3*
X3338701Y1203701D3*
Y1303701D3*
D37*
X3588701Y1193701D3*
X588701D3*
M02*
