M48
INCH
T01C0.013
T02C0.02
T03C0.0354
T04C0.15
%
T03
X+005387Y+004437
X+006387Y+004437
X+007387Y+004437
X+008387Y+004437
X+009387Y+004437
X+010387Y+004437
X+011387Y+004437
X+012387Y+004437
X+013387Y+004437
X+014387Y+004437
X+015387Y+004437
X+018387Y+004417
X+019387Y+004417
X+020387Y+004417
X+021387Y+004417
X+022387Y+004417
X+023387Y+004417
X+024387Y+004417
X+025387Y+004417
X+026387Y+004417
X+027387Y+004417
X+028387Y+004417
X+029387Y+004417
X+030387Y+004417
X+031387Y+004417
X+032387Y+004417
X+033387Y+004417
X+034387Y+004417
X+035387Y+004417
X+036387Y+004417
X+029607Y+011057
X+028607Y+011057
X+029607Y+012057
X+028607Y+012057
X+029607Y+013057
X+028607Y+013057
X+031387Y+012037
X+031387Y+013037
X+032387Y+012037
X+032387Y+013037
X+033387Y+012037
X+033387Y+013037
T02
X+028627Y+009577
X+020559Y+009038
X+020639Y+010288
X+026407Y+006677
X+025479Y+010088
X+020317Y+012427
X+025479Y+009198
X+027917Y+009577
X+022639Y+011778
X+019607Y+006697
T04
X+035887Y+011937
X+005887Y+011937
T01
X+024967Y+013217
X+025187Y+012997
X+024007Y+009097
X+024007Y+010307
T02
X+031357Y+010377
X+027027Y+010977
T00
M30
