G04 DipTrace 3.1.0.1*
G04 TopSilk.gbr*
%MOIN*%
G04 #@! TF.FileFunction,Legend,Top*
G04 #@! TF.Part,Single*
%ADD10C,0.009843*%
%ADD34C,0.035008*%
%ADD79C,0.004632*%
%FSLAX26Y26*%
G04*
G70*
G90*
G75*
G01*
G04 TopSilk*
%LPD*%
X1588701Y393701D2*
D10*
Y493701D1*
X488701Y393701D2*
X1588701D1*
X488701D2*
Y493701D1*
X563501D1*
X1588701D1*
X3314401Y491701D2*
X3322001D1*
X1862801D2*
X3688701D1*
X1788701D2*
X1862801D1*
X1788701Y391701D2*
Y491701D1*
Y391701D2*
X3688701D1*
Y491701D1*
X3092973Y955484D2*
X3124457D1*
X3092973Y1053918D2*
X3124457D1*
X3010701Y1164001D2*
Y1355701D1*
Y1055701D2*
Y1355701D1*
X2810701Y1055701D2*
Y1355701D1*
X3010701Y1055701D2*
X2810701D1*
X3010701Y1355701D2*
X2810701D1*
X3197001Y1153701D2*
X3388701D1*
X3088701D2*
X3388701D1*
X3088701Y1353701D2*
X3388701D1*
X3088701Y1153701D2*
Y1353701D1*
X3388701Y1153701D2*
Y1353701D1*
D34*
X2135408Y632338D3*
X1620201Y456635D2*
D79*
Y433687D1*
X1618775Y429376D1*
X1617316Y427950D1*
X1614464Y426491D1*
X1611579D1*
X1608727Y427950D1*
X1607301Y429376D1*
X1605842Y433687D1*
Y436539D1*
X1632349Y456602D2*
X1648101D1*
X1639512Y445128D1*
X1643823D1*
X1646675Y443702D1*
X1648101Y442276D1*
X1649560Y437965D1*
Y435113D1*
X1648101Y430802D1*
X1645249Y427917D1*
X1640938Y426491D1*
X1636627D1*
X1632349Y427917D1*
X1630923Y429376D1*
X1629464Y432228D1*
X1747488Y456635D2*
Y433687D1*
X1746062Y429376D1*
X1744603Y427950D1*
X1741751Y426491D1*
X1738866D1*
X1736014Y427950D1*
X1734588Y429376D1*
X1733129Y433687D1*
Y436539D1*
X1771110Y426491D2*
Y456602D1*
X1756751Y436539D1*
X1778273D1*
X2488453Y1326275D2*
X2487027Y1329127D1*
X2484142Y1332012D1*
X2481290Y1333438D1*
X2475553D1*
X2472668Y1332012D1*
X2469816Y1329127D1*
X2468357Y1326275D1*
X2466931Y1321964D1*
Y1314768D1*
X2468357Y1310490D1*
X2469816Y1307605D1*
X2472668Y1304753D1*
X2475553Y1303294D1*
X2481290D1*
X2484142Y1304753D1*
X2487027Y1307605D1*
X2488453Y1310490D1*
X2497716Y1327668D2*
X2500601Y1329127D1*
X2504912Y1333405D1*
Y1303294D1*
X1964245Y941247D2*
X1961393Y939821D1*
X1958508Y936936D1*
X1957082Y934084D1*
Y928347D1*
X1958508Y925462D1*
X1961393Y922610D1*
X1964245Y921151D1*
X1968556Y919725D1*
X1975752D1*
X1980030Y921151D1*
X1982915Y922610D1*
X1985767Y925462D1*
X1987226Y928347D1*
Y934084D1*
X1985767Y936936D1*
X1982915Y939821D1*
X1980030Y941247D1*
X1964278Y951970D2*
X1962852D1*
X1959967Y953395D1*
X1958541Y954821D1*
X1957115Y957706D1*
Y963443D1*
X1958541Y966295D1*
X1959967Y967721D1*
X1962852Y969180D1*
X1965704D1*
X1968589Y967721D1*
X1972867Y964869D1*
X1987226Y950510D1*
Y970606D1*
X2127538Y1332275D2*
X2126112Y1335127D1*
X2123227Y1338012D1*
X2120375Y1339438D1*
X2114638D1*
X2111753Y1338012D1*
X2108901Y1335127D1*
X2107442Y1332275D1*
X2106016Y1327964D1*
Y1320768D1*
X2107442Y1316490D1*
X2108901Y1313605D1*
X2111753Y1310753D1*
X2114638Y1309294D1*
X2120375D1*
X2123227Y1310753D1*
X2126112Y1313605D1*
X2127538Y1316490D1*
X2139687Y1339405D2*
X2155439D1*
X2146850Y1327931D1*
X2151161D1*
X2154013Y1326505D1*
X2155439Y1325079D1*
X2156898Y1320768D1*
Y1317916D1*
X2155439Y1313605D1*
X2152587Y1310720D1*
X2148276Y1309294D1*
X2143965D1*
X2139687Y1310720D1*
X2138261Y1312179D1*
X2136802Y1315031D1*
X2913290Y938275D2*
X2911864Y941127D1*
X2908979Y944012D1*
X2906127Y945438D1*
X2900390D1*
X2897505Y944012D1*
X2894653Y941127D1*
X2893194Y938275D1*
X2891768Y933964D1*
Y926768D1*
X2893194Y922490D1*
X2894653Y919605D1*
X2897505Y916753D1*
X2900390Y915294D1*
X2906127D1*
X2908979Y916753D1*
X2911864Y919605D1*
X2913290Y922490D1*
X2936912Y915294D2*
Y945405D1*
X2922553Y925342D1*
X2944075D1*
X2911003Y987275D2*
X2909577Y990127D1*
X2906692Y993012D1*
X2903840Y994438D1*
X2898103D1*
X2895218Y993012D1*
X2892366Y990127D1*
X2890907Y987275D1*
X2889481Y982964D1*
Y975768D1*
X2890907Y971490D1*
X2892366Y968605D1*
X2895218Y965753D1*
X2898103Y964294D1*
X2903840D1*
X2906692Y965753D1*
X2909577Y968605D1*
X2911003Y971490D1*
X2937477Y994405D2*
X2923151D1*
X2921725Y981505D1*
X2923151Y982931D1*
X2927462Y984390D1*
X2931740D1*
X2936051Y982931D1*
X2938936Y980079D1*
X2940362Y975768D1*
Y972916D1*
X2938936Y968605D1*
X2936051Y965720D1*
X2931740Y964294D1*
X2927462D1*
X2923151Y965720D1*
X2921725Y967179D1*
X2920266Y970031D1*
X3037245Y1242047D2*
X3034393Y1240621D1*
X3031508Y1237736D1*
X3030082Y1234884D1*
Y1229147D1*
X3031508Y1226262D1*
X3034393Y1223410D1*
X3037245Y1221951D1*
X3041556Y1220525D1*
X3048752D1*
X3053030Y1221951D1*
X3055915Y1223410D1*
X3058767Y1226262D1*
X3060226Y1229147D1*
Y1234884D1*
X3058767Y1237736D1*
X3055915Y1240621D1*
X3053030Y1242047D1*
X3034393Y1268522D2*
X3031541Y1267096D1*
X3030115Y1262785D1*
Y1259933D1*
X3031541Y1255622D1*
X3035852Y1252737D1*
X3043015Y1251311D1*
X3050178D1*
X3055915Y1252737D1*
X3058800Y1255622D1*
X3060226Y1259933D1*
Y1261359D1*
X3058800Y1265637D1*
X3055915Y1268522D1*
X3051604Y1269948D1*
X3050178D1*
X3045867Y1268522D1*
X3043015Y1265637D1*
X3041589Y1261359D1*
Y1259933D1*
X3043015Y1255622D1*
X3045867Y1252737D1*
X3050178Y1251311D1*
X3109861Y935784D2*
X3091191D1*
Y905640D1*
Y921425D2*
X3102665D1*
X3119125Y930014D2*
X3122010Y931473D1*
X3126321Y935751D1*
Y905640D1*
X2777651Y1281635D2*
Y1258687D1*
X2776225Y1254376D1*
X2774766Y1252950D1*
X2771914Y1251491D1*
X2769029D1*
X2766177Y1252950D1*
X2764751Y1254376D1*
X2763292Y1258687D1*
Y1261539D1*
X2786914Y1275865D2*
X2789799Y1277324D1*
X2794110Y1281602D1*
Y1251491D1*
X3270201Y1140635D2*
Y1117687D1*
X3268775Y1113376D1*
X3267316Y1111950D1*
X3264464Y1110491D1*
X3261579D1*
X3258727Y1111950D1*
X3257301Y1113376D1*
X3255842Y1117687D1*
Y1120539D1*
X3280923Y1133439D2*
Y1134865D1*
X3282349Y1137750D1*
X3283775Y1139176D1*
X3286660Y1140602D1*
X3292397D1*
X3295249Y1139176D1*
X3296675Y1137750D1*
X3298134Y1134865D1*
Y1132013D1*
X3296675Y1129128D1*
X3293823Y1124850D1*
X3279464Y1110491D1*
X3299560D1*
X2892644Y830079D2*
X2905544D1*
X2909855Y831538D1*
X2911314Y832964D1*
X2912740Y835816D1*
Y838701D1*
X2911314Y841553D1*
X2909855Y843012D1*
X2905544Y844438D1*
X2892644D1*
Y814294D1*
X2902692Y830079D2*
X2912740Y814294D1*
X2922003Y838668D2*
X2924888Y840127D1*
X2929199Y844405D1*
Y814294D1*
X2891194Y881079D2*
X2904094D1*
X2908405Y882538D1*
X2909864Y883964D1*
X2911290Y886816D1*
Y889701D1*
X2909864Y892553D1*
X2908405Y894012D1*
X2904094Y895438D1*
X2891194D1*
Y865294D1*
X2901242Y881079D2*
X2911290Y865294D1*
X2922012Y888242D2*
Y889668D1*
X2923438Y892553D1*
X2924864Y893979D1*
X2927749Y895405D1*
X2933486D1*
X2936338Y893979D1*
X2937764Y892553D1*
X2939223Y889668D1*
Y886816D1*
X2937764Y883931D1*
X2934912Y879653D1*
X2920553Y865294D1*
X2940649D1*
X2020644Y757367D2*
Y735845D1*
X2022070Y731534D1*
X2024955Y728682D1*
X2029266Y727223D1*
X2032118D1*
X2036429Y728682D1*
X2039314Y731534D1*
X2040740Y735845D1*
Y757367D1*
X2050003Y751597D2*
X2052888Y753056D1*
X2057199Y757334D1*
Y727223D1*
M02*
