G04 DipTrace 3.1.0.1*
G04 TopSilk.gbr*
%MOIN*%
G04 #@! TF.FileFunction,Legend,Top*
G04 #@! TF.Part,Single*
%ADD10C,0.009843*%
%ADD26C,0.035008*%
%ADD79C,0.004632*%
%FSLAX26Y26*%
G04*
G70*
G90*
G75*
G01*
G04 TopSilk*
%LPD*%
X1588701Y393701D2*
D10*
Y493701D1*
X488701Y393701D2*
X1588701D1*
X488701D2*
Y493701D1*
X563501D1*
X1588701D1*
X3314401Y491701D2*
X3322001D1*
X1862801D2*
X3688701D1*
X1788701D2*
X1862801D1*
X1788701Y391701D2*
Y491701D1*
Y391701D2*
X3688701D1*
Y491701D1*
X3092973Y955484D2*
X3124457D1*
X3092973Y1053918D2*
X3124457D1*
X3010701Y1164001D2*
Y1355701D1*
Y1055701D2*
Y1355701D1*
X2810701Y1055701D2*
Y1355701D1*
X3010701Y1055701D2*
X2810701D1*
X3010701Y1355701D2*
X2810701D1*
X3197001Y1153701D2*
X3388701D1*
X3088701D2*
X3388701D1*
X3088701Y1353701D2*
X3388701D1*
X3088701Y1153701D2*
Y1353701D1*
X3388701Y1153701D2*
Y1353701D1*
D26*
X2031408Y632338D3*
X1620201Y456635D2*
D79*
Y433687D1*
X1618775Y429376D1*
X1617316Y427950D1*
X1614464Y426491D1*
X1611579D1*
X1608727Y427950D1*
X1607301Y429376D1*
X1605842Y433687D1*
Y436539D1*
X1632349Y456602D2*
X1648101D1*
X1639512Y445128D1*
X1643823D1*
X1646675Y443702D1*
X1648101Y442276D1*
X1649560Y437965D1*
Y435113D1*
X1648101Y430802D1*
X1645249Y427917D1*
X1640938Y426491D1*
X1636627D1*
X1632349Y427917D1*
X1630923Y429376D1*
X1629464Y432228D1*
X1747488Y456635D2*
Y433687D1*
X1746062Y429376D1*
X1744603Y427950D1*
X1741751Y426491D1*
X1738866D1*
X1736014Y427950D1*
X1734588Y429376D1*
X1733129Y433687D1*
Y436539D1*
X1771110Y426491D2*
Y456602D1*
X1756751Y436539D1*
X1778273D1*
X2384453Y1326275D2*
X2383027Y1329127D1*
X2380142Y1332012D1*
X2377290Y1333438D1*
X2371553D1*
X2368668Y1332012D1*
X2365816Y1329127D1*
X2364357Y1326275D1*
X2362931Y1321964D1*
Y1314768D1*
X2364357Y1310490D1*
X2365816Y1307605D1*
X2368668Y1304753D1*
X2371553Y1303294D1*
X2377290D1*
X2380142Y1304753D1*
X2383027Y1307605D1*
X2384453Y1310490D1*
X2393716Y1327668D2*
X2396601Y1329127D1*
X2400912Y1333405D1*
Y1303294D1*
X1860245Y941247D2*
X1857393Y939821D1*
X1854508Y936936D1*
X1853082Y934084D1*
Y928347D1*
X1854508Y925462D1*
X1857393Y922610D1*
X1860245Y921151D1*
X1864556Y919725D1*
X1871752D1*
X1876030Y921151D1*
X1878915Y922610D1*
X1881767Y925462D1*
X1883226Y928347D1*
Y934084D1*
X1881767Y936936D1*
X1878915Y939821D1*
X1876030Y941247D1*
X1860278Y951970D2*
X1858852D1*
X1855967Y953395D1*
X1854541Y954821D1*
X1853115Y957706D1*
Y963443D1*
X1854541Y966295D1*
X1855967Y967721D1*
X1858852Y969180D1*
X1861704D1*
X1864589Y967721D1*
X1868867Y964869D1*
X1883226Y950510D1*
Y970606D1*
X2023538Y1332275D2*
X2022112Y1335127D1*
X2019227Y1338012D1*
X2016375Y1339438D1*
X2010638D1*
X2007753Y1338012D1*
X2004901Y1335127D1*
X2003442Y1332275D1*
X2002016Y1327964D1*
Y1320768D1*
X2003442Y1316490D1*
X2004901Y1313605D1*
X2007753Y1310753D1*
X2010638Y1309294D1*
X2016375D1*
X2019227Y1310753D1*
X2022112Y1313605D1*
X2023538Y1316490D1*
X2035687Y1339405D2*
X2051439D1*
X2042850Y1327931D1*
X2047161D1*
X2050013Y1326505D1*
X2051439Y1325079D1*
X2052898Y1320768D1*
Y1317916D1*
X2051439Y1313605D1*
X2048587Y1310720D1*
X2044276Y1309294D1*
X2039965D1*
X2035687Y1310720D1*
X2034261Y1312179D1*
X2032802Y1315031D1*
X2822534Y974157D2*
X2821108Y977009D1*
X2818223Y979894D1*
X2815371Y981320D1*
X2809634D1*
X2806749Y979894D1*
X2803897Y977009D1*
X2802438Y974157D1*
X2801012Y969846D1*
Y962650D1*
X2802438Y958372D1*
X2803897Y955487D1*
X2806749Y952635D1*
X2809634Y951176D1*
X2815371D1*
X2818223Y952635D1*
X2821108Y955487D1*
X2822534Y958372D1*
X2846156Y951176D2*
Y981287D1*
X2831797Y961224D1*
X2853319D1*
X2820247Y1023157D2*
X2818821Y1026009D1*
X2815936Y1028894D1*
X2813084Y1030320D1*
X2807347D1*
X2804462Y1028894D1*
X2801610Y1026009D1*
X2800151Y1023157D1*
X2798725Y1018846D1*
Y1011650D1*
X2800151Y1007372D1*
X2801610Y1004487D1*
X2804462Y1001635D1*
X2807347Y1000176D1*
X2813084D1*
X2815936Y1001635D1*
X2818821Y1004487D1*
X2820247Y1007372D1*
X2846721Y1030287D2*
X2832395D1*
X2830969Y1017387D1*
X2832395Y1018813D1*
X2836706Y1020272D1*
X2840984D1*
X2845295Y1018813D1*
X2848180Y1015961D1*
X2849606Y1011650D1*
Y1008798D1*
X2848180Y1004487D1*
X2845295Y1001602D1*
X2840984Y1000176D1*
X2836706D1*
X2832395Y1001602D1*
X2830969Y1003061D1*
X2829510Y1005913D1*
X3037245Y1242047D2*
X3034393Y1240621D1*
X3031508Y1237736D1*
X3030082Y1234884D1*
Y1229147D1*
X3031508Y1226262D1*
X3034393Y1223410D1*
X3037245Y1221951D1*
X3041556Y1220525D1*
X3048752D1*
X3053030Y1221951D1*
X3055915Y1223410D1*
X3058767Y1226262D1*
X3060226Y1229147D1*
Y1234884D1*
X3058767Y1237736D1*
X3055915Y1240621D1*
X3053030Y1242047D1*
X3034393Y1268522D2*
X3031541Y1267096D1*
X3030115Y1262785D1*
Y1259933D1*
X3031541Y1255622D1*
X3035852Y1252737D1*
X3043015Y1251311D1*
X3050178D1*
X3055915Y1252737D1*
X3058800Y1255622D1*
X3060226Y1259933D1*
Y1261359D1*
X3058800Y1265637D1*
X3055915Y1268522D1*
X3051604Y1269948D1*
X3050178D1*
X3045867Y1268522D1*
X3043015Y1265637D1*
X3041589Y1261359D1*
Y1259933D1*
X3043015Y1255622D1*
X3045867Y1252737D1*
X3050178Y1251311D1*
X3109861Y935784D2*
X3091191D1*
Y905640D1*
Y921425D2*
X3102665D1*
X3119125Y930014D2*
X3122010Y931473D1*
X3126321Y935751D1*
Y905640D1*
X2780651Y1171635D2*
Y1148687D1*
X2779225Y1144376D1*
X2777766Y1142950D1*
X2774914Y1141491D1*
X2772029D1*
X2769177Y1142950D1*
X2767751Y1144376D1*
X2766292Y1148687D1*
Y1151539D1*
X2789914Y1165865D2*
X2792799Y1167324D1*
X2797110Y1171602D1*
Y1141491D1*
X3362201Y1140635D2*
Y1117687D1*
X3360775Y1113376D1*
X3359316Y1111950D1*
X3356464Y1110491D1*
X3353579D1*
X3350727Y1111950D1*
X3349301Y1113376D1*
X3347842Y1117687D1*
Y1120539D1*
X3372923Y1133439D2*
Y1134865D1*
X3374349Y1137750D1*
X3375775Y1139176D1*
X3378660Y1140602D1*
X3384397D1*
X3387249Y1139176D1*
X3388675Y1137750D1*
X3390134Y1134865D1*
Y1132013D1*
X3388675Y1129128D1*
X3385823Y1124850D1*
X3371464Y1110491D1*
X3391560D1*
X2800959Y853961D2*
X2813859D1*
X2818170Y855420D1*
X2819629Y856846D1*
X2821055Y859698D1*
Y862583D1*
X2819629Y865435D1*
X2818170Y866894D1*
X2813859Y868320D1*
X2800959D1*
Y838176D1*
X2811007Y853961D2*
X2821055Y838176D1*
X2830318Y862550D2*
X2833203Y864009D1*
X2837514Y868287D1*
Y838176D1*
X2799509Y901961D2*
X2812409D1*
X2816720Y903420D1*
X2818179Y904846D1*
X2819605Y907698D1*
Y910583D1*
X2818179Y913435D1*
X2816720Y914894D1*
X2812409Y916320D1*
X2799509D1*
Y886176D1*
X2809557Y901961D2*
X2819605Y886176D1*
X2830327Y909124D2*
Y910550D1*
X2831753Y913435D1*
X2833179Y914861D1*
X2836064Y916287D1*
X2841801D1*
X2844653Y914861D1*
X2846079Y913435D1*
X2847538Y910550D1*
Y907698D1*
X2846079Y904813D1*
X2843227Y900535D1*
X2828868Y886176D1*
X2848964D1*
X2285644Y933367D2*
Y911845D1*
X2287070Y907534D1*
X2289955Y904682D1*
X2294266Y903223D1*
X2297118D1*
X2301429Y904682D1*
X2304314Y907534D1*
X2305740Y911845D1*
Y933367D1*
X2315003Y927597D2*
X2317888Y929056D1*
X2322199Y933334D1*
Y903223D1*
X1784082Y723226D2*
X1814226D1*
Y736159D1*
X1812767Y740470D1*
X1811341Y741896D1*
X1808489Y743322D1*
X1804178D1*
X1801293Y741896D1*
X1799867Y740471D1*
X1798441Y736160D1*
X1796982Y740471D1*
X1795556Y741896D1*
X1792704Y743322D1*
X1789819D1*
X1786967Y741896D1*
X1785508Y740471D1*
X1784082Y736160D1*
Y723226D1*
X1798441D2*
Y736160D1*
X1784082Y761208D2*
X1785508Y758323D1*
X1788393Y755471D1*
X1791245Y754012D1*
X1795556Y752586D1*
X1802752D1*
X1807030Y754012D1*
X1809915Y755471D1*
X1812767Y758323D1*
X1814226Y761208D1*
Y766945D1*
X1812767Y769797D1*
X1809915Y772682D1*
X1807030Y774108D1*
X1802752Y775534D1*
X1795556D1*
X1791245Y774108D1*
X1788393Y772682D1*
X1785508Y769797D1*
X1784082Y766945D1*
Y761208D1*
Y793419D2*
X1785508Y790534D1*
X1788393Y787682D1*
X1791245Y786223D1*
X1795556Y784797D1*
X1802752D1*
X1807030Y786223D1*
X1809915Y787682D1*
X1812767Y790534D1*
X1814226Y793419D1*
Y799156D1*
X1812767Y802008D1*
X1809915Y804893D1*
X1807030Y806319D1*
X1802752Y807745D1*
X1795556D1*
X1791245Y806319D1*
X1788393Y804893D1*
X1785508Y802008D1*
X1784082Y799156D1*
Y793419D1*
Y827057D2*
X1814226D1*
X1784082Y817009D2*
Y837105D1*
X2750701Y1220842D2*
Y1190698D1*
X2760749D1*
X2765060Y1192157D1*
X2767945Y1195009D1*
X2769371Y1197894D1*
X2770797Y1202172D1*
Y1209368D1*
X2769371Y1213679D1*
X2767945Y1216531D1*
X2765060Y1219416D1*
X2760749Y1220842D1*
X2750701D1*
X2780060Y1205753D2*
X2796641D1*
X2745701Y1114842D2*
Y1084698D1*
X2755749D1*
X2760060Y1086157D1*
X2762945Y1089009D1*
X2764371Y1091894D1*
X2765797Y1096172D1*
Y1103368D1*
X2764371Y1107679D1*
X2762945Y1110531D1*
X2760060Y1113416D1*
X2755749Y1114842D1*
X2745701D1*
X2787960Y1112670D2*
Y1086837D1*
X2775060Y1099737D2*
X2800893D1*
X2908701Y1044842D2*
X2920175Y1014698D1*
X2931649Y1044842D1*
X2940912D2*
Y1014698D1*
X2953845D1*
X2958156Y1016157D1*
X2959582Y1017583D1*
X2961008Y1020435D1*
Y1024746D1*
X2959582Y1027631D1*
X2958156Y1029057D1*
X2953845Y1030483D1*
X2958156Y1031942D1*
X2959582Y1033368D1*
X2961008Y1036220D1*
Y1039105D1*
X2959582Y1041957D1*
X2958156Y1043416D1*
X2953845Y1044842D1*
X2940912D1*
Y1030483D2*
X2953845D1*
X2970272Y1044842D2*
Y1023320D1*
X2971698Y1019009D1*
X2974583Y1016157D1*
X2978894Y1014698D1*
X2981746D1*
X2986057Y1016157D1*
X2988942Y1019009D1*
X2990368Y1023320D1*
Y1044842D1*
X3019727Y1040531D2*
X3016875Y1043416D1*
X3012564Y1044842D1*
X3006827D1*
X3002516Y1043416D1*
X2999631Y1040531D1*
Y1037679D1*
X3001090Y1034794D1*
X3002516Y1033368D1*
X3005368Y1031942D1*
X3013990Y1029057D1*
X3016875Y1027631D1*
X3018301Y1026172D1*
X3019727Y1023320D1*
Y1019009D1*
X3016875Y1016157D1*
X3012564Y1014698D1*
X3006827D1*
X3002516Y1016157D1*
X2999631Y1019009D1*
X2691701Y1319842D2*
X2711797Y1289698D1*
Y1319842D2*
X2691701Y1289698D1*
X2721060Y1305483D2*
X2733960D1*
X2738271Y1306942D1*
X2739730Y1308368D1*
X2741156Y1311220D1*
Y1314105D1*
X2739730Y1316957D1*
X2738271Y1318416D1*
X2733960Y1319842D1*
X2721060D1*
Y1289698D1*
X2731108Y1305483D2*
X2741156Y1289698D1*
X2769057Y1319842D2*
X2750420D1*
Y1289698D1*
X2769057D1*
X2750420Y1305483D2*
X2761894D1*
X2798416Y1315531D2*
X2795564Y1318416D1*
X2791253Y1319842D1*
X2785516D1*
X2781205Y1318416D1*
X2778320Y1315531D1*
Y1312679D1*
X2779779Y1309794D1*
X2781205Y1308368D1*
X2784057Y1306942D1*
X2792679Y1304057D1*
X2795564Y1302631D1*
X2796990Y1301172D1*
X2798416Y1298320D1*
Y1294009D1*
X2795564Y1291157D1*
X2791253Y1289698D1*
X2785516D1*
X2781205Y1291157D1*
X2778320Y1294009D1*
X3093601Y1137670D2*
Y1111837D1*
X3080701Y1124737D2*
X3106534D1*
X3133008Y1139809D2*
X3118682D1*
X3117256Y1126909D1*
X3118682Y1128335D1*
X3122993Y1129794D1*
X3127271D1*
X3131582Y1128335D1*
X3134467Y1125483D1*
X3135893Y1121172D1*
Y1118320D1*
X3134467Y1114009D1*
X3131582Y1111124D1*
X3127271Y1109698D1*
X3122993D1*
X3118682Y1111124D1*
X3117256Y1112583D1*
X3115797Y1115435D1*
X3145157Y1139842D2*
X3156631Y1109698D1*
X3168105Y1139842D1*
M02*
