G04 DipTrace 3.0.0.2*
G04 TopSilk.gbr*
%MOIN*%
G04 #@! TF.FileFunction,Legend,Top*
G04 #@! TF.Part,Single*
%ADD10C,0.009843*%
%ADD26C,0.035008*%
%ADD80C,0.004632*%
%FSLAX26Y26*%
G04*
G70*
G90*
G75*
G01*
G04 TopSilk*
%LPD*%
X1588701Y393701D2*
D10*
Y493701D1*
X488701Y393701D2*
X1588701D1*
X488701D2*
Y493701D1*
X563501D1*
X1588701D1*
X3314401Y491701D2*
X3322001D1*
X1862801D2*
X3688701D1*
X1788701D2*
X1862801D1*
X1788701Y391701D2*
Y491701D1*
Y391701D2*
X3688701D1*
Y491701D1*
X3092973Y955484D2*
X3124457D1*
X3092973Y1053918D2*
X3124457D1*
X3010701Y1164001D2*
Y1355701D1*
Y1055701D2*
Y1355701D1*
X2810701Y1055701D2*
Y1355701D1*
X3010701Y1055701D2*
X2810701D1*
X3010701Y1355701D2*
X2810701D1*
X3197001Y1153701D2*
X3388701D1*
X3088701D2*
X3388701D1*
X3088701Y1353701D2*
X3388701D1*
X3088701Y1153701D2*
Y1353701D1*
X3388701Y1153701D2*
Y1353701D1*
D26*
X2135408Y632338D3*
X1620201Y456635D2*
D80*
Y433687D1*
X1618775Y429376D1*
X1617316Y427950D1*
X1614464Y426491D1*
X1611579D1*
X1608727Y427950D1*
X1607301Y429376D1*
X1605842Y433687D1*
Y436539D1*
X1632349Y456602D2*
X1648101D1*
X1639512Y445128D1*
X1643823D1*
X1646675Y443702D1*
X1648101Y442276D1*
X1649560Y437965D1*
Y435113D1*
X1648101Y430802D1*
X1645249Y427917D1*
X1640938Y426491D1*
X1636627D1*
X1632349Y427917D1*
X1630923Y429376D1*
X1629464Y432228D1*
X1747488Y456635D2*
Y433687D1*
X1746062Y429376D1*
X1744603Y427950D1*
X1741751Y426491D1*
X1738866D1*
X1736014Y427950D1*
X1734588Y429376D1*
X1733129Y433687D1*
Y436539D1*
X1771110Y426491D2*
Y456602D1*
X1756751Y436539D1*
X1778273D1*
X2488453Y1326275D2*
X2487027Y1329127D1*
X2484142Y1332012D1*
X2481290Y1333438D1*
X2475553D1*
X2472668Y1332012D1*
X2469816Y1329127D1*
X2468357Y1326275D1*
X2466931Y1321964D1*
Y1314768D1*
X2468357Y1310490D1*
X2469816Y1307605D1*
X2472668Y1304753D1*
X2475553Y1303294D1*
X2481290D1*
X2484142Y1304753D1*
X2487027Y1307605D1*
X2488453Y1310490D1*
X2497716Y1327668D2*
X2500601Y1329127D1*
X2504912Y1333405D1*
Y1303294D1*
X1963466Y921365D2*
X1960614Y919939D1*
X1957729Y917054D1*
X1956303Y914202D1*
Y908465D1*
X1957729Y905580D1*
X1960614Y902728D1*
X1963466Y901269D1*
X1967777Y899843D1*
X1974973D1*
X1979251Y901269D1*
X1982136Y902728D1*
X1984988Y905580D1*
X1986447Y908465D1*
Y914202D1*
X1984988Y917054D1*
X1982136Y919939D1*
X1979251Y921365D1*
X1963499Y932088D2*
X1962073D1*
X1959188Y933514D1*
X1957762Y934940D1*
X1956336Y937825D1*
Y943562D1*
X1957762Y946413D1*
X1959188Y947839D1*
X1962073Y949299D1*
X1964925D1*
X1967810Y947839D1*
X1972088Y944987D1*
X1986447Y930628D1*
Y950724D1*
X2127538Y1332275D2*
X2126112Y1335127D1*
X2123227Y1338012D1*
X2120375Y1339438D1*
X2114638D1*
X2111753Y1338012D1*
X2108901Y1335127D1*
X2107442Y1332275D1*
X2106016Y1327964D1*
Y1320768D1*
X2107442Y1316490D1*
X2108901Y1313605D1*
X2111753Y1310753D1*
X2114638Y1309294D1*
X2120375D1*
X2123227Y1310753D1*
X2126112Y1313605D1*
X2127538Y1316490D1*
X2139687Y1339405D2*
X2155439D1*
X2146850Y1327931D1*
X2151161D1*
X2154013Y1326505D1*
X2155439Y1325079D1*
X2156898Y1320768D1*
Y1317916D1*
X2155439Y1313605D1*
X2152587Y1310720D1*
X2148276Y1309294D1*
X2143965D1*
X2139687Y1310720D1*
X2138261Y1312179D1*
X2136802Y1315031D1*
X2913290Y938275D2*
X2911864Y941127D1*
X2908979Y944012D1*
X2906127Y945438D1*
X2900390D1*
X2897505Y944012D1*
X2894653Y941127D1*
X2893194Y938275D1*
X2891768Y933964D1*
Y926768D1*
X2893194Y922490D1*
X2894653Y919605D1*
X2897505Y916753D1*
X2900390Y915294D1*
X2906127D1*
X2908979Y916753D1*
X2911864Y919605D1*
X2913290Y922490D1*
X2936912Y915294D2*
Y945405D1*
X2922553Y925342D1*
X2944075D1*
X2911003Y987275D2*
X2909577Y990127D1*
X2906692Y993012D1*
X2903840Y994438D1*
X2898103D1*
X2895218Y993012D1*
X2892366Y990127D1*
X2890907Y987275D1*
X2889481Y982964D1*
Y975768D1*
X2890907Y971490D1*
X2892366Y968605D1*
X2895218Y965753D1*
X2898103Y964294D1*
X2903840D1*
X2906692Y965753D1*
X2909577Y968605D1*
X2911003Y971490D1*
X2937477Y994405D2*
X2923151D1*
X2921725Y981505D1*
X2923151Y982931D1*
X2927462Y984390D1*
X2931740D1*
X2936051Y982931D1*
X2938936Y980079D1*
X2940362Y975768D1*
Y972916D1*
X2938936Y968605D1*
X2936051Y965720D1*
X2931740Y964294D1*
X2927462D1*
X2923151Y965720D1*
X2921725Y967179D1*
X2920266Y970031D1*
X3037245Y1242047D2*
X3034393Y1240621D1*
X3031508Y1237736D1*
X3030082Y1234884D1*
Y1229147D1*
X3031508Y1226262D1*
X3034393Y1223410D1*
X3037245Y1221951D1*
X3041556Y1220525D1*
X3048752D1*
X3053030Y1221951D1*
X3055915Y1223410D1*
X3058767Y1226262D1*
X3060226Y1229147D1*
Y1234884D1*
X3058767Y1237736D1*
X3055915Y1240621D1*
X3053030Y1242047D1*
X3034393Y1268522D2*
X3031541Y1267096D1*
X3030115Y1262785D1*
Y1259933D1*
X3031541Y1255622D1*
X3035852Y1252737D1*
X3043015Y1251311D1*
X3050178D1*
X3055915Y1252737D1*
X3058800Y1255622D1*
X3060226Y1259933D1*
Y1261359D1*
X3058800Y1265637D1*
X3055915Y1268522D1*
X3051604Y1269948D1*
X3050178D1*
X3045867Y1268522D1*
X3043015Y1265637D1*
X3041589Y1261359D1*
Y1259933D1*
X3043015Y1255622D1*
X3045867Y1252737D1*
X3050178Y1251311D1*
X3112861Y1005784D2*
X3094191D1*
Y975640D1*
Y991425D2*
X3105665D1*
X3122125Y1000014D2*
X3125010Y1001473D1*
X3129321Y1005751D1*
Y975640D1*
X2771651Y1331635D2*
Y1308687D1*
X2770225Y1304376D1*
X2768766Y1302950D1*
X2765914Y1301491D1*
X2763029D1*
X2760177Y1302950D1*
X2758751Y1304376D1*
X2757292Y1308687D1*
Y1311539D1*
X2780914Y1325865D2*
X2783799Y1327324D1*
X2788110Y1331602D1*
Y1301491D1*
X3270201Y1140635D2*
Y1117687D1*
X3268775Y1113376D1*
X3267316Y1111950D1*
X3264464Y1110491D1*
X3261579D1*
X3258727Y1111950D1*
X3257301Y1113376D1*
X3255842Y1117687D1*
Y1120539D1*
X3280923Y1133439D2*
Y1134865D1*
X3282349Y1137750D1*
X3283775Y1139176D1*
X3286660Y1140602D1*
X3292397D1*
X3295249Y1139176D1*
X3296675Y1137750D1*
X3298134Y1134865D1*
Y1132013D1*
X3296675Y1129128D1*
X3293823Y1124850D1*
X3279464Y1110491D1*
X3299560D1*
X2892644Y830079D2*
X2905544D1*
X2909855Y831538D1*
X2911314Y832964D1*
X2912740Y835816D1*
Y838701D1*
X2911314Y841553D1*
X2909855Y843012D1*
X2905544Y844438D1*
X2892644D1*
Y814294D1*
X2902692Y830079D2*
X2912740Y814294D1*
X2922003Y838668D2*
X2924888Y840127D1*
X2929199Y844405D1*
Y814294D1*
X2891194Y881079D2*
X2904094D1*
X2908405Y882538D1*
X2909864Y883964D1*
X2911290Y886816D1*
Y889701D1*
X2909864Y892553D1*
X2908405Y894012D1*
X2904094Y895438D1*
X2891194D1*
Y865294D1*
X2901242Y881079D2*
X2911290Y865294D1*
X2922012Y888242D2*
Y889668D1*
X2923438Y892553D1*
X2924864Y893979D1*
X2927749Y895405D1*
X2933486D1*
X2936338Y893979D1*
X2937764Y892553D1*
X2939223Y889668D1*
Y886816D1*
X2937764Y883931D1*
X2934912Y879653D1*
X2920553Y865294D1*
X2940649D1*
X2010644Y817367D2*
Y795845D1*
X2012070Y791534D1*
X2014955Y788682D1*
X2019266Y787223D1*
X2022118D1*
X2026429Y788682D1*
X2029314Y791534D1*
X2030740Y795845D1*
Y817367D1*
X2040003Y811597D2*
X2042888Y813056D1*
X2047199Y817334D1*
Y787223D1*
X3787973Y900635D2*
Y879113D1*
X3789399Y874802D1*
X3792284Y871950D1*
X3796595Y870491D1*
X3799447D1*
X3803758Y871950D1*
X3806643Y874802D1*
X3808069Y879113D1*
Y900635D1*
X3818792Y893439D2*
Y894865D1*
X3820218Y897750D1*
X3821644Y899176D1*
X3824529Y900602D1*
X3830266D1*
X3833118Y899176D1*
X3834544Y897750D1*
X3836003Y894865D1*
Y892013D1*
X3834544Y889128D1*
X3831692Y884850D1*
X3817333Y870491D1*
X3837429D1*
X1089093Y1553191D2*
Y1531669D1*
X1090519Y1527358D1*
X1093404Y1524506D1*
X1097715Y1523047D1*
X1100567D1*
X1104878Y1524506D1*
X1107763Y1527358D1*
X1109189Y1531669D1*
Y1553191D1*
X1121338Y1553157D2*
X1137089D1*
X1128501Y1541684D1*
X1132812D1*
X1135663Y1540258D1*
X1137089Y1538832D1*
X1138549Y1534521D1*
Y1531669D1*
X1137089Y1527358D1*
X1134238Y1524473D1*
X1129926Y1523047D1*
X1125615D1*
X1121338Y1524473D1*
X1119912Y1525932D1*
X1118453Y1528784D1*
X1153770Y1494635D2*
Y1473113D1*
X1155196Y1468802D1*
X1158081Y1465950D1*
X1162392Y1464491D1*
X1165244D1*
X1169555Y1465950D1*
X1172440Y1468802D1*
X1173866Y1473113D1*
Y1494635D1*
X1197489Y1464491D2*
Y1494602D1*
X1183130Y1474539D1*
X1204652D1*
M02*
