G04 DipTrace 3.0.0.2*
G04 Bottom.gbr*
%MOIN*%
G04 #@! TF.FileFunction,Copper,L2,Bot*
G04 #@! TF.Part,Single*
G04 #@! TA.AperFunction,CopperBalancing*
%ADD13C,0.006*%
G04 #@! TA.AperFunction,Conductor*
%ADD14C,0.008*%
G04 #@! TA.AperFunction,ViaPad*
%ADD16C,0.025*%
%ADD19C,0.04*%
G04 #@! TA.AperFunction,Conductor*
%ADD21C,0.01*%
G04 #@! TA.AperFunction,ComponentPad*
%ADD22R,0.059055X0.059055*%
%ADD23C,0.059055*%
%ADD32R,0.325X0.325*%
%FSLAX26Y26*%
G04*
G70*
G90*
G75*
G01*
G04 Bottom*
%LPD*%
X2323701Y869701D2*
D16*
X2337213Y883213D1*
D19*
X2426685D1*
X2472197Y837701D1*
X2734701D1*
X2572685Y981213D2*
D16*
Y919213D1*
X2535685Y882213D1*
X2517701Y1020701D2*
D19*
Y931197D1*
X2541685Y907213D1*
X2619685D1*
D16*
X2632685Y920213D1*
X2738685Y791213D2*
D19*
X2542685D1*
D14*
X2535685Y798213D1*
X2341685Y844213D2*
D16*
X2402685D1*
D14*
X2453685Y793213D1*
X2530685D1*
X2535685Y798213D1*
Y882213D2*
X2594685D1*
X2632685Y920213D1*
X2884685Y681213D2*
D19*
X2774685Y791213D1*
X2738685D1*
X2732701Y905701D2*
X2647197D1*
D16*
X2632685Y920213D1*
X1538701Y443701D2*
D19*
X1836701D1*
X1838701Y441701D1*
X538701Y443701D2*
X638701D1*
X3538701Y441701D2*
X3638701D1*
X638701Y443701D2*
X709701Y514701D1*
X1467701D1*
X1538701Y443701D1*
X1838701Y441701D2*
X1910701Y513701D1*
X2432685D1*
X3466701D1*
X3473637Y506765D1*
X3538701Y441701D1*
X2432685Y720213D2*
Y513701D1*
X2229213Y958213D2*
X2397685D1*
D16*
X2411705Y944193D1*
X2434685Y921213D1*
X2738685Y791213D2*
D19*
X2794213D1*
X3026701Y1023701D1*
Y1139701D1*
X2960701Y1205701D1*
X2432685Y720213D2*
D13*
X2457685D1*
X2535685Y798213D1*
X3588701Y1193701D2*
D19*
Y637701D1*
X3473637Y522637D1*
Y506765D1*
X588701Y1193701D2*
Y635701D1*
X709701Y514701D1*
X3025701Y1140701D2*
X3175701D1*
X3238701Y1203701D1*
X2517701Y1020701D2*
X2484701Y1053701D1*
X2438701D1*
X2655701Y1335701D2*
D21*
X2680701Y1360701D1*
X3181701D1*
X3238701Y1303701D1*
X2542701Y630701D2*
D13*
X2549701D1*
Y677701D1*
X2669701D1*
X2676701Y684701D1*
Y749701D1*
X2688701Y761701D1*
X2762701D1*
X2872701Y651701D1*
X2896701D1*
X2953701Y708701D1*
Y763701D1*
X2890701Y826701D1*
X2842701Y894701D2*
Y893701D1*
X2658701Y1077701D1*
Y1263701D1*
X2714701Y1319701D1*
X2846701D1*
X2860701Y1305701D1*
X2707701Y687701D2*
X2717701D1*
Y609701D1*
X2732701Y707701D2*
X2742701D1*
Y628701D1*
D16*
X2323701Y869701D3*
D19*
X2734701Y837701D3*
D3*
X2738685Y791213D3*
D16*
X2341685Y844213D3*
D19*
X2884685Y681213D3*
X2738685Y791213D3*
X2732701Y905701D3*
X2229213Y958213D3*
X2738685Y791213D3*
D16*
X2655701Y1335701D3*
X2542701Y630701D3*
X2890701Y826701D3*
X2842701Y894701D3*
X2717701Y609701D3*
X2742701Y628701D3*
X2434685Y921213D3*
X2432685Y720213D3*
X2632685Y722213D3*
Y920213D3*
X2535685Y798213D3*
Y882213D3*
X2572685Y981213D3*
D19*
X2517701Y1020701D3*
D16*
X2707701Y687701D3*
X2732701Y707701D3*
D19*
X2438701Y1053701D3*
X2404285Y945344D2*
D13*
X2664086D1*
X2404285Y939475D2*
X2664086D1*
X2404285Y933607D2*
X2664086D1*
X2404285Y927738D2*
X2664086D1*
X2404285Y921869D2*
X2664086D1*
X2404285Y916000D2*
X2664086D1*
X2438673Y910131D2*
X2664086D1*
X2447557Y904263D2*
X2664086D1*
X2453440Y898394D2*
X2664086D1*
X2459311Y892525D2*
X2664086D1*
X2465170Y886656D2*
X2664086D1*
X2471041Y880788D2*
X2664086D1*
X2476912Y874919D2*
X2664086D1*
X2482784Y869050D2*
X2664086D1*
X2404285Y851444D2*
X2416521D1*
X2404285Y845575D2*
X2422391D1*
X2404285Y839706D2*
X2428263D1*
X2404285Y833837D2*
X2434122D1*
X2404285Y827969D2*
X2439994D1*
X2404285Y822100D2*
X2445865D1*
X2404285Y816231D2*
X2451771D1*
X2404285Y810362D2*
X2461263D1*
X2404285Y804494D2*
X2664086D1*
X2404285Y798625D2*
X2664086D1*
X2404285Y792756D2*
X2664086D1*
X2404285Y786887D2*
X2664086D1*
X2404285Y781019D2*
X2664086D1*
X2404285Y775150D2*
X2664086D1*
X2404285Y769281D2*
X2664086D1*
X2404285Y763412D2*
X2664086D1*
X2404285Y757544D2*
X2664086D1*
X2404285Y751675D2*
X2664086D1*
X2404285Y745806D2*
X2664086D1*
X2404285Y739937D2*
X2664086D1*
X2404285Y734068D2*
X2664086D1*
X2404285Y728200D2*
X2664086D1*
X2404285Y722331D2*
X2664086D1*
X2404285Y716462D2*
X2664086D1*
X2404285Y710593D2*
X2664086D1*
X2404285Y704725D2*
X2664086D1*
X2404285Y698856D2*
X2664086D1*
X2404285Y692987D2*
X2664086D1*
X2403670Y912453D2*
X2426685D1*
X2428979Y912362D1*
X2431259Y912093D1*
X2433511Y911645D1*
X2435721Y911021D1*
X2437876Y910227D1*
X2439960Y909265D1*
X2441963Y908145D1*
X2443872Y906869D1*
X2445675Y905448D1*
X2447361Y903889D1*
X2484327Y866923D1*
X2664701Y866941D1*
X2664685Y951213D1*
X2403685D1*
Y912436D1*
X2414603Y853973D2*
X2403681D1*
X2403685Y690213D1*
X2664685D1*
Y808466D1*
X2472197Y808461D1*
X2469903Y808551D1*
X2467622Y808820D1*
X2465372Y809269D1*
X2463162Y809893D1*
X2461007Y810687D1*
X2458923Y811649D1*
X2456919Y812769D1*
X2455011Y814045D1*
X2453208Y815466D1*
X2451521Y817025D1*
X2414555Y853991D1*
D22*
X538701Y443701D3*
D23*
X638701D3*
X738701D3*
X838701D3*
X938701D3*
X1038701D3*
X1138701D3*
X1238701D3*
X1338701D3*
X1438701D3*
X1538701D3*
D22*
X1838701Y441701D3*
D23*
X1938701D3*
X2038701D3*
X2138701D3*
X2238701D3*
X2338701D3*
X2438701D3*
X2538701D3*
X2638701D3*
X2738701D3*
X2838701D3*
X2938701D3*
X3038701D3*
X3138701D3*
X3238701D3*
X3338701D3*
X3438701D3*
X3538701D3*
X3638701D3*
D22*
X3138701Y1203701D3*
D23*
Y1303701D3*
X3238701Y1203701D3*
Y1303701D3*
X3338701Y1203701D3*
Y1303701D3*
D22*
X2960701Y1105701D3*
D23*
X2860701D3*
X2960701Y1205701D3*
X2860701D3*
X2960701Y1305701D3*
X2860701D3*
D32*
X3588701Y1193701D3*
X588701D3*
M02*
