M48
INCH
T01C0.013
T02C0.02
T03C0.0354
T04C0.15
%
T03
X+005387Y+004437
X+006387Y+004437
X+007387Y+004437
X+008387Y+004437
X+009387Y+004437
X+010387Y+004437
X+011387Y+004437
X+012387Y+004437
X+013387Y+004437
X+014387Y+004437
X+015387Y+004437
X+018387Y+004417
X+019387Y+004417
X+020387Y+004417
X+021387Y+004417
X+022387Y+004417
X+023387Y+004417
X+024387Y+004417
X+025387Y+004417
X+026387Y+004417
X+027387Y+004417
X+028387Y+004417
X+029387Y+004417
X+030387Y+004417
X+031387Y+004417
X+032387Y+004417
X+033387Y+004417
X+034387Y+004417
X+035387Y+004417
X+036387Y+004417
X+031387Y+012037
X+031387Y+013037
X+032387Y+012037
X+032387Y+013037
X+033387Y+012037
X+033387Y+013037
X+029607Y+011057
X+028607Y+011057
X+029607Y+012057
X+028607Y+012057
X+029607Y+013057
X+028607Y+013057
T01
X+024347Y+009212
X+024327Y+007202
X+026327Y+007222
X+026327Y+009202
X+025357Y+007982
X+025357Y+008822
X+025727Y+009812
T02
X+025177Y+010207
T01
X+027077Y+006877
X+027327Y+007077
T04
X+035887Y+011937
X+005887Y+011937
T02
X+024387Y+010537
T01
X+023237Y+008697
T02
X+027347Y+008377
X+027387Y+007912
T01
X+023417Y+008442
T02
X+028847Y+006812
X+027327Y+009057
X+022292Y+009582
T01
X+026557Y+013357
X+025427Y+006307
X+028907Y+008267
X+028427Y+008947
X+027177Y+006097
X+027427Y+006287
T00
M30
