G04 DipTrace 3.0.0.2*
G04 TopSilk.gbr*
%MOIN*%
G04 #@! TF.FileFunction,Legend,Top*
G04 #@! TF.Part,Single*
%ADD10C,0.009843*%
%ADD15C,0.007874*%
%ADD24C,0.001969*%
%ADD83C,0.004632*%
%FSLAX26Y26*%
G04*
G70*
G90*
G75*
G01*
G04 TopSilk*
%LPD*%
X1588701Y393701D2*
D10*
Y493701D1*
X488701Y393701D2*
X1588701D1*
X488701D2*
Y493701D1*
X563501D1*
X1588701D1*
X3314401Y491701D2*
X3322001D1*
X1862801D2*
X3688701D1*
X1788701D2*
X1862801D1*
X1788701Y391701D2*
Y491701D1*
Y391701D2*
X3688701D1*
Y491701D1*
X2351599Y639126D2*
D24*
Y1003299D1*
X2715772D1*
Y639126D1*
X2351599D1*
X2380150Y648959D2*
D15*
G02X2380150Y648959I3933J0D01*
G01*
X3092973Y955484D2*
D10*
X3124457D1*
X3092973Y1053918D2*
X3124457D1*
X3197001Y1153701D2*
X3388701D1*
X3088701D2*
X3388701D1*
X3088701Y1353701D2*
X3388701D1*
X3088701Y1153701D2*
Y1353701D1*
X3388701Y1153701D2*
Y1353701D1*
X3010701Y1164001D2*
Y1355701D1*
Y1055701D2*
Y1355701D1*
X2810701Y1055701D2*
Y1355701D1*
X3010701Y1055701D2*
X2810701D1*
X3010701Y1355701D2*
X2810701D1*
X1620201Y456635D2*
D83*
Y433687D1*
X1618775Y429376D1*
X1617316Y427950D1*
X1614464Y426491D1*
X1611579D1*
X1608727Y427950D1*
X1607301Y429376D1*
X1605842Y433687D1*
Y436539D1*
X1632349Y456602D2*
X1648101D1*
X1639512Y445128D1*
X1643823D1*
X1646675Y443702D1*
X1648101Y442276D1*
X1649560Y437965D1*
Y435113D1*
X1648101Y430802D1*
X1645249Y427917D1*
X1640938Y426491D1*
X1636627D1*
X1632349Y427917D1*
X1630923Y429376D1*
X1629464Y432228D1*
X1747488Y456635D2*
Y433687D1*
X1746062Y429376D1*
X1744603Y427950D1*
X1741751Y426491D1*
X1738866D1*
X1736014Y427950D1*
X1734588Y429376D1*
X1733129Y433687D1*
Y436539D1*
X1771110Y426491D2*
Y456602D1*
X1756751Y436539D1*
X1778273D1*
X2474407Y633233D2*
Y611711D1*
X2475833Y607400D1*
X2478718Y604548D1*
X2483029Y603089D1*
X2485881D1*
X2490192Y604548D1*
X2493077Y607400D1*
X2494503Y611711D1*
Y633233D1*
X2503767Y627463D2*
X2506652Y628922D1*
X2510963Y633200D1*
Y603089D1*
X2511245Y1067768D2*
X2508393Y1066342D1*
X2505508Y1063457D1*
X2504082Y1060605D1*
Y1054868D1*
X2505508Y1051983D1*
X2508393Y1049131D1*
X2511245Y1047672D1*
X2515556Y1046246D1*
X2522752D1*
X2527030Y1047672D1*
X2529915Y1049131D1*
X2532767Y1051983D1*
X2534226Y1054868D1*
Y1060605D1*
X2532767Y1063457D1*
X2529915Y1066342D1*
X2527030Y1067768D1*
X2509852Y1077031D2*
X2508393Y1079916D1*
X2504115Y1084227D1*
X2534226D1*
X2800245Y861318D2*
X2797393Y859892D1*
X2794508Y857007D1*
X2793082Y854155D1*
Y848418D1*
X2794508Y845533D1*
X2797393Y842681D1*
X2800245Y841222D1*
X2804556Y839796D1*
X2811752D1*
X2816030Y841222D1*
X2818915Y842681D1*
X2821767Y845533D1*
X2823226Y848418D1*
Y854155D1*
X2821767Y857007D1*
X2818915Y859892D1*
X2816030Y861318D1*
X2800278Y872040D2*
X2798852D1*
X2795967Y873466D1*
X2794541Y874892D1*
X2793115Y877777D1*
Y883514D1*
X2794541Y886366D1*
X2795967Y887792D1*
X2798852Y889251D1*
X2801704D1*
X2804589Y887792D1*
X2808867Y884940D1*
X2823226Y870581D1*
Y890677D1*
X2883423Y726961D2*
X2896323D1*
X2900634Y728420D1*
X2902093Y729846D1*
X2903519Y732698D1*
Y735583D1*
X2902093Y738435D1*
X2900634Y739894D1*
X2896323Y741320D1*
X2883423D1*
Y711176D1*
X2893471Y726961D2*
X2903519Y711176D1*
X2912783Y735550D2*
X2915668Y737009D1*
X2919979Y741287D1*
Y711176D1*
X2882973Y774961D2*
X2895873D1*
X2900184Y776420D1*
X2901643Y777846D1*
X2903069Y780698D1*
Y783583D1*
X2901643Y786435D1*
X2900184Y787894D1*
X2895873Y789320D1*
X2882973D1*
Y759176D1*
X2893021Y774961D2*
X2903069Y759176D1*
X2913792Y782124D2*
Y783550D1*
X2915218Y786435D1*
X2916644Y787861D1*
X2919529Y789287D1*
X2925266D1*
X2928118Y787861D1*
X2929544Y786435D1*
X2931003Y783550D1*
Y780698D1*
X2929544Y777813D1*
X2926692Y773535D1*
X2912333Y759176D1*
X2932429D1*
X2290231Y1007669D2*
X2288805Y1010521D1*
X2285920Y1013406D1*
X2283068Y1014832D1*
X2277331D1*
X2274446Y1013406D1*
X2271594Y1010521D1*
X2270135Y1007669D1*
X2268709Y1003358D1*
Y996162D1*
X2270135Y991884D1*
X2271594Y988999D1*
X2274446Y986147D1*
X2277331Y984688D1*
X2283068D1*
X2285920Y986147D1*
X2288805Y988999D1*
X2290231Y991884D1*
X2302380Y1014799D2*
X2318131D1*
X2309543Y1003325D1*
X2313854D1*
X2316706Y1001899D1*
X2318131Y1000473D1*
X2319591Y996162D1*
Y993310D1*
X2318131Y988999D1*
X2315280Y986114D1*
X2310969Y984688D1*
X2306658D1*
X2302380Y986114D1*
X2300954Y987573D1*
X2299495Y990425D1*
X2777534Y1033157D2*
X2776108Y1036009D1*
X2773223Y1038894D1*
X2770371Y1040320D1*
X2764634D1*
X2761749Y1038894D1*
X2758897Y1036009D1*
X2757438Y1033157D1*
X2756012Y1028846D1*
Y1021650D1*
X2757438Y1017372D1*
X2758897Y1014487D1*
X2761749Y1011635D1*
X2764634Y1010176D1*
X2770371D1*
X2773223Y1011635D1*
X2776108Y1014487D1*
X2777534Y1017372D1*
X2801156Y1010176D2*
Y1040287D1*
X2786797Y1020224D1*
X2808319D1*
X3081245Y1117047D2*
X3078393Y1115621D1*
X3075508Y1112736D1*
X3074082Y1109884D1*
Y1104147D1*
X3075508Y1101262D1*
X3078393Y1098410D1*
X3081245Y1096951D1*
X3085556Y1095525D1*
X3092752D1*
X3097030Y1096951D1*
X3099915Y1098410D1*
X3102767Y1101262D1*
X3104226Y1104147D1*
Y1109884D1*
X3102767Y1112736D1*
X3099915Y1115621D1*
X3097030Y1117047D1*
X3078393Y1143522D2*
X3075541Y1142096D1*
X3074115Y1137785D1*
Y1134933D1*
X3075541Y1130622D1*
X3079852Y1127737D1*
X3087015Y1126311D1*
X3094178D1*
X3099915Y1127737D1*
X3102800Y1130622D1*
X3104226Y1134933D1*
Y1136359D1*
X3102800Y1140637D1*
X3099915Y1143522D1*
X3095604Y1144948D1*
X3094178D1*
X3089867Y1143522D1*
X3087015Y1140637D1*
X3085589Y1136359D1*
Y1134933D1*
X3087015Y1130622D1*
X3089867Y1127737D1*
X3094178Y1126311D1*
X3112861Y1005784D2*
X3094191D1*
Y975640D1*
Y991425D2*
X3105665D1*
X3122125Y1000014D2*
X3125010Y1001473D1*
X3129321Y1005751D1*
Y975640D1*
X3270201Y1140635D2*
Y1117687D1*
X3268775Y1113376D1*
X3267316Y1111950D1*
X3264464Y1110491D1*
X3261579D1*
X3258727Y1111950D1*
X3257301Y1113376D1*
X3255842Y1117687D1*
Y1120539D1*
X3280923Y1133439D2*
Y1134865D1*
X3282349Y1137750D1*
X3283775Y1139176D1*
X3286660Y1140602D1*
X3292397D1*
X3295249Y1139176D1*
X3296675Y1137750D1*
X3298134Y1134865D1*
Y1132013D1*
X3296675Y1129128D1*
X3293823Y1124850D1*
X3279464Y1110491D1*
X3299560D1*
X3038651Y1320635D2*
Y1297687D1*
X3037225Y1293376D1*
X3035766Y1291950D1*
X3032914Y1290491D1*
X3030029D1*
X3027177Y1291950D1*
X3025751Y1293376D1*
X3024292Y1297687D1*
Y1300539D1*
X3047914Y1314865D2*
X3050799Y1316324D1*
X3055110Y1320602D1*
Y1290491D1*
X2813782Y632157D2*
X2812356Y635009D1*
X2809471Y637894D1*
X2806619Y639320D1*
X2800882D1*
X2797997Y637894D1*
X2795145Y635009D1*
X2793686Y632157D1*
X2792260Y627846D1*
Y620650D1*
X2793686Y616372D1*
X2795145Y613487D1*
X2797997Y610635D1*
X2800882Y609176D1*
X2806619D1*
X2809471Y610635D1*
X2812356Y613487D1*
X2813782Y616372D1*
X2840257Y639287D2*
X2825931D1*
X2824505Y626387D1*
X2825931Y627813D1*
X2830242Y629272D1*
X2834520D1*
X2838831Y627813D1*
X2841716Y624961D1*
X2843142Y620650D1*
Y617798D1*
X2841716Y613487D1*
X2838831Y610602D1*
X2834520Y609176D1*
X2830242D1*
X2825931Y610602D1*
X2824505Y612061D1*
X2823046Y614913D1*
X3886260Y1044635D2*
Y1023113D1*
X3887686Y1018802D1*
X3890571Y1015950D1*
X3894882Y1014491D1*
X3897734D1*
X3902045Y1015950D1*
X3904930Y1018802D1*
X3906356Y1023113D1*
Y1044635D1*
X3929979Y1014491D2*
Y1044602D1*
X3915620Y1024539D1*
X3937142D1*
M02*
