G04 DipTrace 3.0.0.2*
G04 BottomMask.gbr*
%MOIN*%
G04 #@! TF.FileFunction,Soldermask,Bot*
G04 #@! TF.Part,Single*
%AMOUTLINE16*
4,1,4,
-0.060463,-0.021301,
0.060463,-0.021301,
0.019598,0.021301,
-0.019599,0.021301,
-0.060463,-0.021301,
0*%
%AMOUTLINE19*
4,1,7,
0.061779,0.03539,
0.024909,0.03539,
-0.001781,0.007566,
-0.067152,0.007566,
-0.025945,-0.03539,
0.02581,-0.03539,
0.061861,0.002193,
0.061779,0.03539,
0*%
%AMOUTLINE22*
4,1,4,
-0.063035,-0.021301,
0.063022,-0.021301,
0.022158,0.021301,
-0.022086,0.021301,
-0.063035,-0.021301,
0*%
%AMOUTLINE25*
4,1,8,
-0.055504,-0.001625,
-0.023113,-0.035391,
0.019636,-0.035391,
0.060744,0.007636,
0.015023,0.007636,
0.041311,0.035306,
-0.026671,0.035393,
-0.05538,0.005234,
-0.055504,-0.001625,
0*%
%ADD70C,0.066929*%
%ADD72R,0.066929X0.066929*%
%ADD84C,0.047874*%
%ADD103OUTLINE16*%
%ADD106OUTLINE19*%
%ADD109OUTLINE22*%
%ADD112OUTLINE25*%
%FSLAX26Y26*%
G04*
G70*
G90*
G75*
G01*
G04 BotMask*
%LPD*%
D84*
X2093701Y444672D3*
X2043701Y444642D3*
X1993701Y444613D3*
X1943701Y444584D3*
X1893701Y444554D3*
X1843701Y444525D3*
X1793701Y444495D3*
X1743701Y444466D3*
X1693701Y444436D3*
X1643701Y444407D3*
X1593701Y444378D3*
X1543701Y444348D3*
X1493701Y444319D3*
X1443701Y444289D3*
X1393701Y444260D3*
X1343701Y444231D3*
X1293701Y444201D3*
X1243701Y444172D3*
X1193701Y444142D3*
X1143701Y444113D3*
X1093701Y444084D3*
X1043701Y444054D3*
X993701Y444025D3*
X943701Y443995D3*
X893701Y443966D3*
X843701Y443936D3*
X793701Y443907D3*
X743701Y443878D3*
X693701Y443848D3*
X643701Y443819D3*
X593701Y443789D3*
X543701Y443760D3*
X493701Y443731D3*
X443701Y443701D3*
D72*
X1982701Y882672D3*
D70*
X2082701D3*
X1982701Y782672D3*
X2082701D3*
X1982701Y682672D3*
X2082701D3*
D72*
X1742701Y822672D3*
D70*
X1842701D3*
X1742701Y722672D3*
X1842701D3*
X1742701Y622672D3*
X1842701D3*
D72*
X498701Y893701D3*
D70*
X598701D3*
D103*
X1023701Y697701D3*
D106*
X1016876Y641911D3*
D109*
X918680Y732428D3*
D112*
X920932Y676638D3*
M02*
