M48
INCH
T01C0.013
T02C0.016
T03C0.02
T04C0.028
T05C0.0354
%
T04
X+020937Y+004447
X+020437Y+004446
X+019937Y+004446
X+019437Y+004446
X+018937Y+004446
X+018437Y+004445
X+017937Y+004445
X+017437Y+004445
X+016937Y+004444
X+016437Y+004444
X+015937Y+004444
X+015437Y+004443
X+014937Y+004443
X+014437Y+004443
X+013937Y+004443
X+013437Y+004442
X+012937Y+004442
X+012437Y+004442
X+011937Y+004441
X+011437Y+004441
X+010937Y+004441
X+010437Y+004441
X+009937Y+004440
X+009437Y+004440
X+008937Y+004440
X+008437Y+004439
X+007937Y+004439
X+007437Y+004439
X+006937Y+004438
X+006437Y+004438
X+005937Y+004438
X+005437Y+004438
X+004937Y+004437
X+004437Y+004437
T05
X+019827Y+008827
X+020827Y+008827
X+019827Y+007827
X+020827Y+007827
X+019827Y+006827
X+020827Y+006827
X+017427Y+008227
X+018427Y+008227
X+017427Y+007227
X+018427Y+007227
X+017427Y+006227
X+018427Y+006227
X+004987Y+008937
X+005987Y+008937
T01
X+013177Y+008727
X+014487Y+007677
X+014797Y+007687
X+015107Y+007687
X+015417Y+007697
X+015527Y+007987
X+014277Y+008477
X+015417Y+008427
X+014687Y+008687
X+011157Y+008127
X+011137Y+006117
X+013137Y+006137
X+013137Y+008117
X+012167Y+006897
X+012167Y+007737
X+011597Y+008727
X+012537Y+008727
T03
X+011507Y+009157
T01
X+013697Y+005647
X+014007Y+005647
X+010057Y+007667
X+014207Y+007227
T03
X+014197Y+006827
T01
X+010227Y+007357
T03
X+009417Y+008207
T02
X+015216Y+008977
T03
X+015657Y+005727
T01
X+014267Y+006137
X+015317Y+005337
X+013227Y+009067
X+014267Y+005827
X+015007Y+005377
X+012937Y+009237
X+012207Y+005217
X+016167Y+005327
T00
M30
