G04 DipTrace 3.0.0.2*
G04 Top.gbr*
%MOIN*%
G04 #@! TF.FileFunction,Copper,L1,Top*
G04 #@! TF.Part,Single*
%AMOUTLINE0*
4,1,15,
-0.083,-0.126,
-0.076,-0.126,
-0.076,-0.13278,
-0.13278,-0.13278,
-0.13278,0.13278,
0.13278,0.13278,
0.13278,-0.13278,
0.012,-0.13278,
0.012,-0.120199,
0.120199,-0.120199,
0.120199,0.120199,
-0.120199,0.120199,
-0.120199,-0.120199,
-0.076,-0.120199,
-0.076,-0.126,
-0.083,-0.126,
0*%
%AMOUTLINE3*
4,1,6,
0.015,-0.012,
0.015,0.012,
0.009,0.012,
0.009,-0.006,
-0.015,-0.006,
-0.015,-0.012,
0.015,-0.012,
0*%
%AMOUTLINE6*
4,1,14,
0.015,-0.009,
0.015,-0.003,
-0.009,-0.003,
-0.009,0.003,
0.003,0.003,
0.003,-0.003,
0.009,-0.003,
0.009,0.003,
0.015,0.003,
0.015,0.009,
-0.015,0.009,
-0.015,-0.003,
-0.009,-0.009,
-0.003,-0.009,
0.015,-0.009,
0*%
%AMOUTLINE9*
4,1,18,
0.015,-0.012,
0.015,0.012,
-0.003,0.012,
-0.003,0.006,
-0.015,0.006,
-0.015,-0.012,
-0.009,-0.012,
-0.009,0.0,
-0.003,0.0,
-0.003,-0.006,
-0.009,-0.006,
-0.009,-0.012,
0.003,-0.012,
0.003,0.006,
0.009,0.006,
0.009,-0.006,
0.003,-0.006,
0.003,-0.012,
0.015,-0.012,
0*%
%AMOUTLINE12*
4,1,14,
0.015,-0.009,
0.015,0.003,
0.009,0.009,
-0.003,0.009,
-0.003,-0.003,
-0.009,0.003,
-0.009,0.009,
-0.015,0.009,
-0.015,-0.003,
-0.009,-0.009,
0.003,-0.009,
0.003,0.003,
0.009,-0.003,
0.009,-0.009,
0.015,-0.009,
0*%
G04 #@! TA.AperFunction,Conductor*
%ADD13C,0.006*%
%ADD14C,0.008*%
%ADD15C,0.007874*%
G04 #@! TA.AperFunction,ViaPad*
%ADD16C,0.025*%
G04 #@! TA.AperFunction,Conductor*
%ADD17C,0.03937*%
G04 #@! TA.AperFunction,ViaPad*
%ADD18C,0.04*%
G04 #@! TA.AperFunction,Conductor*
%ADD19C,0.01*%
%ADD20C,0.015*%
%ADD21C,0.022*%
%ADD22C,0.021*%
%ADD23C,0.012*%
%ADD24C,0.028*%
G04 #@! TA.AperFunction,ComponentPad*
%ADD25C,0.04*%
%ADD28R,0.007874X0.033465*%
%ADD29R,0.033465X0.007874*%
%ADD30R,0.228346X0.228346*%
%ADD31R,0.043307X0.03937*%
%ADD32R,0.106299X0.045276*%
G04 #@! TA.AperFunction,ComponentPad*
%ADD33R,0.059055X0.059055*%
%ADD34C,0.059055*%
%ADD35R,0.102X0.006*%
%ADD36R,0.024X0.006*%
%ADD37R,0.066X0.006*%
%ADD38R,0.048X0.006*%
%ADD39R,0.042X0.006*%
%ADD40R,0.036X0.006*%
%ADD41R,0.018X0.006*%
%ADD42R,0.006X0.006*%
G04 #@! TA.AperFunction,ViaPad*
%ADD45C,0.03*%
%ADD87OUTLINE0*%
%ADD90OUTLINE3*%
%ADD93OUTLINE6*%
%ADD96OUTLINE9*%
%ADD99OUTLINE12*%
%FSLAX26Y26*%
G04*
G70*
G90*
G75*
G01*
G04 Top*
%LPD*%
X1842701Y822672D2*
D13*
Y807672D1*
X1804701Y769672D1*
Y729672D1*
X1758701Y683672D1*
X1554701D1*
X1535701Y664672D1*
X1059189Y728420D2*
D14*
X1088701D1*
Y602436D1*
D15*
X1087701D1*
X1059189D1*
Y838656D2*
D14*
X1088701D1*
Y822908D1*
D15*
X1059189D1*
X1104465Y868184D2*
D14*
Y839672D1*
X1088701Y838656D1*
X1198953Y868184D2*
Y839672D1*
X1104465D1*
X1340685Y868184D2*
Y846150D1*
Y839672D1*
X1198953D1*
X1370213Y681176D2*
X1350138D1*
X1340685D1*
D15*
Y581918D1*
Y557160D1*
X1008630Y849672D2*
D16*
X1020701D1*
X1039701Y830672D1*
X1080701D1*
D14*
Y820672D1*
X1088701Y812672D1*
Y732672D1*
X1084449Y728420D1*
X1059189D1*
Y838656D2*
X1019646D1*
X1008630Y849672D1*
X1059189Y822908D2*
X1035394D1*
X1008630Y849672D1*
X1454701Y916672D2*
D17*
X1401701D1*
D18*
X1357701Y872672D1*
D14*
X1345173D1*
D15*
X1340685Y868184D1*
X1357701Y872672D2*
D14*
Y863166D1*
D19*
X1340685Y846150D1*
X1454701Y916672D2*
D16*
X1434701D1*
D20*
X1423701Y905672D1*
X1470701D1*
X1507701Y868672D1*
X1543701D1*
X1578701Y903672D1*
D16*
X1626591D1*
X1636701Y913782D1*
X1131701Y586672D2*
D14*
X1090701D1*
X1087701Y589672D1*
Y602436D1*
X1636701Y913782D2*
D18*
X1951591D1*
X1982701Y882672D1*
X1340685Y868184D2*
D13*
Y690629D1*
X1350138Y681176D1*
X1467701Y572672D2*
D21*
X1430701Y535672D1*
D22*
X1346701D1*
D15*
Y557160D1*
X1340685D1*
X1346701D2*
D13*
Y575902D1*
X1340685Y581918D1*
X1059189Y759916D2*
D14*
X1005701D1*
Y766672D1*
X1420701Y722672D2*
D15*
Y712672D1*
X1370213D1*
X1449772Y728672D2*
D14*
Y723672D1*
X1420701D1*
Y722672D1*
X1183205Y557160D2*
Y681176D1*
X1214701Y712672D1*
X1198953Y557160D2*
Y696924D1*
X1214701Y712672D1*
Y557160D2*
Y687672D1*
X1216701Y689672D1*
X1151709Y557160D2*
Y649680D1*
X1214701Y712672D1*
X1113701Y611672D2*
X1138701D1*
X1216701Y689672D1*
X1370213Y696924D2*
X1409701D1*
Y681672D1*
X1420701D1*
X1419701Y682672D1*
X1253701Y872672D2*
X1250685D1*
D15*
X1246197Y868184D1*
X1253701Y872672D2*
D14*
X1257457D1*
D15*
X1261945Y868184D1*
X1159701Y872672D2*
D14*
X1156197D1*
D15*
X1151709Y868184D1*
X1159701Y872672D2*
D14*
X1162969D1*
D15*
X1167457Y868184D1*
X1309189D2*
X1313213D1*
D14*
X1317701Y872672D1*
X1320449D1*
D15*
X1324937Y868184D1*
X1059189Y744168D2*
D14*
X1022701D1*
Y735672D1*
X1216701Y773672D2*
Y689672D1*
X1150701Y915672D2*
X1181701D1*
X1214701Y868184D2*
D15*
Y889672D1*
D14*
X1204701Y899672D1*
X1197701D1*
X1181701Y915672D1*
X1159701Y872672D2*
X1178717D1*
D15*
X1183205Y868184D1*
X941701Y849672D2*
D17*
Y820672D1*
X1521630Y916672D2*
D16*
Y897672D1*
X1419701Y682672D2*
D23*
X1426701D1*
X1440701Y696672D1*
X1484701D1*
X1516701Y728672D1*
D16*
X1563701D1*
X1581701Y746672D1*
X1575701D1*
D24*
X1615701Y706672D1*
X1726701D1*
D16*
X1742701Y722672D1*
X1534630Y572672D2*
D17*
X1565701D1*
X1702701Y649672D2*
D16*
X1588701D1*
Y595672D1*
X1565701Y572672D1*
X1230449Y868184D2*
D14*
Y897491D1*
X1248630Y915672D1*
X1370213Y649680D2*
D13*
X1392693D1*
X1406701Y635672D1*
X1450772D1*
X1467772Y618672D1*
X1391441Y633932D2*
X1370213D1*
X1391441D2*
X1405701Y619672D1*
X1420701D1*
X1426701Y613672D1*
X1531701Y533672D2*
Y541672D1*
X1576701D1*
X1618701Y583672D1*
X1758701D1*
X1781701Y606672D1*
Y633672D1*
X1822701Y674672D1*
X1982701D1*
Y682672D1*
X1293441Y868184D2*
Y886412D1*
X1307701Y900672D1*
X1316701D1*
X1322701Y906672D1*
X1370213Y665428D2*
X1393945D1*
X1405701Y653672D1*
X1457772D1*
X1468772Y664672D1*
X1842701Y722672D2*
X1815701D1*
X1764701Y671672D1*
X1572701D1*
X1566701Y665672D1*
Y640672D1*
X1551701Y625672D1*
X1541701D1*
X1534701Y618672D1*
X1370213Y618184D2*
X1389189D1*
X1426701Y580672D1*
Y582672D1*
X1500701Y537672D2*
Y533672D1*
X1522701Y511672D1*
X1563701D1*
X1623701Y571672D1*
X1764701D1*
X1795701Y602672D1*
Y630672D1*
X1826701Y661672D1*
X1940701D1*
X1959701Y642672D1*
X2042701D1*
X2082701Y682672D1*
X1277693Y868184D2*
Y887664D1*
X1279701Y889672D1*
Y909672D1*
X1293701Y923672D1*
X1230449Y557160D2*
Y531420D1*
X1220701Y521672D1*
X1616701Y532672D2*
X1643701Y559672D1*
X1779701D1*
X1842701Y622672D1*
X1648630Y746672D2*
D17*
Y783743D1*
D18*
X1636701Y795672D1*
X1742701Y822672D2*
X1724630D1*
X1676692Y774734D1*
D17*
X1648630Y746672D1*
X1088717Y557160D2*
D13*
Y534656D1*
X1118701Y504672D1*
X1133171D1*
X1193701Y444142D1*
X1104465Y557160D2*
Y538908D1*
X1123701Y519672D1*
X1173701D1*
X1249201Y444172D1*
X1243701D1*
X1246197Y557160D2*
Y522176D1*
X1293701Y474672D1*
Y444201D1*
X1261945Y557160D2*
Y523428D1*
X1332701Y452672D1*
X1346701D1*
X1356701Y442672D1*
X1342142D1*
X1343701Y444231D1*
X1277693Y557160D2*
Y524680D1*
X1322701Y479672D1*
X1359701D1*
X1393701Y445672D1*
Y444260D1*
X1293441Y557160D2*
Y526932D1*
X1328701Y491672D1*
X1397701D1*
X1443701Y445672D1*
Y444289D1*
X1309189Y557160D2*
Y528184D1*
X1333701Y503672D1*
X1434348D1*
X1493701Y444319D1*
X1324937Y557160D2*
Y529436D1*
X1338701Y515672D1*
X1474701D1*
X1546025Y444348D1*
X1543701D1*
X1370213Y586688D2*
Y565184D1*
X1369701Y564672D1*
X1370213Y602436D2*
X1387937D1*
X1400701Y589672D1*
Y564672D1*
X1370213Y728420D2*
X1395449D1*
X1435701Y768672D1*
X1447701D1*
X1448701Y767672D1*
X1370213Y744168D2*
X1394197D1*
X1439701Y789672D1*
X1458701D1*
X1479701Y768672D1*
X1370213Y759916D2*
X1392945D1*
X1434701Y801672D1*
X1478701D1*
X1510701Y769672D1*
Y768672D1*
X1370213Y775664D2*
X1391693D1*
X1429701Y813672D1*
X1496701D1*
X1546701Y763672D1*
Y774672D1*
X1541701Y769672D1*
X1370213Y791412D2*
X1390441D1*
X1424701Y825672D1*
X1518701D1*
X1548701Y795672D1*
X1549701D1*
X1552701Y798672D1*
X1370213Y807160D2*
X1389189D1*
X1429701Y847672D1*
X1427701D1*
X1370213Y822908D2*
X1387937D1*
X1403701Y838672D1*
Y854672D1*
X1419701Y870672D1*
X1435701D1*
X1462701Y843672D1*
X1541701D1*
Y842672D1*
X1370213Y838656D2*
X1414229Y882672D1*
X1466701D1*
X1475701Y873672D1*
Y868672D1*
X1468701D1*
X1059189Y586688D2*
Y547184D1*
X1147701Y458672D1*
Y440113D1*
X1143701Y444113D1*
X1059189Y618184D2*
X1041213D1*
X1030701Y607672D1*
Y507084D1*
X1093701Y444084D1*
X1059189Y633932D2*
X1037961D1*
X1017701Y613672D1*
Y470054D1*
X1043701Y444054D1*
X1059189Y649680D2*
X1033709D1*
X1003701Y619672D1*
Y454025D1*
X993701Y444025D1*
X1059189Y665428D2*
X1030457D1*
X989701Y624672D1*
Y483672D1*
X950024Y443995D1*
X943701D1*
X1059189Y681176D2*
X1029205D1*
X976701Y628672D1*
Y519672D1*
X900995Y443966D1*
X893701D1*
X1059189Y696924D2*
X1025953D1*
X964701Y635672D1*
Y524672D1*
X913701Y473672D1*
X880701D1*
X850965Y443936D1*
X843701D1*
X1059189Y712672D2*
X1021701D1*
X952701Y643672D1*
Y529672D1*
X908701Y485672D1*
X832701D1*
X795701Y448672D1*
Y441907D1*
X793701Y443907D1*
X1059189Y775664D2*
X1028709D1*
X1015701Y788672D1*
X995701D1*
X940701Y733672D1*
Y534672D1*
X903701Y497672D1*
X803701D1*
X746803Y440776D1*
X743701Y443878D1*
X1059189Y791412D2*
X1030961D1*
X1019701Y802672D1*
X984701D1*
X927701Y745672D1*
Y538672D1*
X898701Y509672D1*
X765701D1*
X699877Y443848D1*
X693701D1*
X1059189Y807160D2*
X1032213D1*
X1022701Y816672D1*
X979701D1*
X875701Y712672D1*
Y535672D1*
X868701Y528672D1*
X736701D1*
X651848Y443819D1*
X643701D1*
X1088717Y868184D2*
X1052189D1*
X1041701Y878672D1*
X706701D1*
X501701Y673672D1*
Y542672D1*
X593701Y450672D1*
Y443789D1*
X543701Y443760D2*
X489701Y497760D1*
Y679672D1*
X704701Y894672D1*
X1112701D1*
X1119701Y887672D1*
Y868696D1*
X1120213Y868184D1*
X1135961D2*
Y888412D1*
X1116701Y907672D1*
X698701D1*
X477701Y686672D1*
Y466672D1*
X500642Y443731D1*
X493701D1*
D16*
X1005701Y766672D3*
X1420701Y722672D3*
D3*
D18*
X1419701Y682672D3*
D16*
X1022701Y735672D3*
D18*
X941701Y820672D3*
D45*
X1521630Y897672D3*
D18*
X1565701Y572672D3*
X1419701Y682672D3*
X941701Y820672D3*
D45*
X1521630Y897672D3*
D16*
X1426701Y613672D3*
X1531701Y533672D3*
X1322701Y906672D3*
X1426701Y582672D3*
X1500701Y537672D3*
X1293701Y923672D3*
X1220701Y521672D3*
X1616701Y532672D3*
X1317701Y872672D3*
X1448701Y767672D3*
X1479701Y768672D3*
X1510701D3*
X1541701Y769672D3*
X1552701Y798672D3*
X1427701Y847672D3*
X1541701Y842672D3*
X1468701Y868672D3*
X1115701Y812672D3*
X1113701Y611672D3*
X1313701Y613672D3*
Y811672D3*
X1216701Y689672D3*
Y773672D3*
X1159701Y872672D3*
X1253701D3*
D18*
X1150701Y915672D3*
D16*
X1369701Y564672D3*
X1400701D3*
D25*
X2093701Y444672D3*
X2043701Y444642D3*
X1993701Y444613D3*
X1943701Y444584D3*
X1893701Y444554D3*
X1843701Y444525D3*
X1793701Y444495D3*
X1743701Y444466D3*
X1693701Y444436D3*
X1643701Y444407D3*
X1593701Y444378D3*
X1543701Y444348D3*
X1493701Y444319D3*
X1443701Y444289D3*
X1393701Y444260D3*
X1343701Y444231D3*
X1293701Y444201D3*
X1243701Y444172D3*
X1193701Y444142D3*
X1143701Y444113D3*
X1093701Y444084D3*
X1043701Y444054D3*
X993701Y444025D3*
X943701Y443995D3*
X893701Y443966D3*
X843701Y443936D3*
X793701Y443907D3*
X743701Y443878D3*
X693701Y443848D3*
X643701Y443819D3*
X593701Y443789D3*
X543701Y443760D3*
X493701Y443731D3*
X443701Y443701D3*
D28*
X1088717Y557160D3*
X1104465D3*
X1120213D3*
X1135961D3*
X1151709D3*
X1167457D3*
X1183205D3*
X1198953D3*
X1214701D3*
X1230449D3*
X1246197D3*
X1261945D3*
X1277693D3*
X1293441D3*
X1309189D3*
X1324937D3*
X1340685D3*
D29*
X1370213Y586688D3*
Y602436D3*
Y618184D3*
Y633932D3*
Y649680D3*
Y665428D3*
Y681176D3*
Y696924D3*
Y712672D3*
Y728420D3*
Y744168D3*
Y759916D3*
Y775664D3*
Y791412D3*
Y807160D3*
Y822908D3*
Y838656D3*
D28*
X1340685Y868184D3*
X1324937D3*
X1309189D3*
X1293441D3*
X1277693D3*
X1261945D3*
X1246197D3*
X1230449D3*
X1214701D3*
X1198953D3*
X1183205D3*
X1167457D3*
X1151709D3*
X1135961D3*
X1120213D3*
X1104465D3*
X1088717D3*
D29*
X1059189Y838656D3*
Y822908D3*
Y807160D3*
Y791412D3*
Y775664D3*
Y759916D3*
Y744168D3*
Y728420D3*
Y712672D3*
Y696924D3*
Y681176D3*
Y665428D3*
Y649680D3*
Y633932D3*
Y618184D3*
Y602436D3*
Y586688D3*
D30*
X1214701Y712672D3*
D87*
D3*
D31*
X1181701Y915672D3*
X1248630D3*
X1516701Y728672D3*
X1449772D3*
X1534701Y618672D3*
X1467772D3*
X1535701Y664672D3*
X1468772D3*
X941701Y849672D3*
X1008630D3*
X1454701Y916672D3*
X1521630D3*
X1581701Y746672D3*
X1648630D3*
D32*
X1636701Y795672D3*
Y913782D3*
D33*
X1982701Y882672D3*
D34*
X2082701D3*
X1982701Y782672D3*
X2082701D3*
X1982701Y682672D3*
X2082701D3*
D33*
X1742701Y822672D3*
D34*
X1842701D3*
X1742701Y722672D3*
X1842701D3*
X1742701Y622672D3*
X1842701D3*
D33*
X498701Y893701D3*
D34*
X598701D3*
D31*
X1467701Y572672D3*
X1534630D3*
D35*
X561701Y551672D3*
D36*
X522701Y563672D3*
Y599672D3*
Y611672D3*
Y575672D3*
Y587672D3*
Y623672D3*
Y635672D3*
X588701D3*
X600701Y623672D3*
X522701Y647672D3*
D37*
X543701Y659672D3*
D36*
X612701Y611672D3*
X624701Y599672D3*
X636701Y587672D3*
X624701Y575672D3*
X612701Y563672D3*
X636701Y551672D3*
Y623672D3*
Y635672D3*
D38*
X648701Y647672D3*
D39*
X645701Y659672D3*
D36*
X666701Y635672D3*
X672701Y623672D3*
D40*
X687701Y611672D3*
D36*
X738701Y623672D3*
Y635672D3*
D39*
X729701Y659672D3*
D38*
X726701Y647672D3*
D36*
X687701Y599672D3*
X702701Y623672D3*
X708701Y635672D3*
D41*
X687701Y587672D3*
D36*
X762701Y575672D3*
X774701Y587672D3*
X786701Y599672D3*
X798701Y611672D3*
D35*
X777701Y551672D3*
D36*
X750701Y563672D3*
X852701Y551672D3*
Y563672D3*
Y599672D3*
Y611672D3*
Y575672D3*
Y587672D3*
Y623672D3*
Y635672D3*
X738701Y611672D3*
X852701Y659672D3*
X822701Y635672D3*
X810701Y623672D3*
D39*
X843701Y647672D3*
D36*
X738701Y599672D3*
Y587672D3*
D41*
X735701Y575672D3*
D42*
X729701Y563672D3*
D36*
X576701Y647672D3*
D42*
X645701Y575672D3*
D41*
X639701Y563672D3*
Y611672D3*
D42*
X645701Y599672D3*
D90*
X903701Y560672D3*
D93*
Y587672D3*
D96*
Y614672D3*
D99*
Y641672D3*
M02*
