G04 DipTrace 3.0.0.2*
G04 TopPaste.gbr*
%MOIN*%
G04 #@! TF.FileFunction,Paste,Top*
G04 #@! TF.Part,Single*
%AMOUTLINE2*
4,1,15,
-0.079063,-0.126,
-0.079937,-0.129937,
-0.079937,-0.128843,
-0.128843,-0.128843,
-0.128843,0.128843,
0.128843,0.128843,
0.128843,-0.128843,
0.015937,-0.128843,
0.015937,-0.124136,
0.124136,-0.124136,
0.124136,0.124136,
-0.124136,0.124136,
-0.124136,-0.124136,
-0.079937,-0.124136,
-0.079937,-0.122063,
-0.079063,-0.126,
0*%
%AMOUTLINE5*
4,1,6,
0.011063,-0.008063,
0.011063,0.008063,
0.012937,0.008063,
0.012937,-0.009937,
-0.011063,-0.009937,
-0.011063,-0.008063,
0.011063,-0.008063,
0*%
%AMOUTLINE8*
4,1,11,
0.011063,-0.005063,
0.011063,-0.006937,
-0.012937,-0.006937,
-0.012937,0.006937,
0.006937,0.006937,
0.006937,0.003635,
0.006127,0.005063,
-0.011063,0.005063,
-0.011063,-0.001369,
-0.007369,-0.005063,
-0.003,-0.005063,
0.011063,-0.005063,
0*%
%AMOUTLINE11*
4,1,14,
0.011063,-0.008063,
0.011063,0.008063,
0.000937,0.008063,
0.000937,0.002063,
-0.011063,0.002063,
-0.011063,-0.008063,
-0.012937,-0.008063,
-0.012937,0.003937,
-0.000937,0.003937,
-0.000937,0.009937,
0.012937,0.009937,
0.012937,-0.009937,
0.006937,-0.009937,
0.006937,-0.008063,
0.011063,-0.008063,
0*%
%AMOUTLINE14*
4,1,6,
0.006505,0.005063,
0.000937,0.005063,
0.000937,-0.012505,
-0.006505,-0.005063,
-0.000937,-0.005063,
-0.000937,0.012505,
0.006505,0.005063,
0*%
%ADD55R,-0.001874X-0.001874*%
%ADD57R,0.010126X-0.001874*%
%ADD59R,0.028126X-0.001874*%
%ADD61R,0.034126X-0.001874*%
%ADD63R,0.040126X-0.001874*%
%ADD65R,0.058126X-0.001874*%
%ADD67R,0.016126X-0.001874*%
%ADD69R,0.094126X-0.001874*%
%ADD75R,0.098425X0.037402*%
%ADD77R,0.035433X0.031496*%
%ADD79R,0.220472X0.220472*%
%ADD81R,0.025591X0.0*%
%ADD83R,0.0X0.025591*%
%ADD89OUTLINE2*%
%ADD92OUTLINE5*%
%ADD95OUTLINE8*%
%ADD98OUTLINE11*%
%ADD101OUTLINE14*%
%FSLAX26Y26*%
G04*
G70*
G90*
G75*
G01*
G04 TopPaste*
%LPD*%
D83*
X1088717Y557160D3*
X1104465D3*
X1120213D3*
X1135961D3*
X1151709D3*
X1167457D3*
X1183205D3*
X1198953D3*
X1214701D3*
X1230449D3*
X1246197D3*
X1261945D3*
X1277693D3*
X1293441D3*
X1309189D3*
X1324937D3*
X1340685D3*
D81*
X1370213Y586688D3*
Y602436D3*
Y618184D3*
Y633932D3*
Y649680D3*
Y665428D3*
Y681176D3*
Y696924D3*
Y712672D3*
Y728420D3*
Y744168D3*
Y759916D3*
Y775664D3*
Y791412D3*
Y807160D3*
Y822908D3*
Y838656D3*
D83*
X1340685Y868184D3*
X1324937D3*
X1309189D3*
X1293441D3*
X1277693D3*
X1261945D3*
X1246197D3*
X1230449D3*
X1214701D3*
X1198953D3*
X1183205D3*
X1167457D3*
X1151709D3*
X1135961D3*
X1120213D3*
X1104465D3*
X1088717D3*
D81*
X1059189Y838656D3*
Y822908D3*
Y807160D3*
Y791412D3*
Y775664D3*
Y759916D3*
Y744168D3*
Y728420D3*
Y712672D3*
Y696924D3*
Y681176D3*
Y665428D3*
Y649680D3*
Y633932D3*
Y618184D3*
Y602436D3*
Y586688D3*
D79*
X1214701Y712672D3*
D89*
D3*
D77*
X1181701Y915672D3*
X1248630D3*
X1516701Y728672D3*
X1449772D3*
X1534701Y618672D3*
X1467772D3*
X1535701Y664672D3*
X1468772D3*
X941701Y849672D3*
X1008630D3*
X1454701Y916672D3*
X1521630D3*
X1581701Y746672D3*
X1648630D3*
D75*
X1636701Y795672D3*
Y913782D3*
D77*
X1467701Y572672D3*
X1534630D3*
D69*
X561701Y551672D3*
D67*
X522701Y563672D3*
Y599672D3*
Y611672D3*
Y575672D3*
Y587672D3*
Y623672D3*
Y635672D3*
X588701D3*
X600701Y623672D3*
X522701Y647672D3*
D65*
X543701Y659672D3*
D67*
X612701Y611672D3*
X624701Y599672D3*
X636701Y587672D3*
X624701Y575672D3*
X612701Y563672D3*
X636701Y551672D3*
Y623672D3*
Y635672D3*
D63*
X648701Y647672D3*
D61*
X645701Y659672D3*
D67*
X666701Y635672D3*
X672701Y623672D3*
D59*
X687701Y611672D3*
D67*
X738701Y623672D3*
Y635672D3*
D61*
X729701Y659672D3*
D63*
X726701Y647672D3*
D67*
X687701Y599672D3*
X702701Y623672D3*
X708701Y635672D3*
D57*
X687701Y587672D3*
D67*
X762701Y575672D3*
X774701Y587672D3*
X786701Y599672D3*
X798701Y611672D3*
D69*
X777701Y551672D3*
D67*
X750701Y563672D3*
X852701Y551672D3*
Y563672D3*
Y599672D3*
Y611672D3*
Y575672D3*
Y587672D3*
Y623672D3*
Y635672D3*
X738701Y611672D3*
X852701Y659672D3*
X822701Y635672D3*
X810701Y623672D3*
D61*
X843701Y647672D3*
D67*
X738701Y599672D3*
Y587672D3*
D57*
X735701Y575672D3*
D55*
X729701Y563672D3*
D67*
X576701Y647672D3*
D55*
X645701Y575672D3*
D57*
X639701Y563672D3*
Y611672D3*
D55*
X645701Y599672D3*
D92*
X903701Y560672D3*
D95*
Y587672D3*
D98*
Y614672D3*
D101*
Y641672D3*
M02*
