G04 DipTrace 3.0.0.2*
G04 TopSilk.gbr*
%MOIN*%
G04 #@! TF.FileFunction,Legend,Top*
G04 #@! TF.Part,Single*
%ADD10C,0.009843*%
%ADD15C,0.007874*%
%ADD26C,0.001969*%
%ADD86C,0.004632*%
%FSLAX26Y26*%
G04*
G70*
G90*
G75*
G01*
G04 TopSilk*
%LPD*%
X1032614Y530586D2*
D26*
Y894759D1*
X1396788D1*
Y530586D1*
X1032614D1*
X1061166Y540418D2*
D15*
G02X1061166Y540418I3933J0D01*
G01*
X1685918Y838944D2*
D10*
Y870429D1*
X1587484Y838944D2*
Y870429D1*
X1932701Y824372D2*
Y632672D1*
Y932672D2*
Y632672D1*
X2132701Y932672D2*
Y632672D1*
X1932701Y932672D2*
X2132701D1*
X1932701Y632672D2*
X2132701D1*
X1692701Y764372D2*
Y572672D1*
Y872672D2*
Y572672D1*
X1892701Y872672D2*
Y572672D1*
X1692701Y872672D2*
X1892701D1*
X1692701Y572672D2*
X1892701D1*
X648701Y843701D2*
Y943701D1*
X448701Y843701D2*
X648701D1*
X448701D2*
Y943701D1*
X648701D1*
X2022488Y506606D2*
D86*
Y483658D1*
X2021062Y479347D1*
X2019603Y477921D1*
X2016751Y476462D1*
X2013866D1*
X2011014Y477921D1*
X2009588Y479347D1*
X2008129Y483658D1*
Y486510D1*
X2046110Y476462D2*
Y506573D1*
X2031751Y486510D1*
X2053273D1*
X989423Y711693D2*
Y690171D1*
X990849Y685860D1*
X993734Y683008D1*
X998045Y681549D1*
X1000897D1*
X1005208Y683008D1*
X1008093Y685860D1*
X1009519Y690171D1*
Y711693D1*
X1018783Y705922D2*
X1021668Y707382D1*
X1025979Y711659D1*
Y681549D1*
X1130697Y923128D2*
X1129271Y925980D1*
X1126386Y928865D1*
X1123534Y930291D1*
X1117797D1*
X1114912Y928865D1*
X1112060Y925980D1*
X1110601Y923128D1*
X1109175Y918817D1*
Y911621D1*
X1110601Y907343D1*
X1112060Y904458D1*
X1114912Y901606D1*
X1117797Y900147D1*
X1123534D1*
X1126386Y901606D1*
X1129271Y904458D1*
X1130697Y907343D1*
X1139960Y924521D2*
X1142845Y925980D1*
X1147156Y930258D1*
Y900147D1*
X1473318Y698128D2*
X1471892Y700980D1*
X1469007Y703865D1*
X1466155Y705291D1*
X1460418D1*
X1457533Y703865D1*
X1454681Y700980D1*
X1453222Y698128D1*
X1451796Y693817D1*
Y686621D1*
X1453222Y682343D1*
X1454681Y679458D1*
X1457533Y676606D1*
X1460418Y675147D1*
X1466155D1*
X1469007Y676606D1*
X1471892Y679458D1*
X1473318Y682343D1*
X1484040Y698095D2*
Y699521D1*
X1485466Y702406D1*
X1486892Y703832D1*
X1489777Y705258D1*
X1495514D1*
X1498366Y703832D1*
X1499792Y702406D1*
X1501251Y699521D1*
Y696669D1*
X1499792Y693784D1*
X1496940Y689506D1*
X1482581Y675147D1*
X1502677D1*
X1560959Y618932D2*
X1573859D1*
X1578170Y620391D1*
X1579629Y621817D1*
X1581055Y624669D1*
Y627554D1*
X1579629Y630406D1*
X1578170Y631865D1*
X1573859Y633291D1*
X1560959D1*
Y603147D1*
X1571007Y618932D2*
X1581055Y603147D1*
X1590318Y627521D2*
X1593203Y628980D1*
X1597514Y633258D1*
Y603147D1*
X1563509Y664932D2*
X1576409D1*
X1580720Y666391D1*
X1582179Y667817D1*
X1583605Y670669D1*
Y673554D1*
X1582179Y676406D1*
X1580720Y677865D1*
X1576409Y679291D1*
X1563509D1*
Y649147D1*
X1573557Y664932D2*
X1583605Y649147D1*
X1594327Y672095D2*
Y673521D1*
X1595753Y676406D1*
X1597179Y677832D1*
X1600064Y679258D1*
X1605801D1*
X1608653Y677832D1*
X1610079Y676406D1*
X1611538Y673521D1*
Y670669D1*
X1610079Y667784D1*
X1607227Y663506D1*
X1592868Y649147D1*
X1612964D1*
X971247Y899128D2*
X969821Y901980D1*
X966936Y904865D1*
X964084Y906291D1*
X958347D1*
X955462Y904865D1*
X952610Y901980D1*
X951151Y899128D1*
X949725Y894817D1*
Y887621D1*
X951151Y883343D1*
X952610Y880458D1*
X955462Y877606D1*
X958347Y876147D1*
X964084D1*
X966936Y877606D1*
X969821Y880458D1*
X971247Y883343D1*
X983395Y906258D2*
X999147D1*
X990558Y894784D1*
X994869D1*
X997721Y893358D1*
X999147Y891932D1*
X1000606Y887621D1*
Y884769D1*
X999147Y880458D1*
X996295Y877573D1*
X991984Y876147D1*
X987673D1*
X983395Y877573D1*
X981969Y879032D1*
X980510Y881884D1*
X1489534Y884128D2*
X1488108Y886980D1*
X1485223Y889865D1*
X1482371Y891291D1*
X1476634D1*
X1473749Y889865D1*
X1470897Y886980D1*
X1469438Y884128D1*
X1468012Y879817D1*
Y872621D1*
X1469438Y868343D1*
X1470897Y865458D1*
X1473749Y862606D1*
X1476634Y861147D1*
X1482371D1*
X1485223Y862606D1*
X1488108Y865458D1*
X1489534Y868343D1*
X1513156Y861147D2*
Y891258D1*
X1498797Y871195D1*
X1520319D1*
X1528976Y785128D2*
X1527550Y787980D1*
X1524665Y790865D1*
X1521813Y792291D1*
X1516076D1*
X1513191Y790865D1*
X1510339Y787980D1*
X1508880Y785128D1*
X1507454Y780817D1*
Y773621D1*
X1508880Y769343D1*
X1510339Y766458D1*
X1513191Y763606D1*
X1516076Y762147D1*
X1521813D1*
X1524665Y763606D1*
X1527550Y766458D1*
X1528976Y769343D1*
X1555451Y787980D2*
X1554025Y790832D1*
X1549714Y792258D1*
X1546862D1*
X1542551Y790832D1*
X1539666Y786521D1*
X1538240Y779358D1*
Y772195D1*
X1539666Y766458D1*
X1542551Y763573D1*
X1546862Y762147D1*
X1548288D1*
X1552566Y763573D1*
X1555451Y766458D1*
X1556877Y770769D1*
Y772195D1*
X1555451Y776506D1*
X1552566Y779358D1*
X1548288Y780784D1*
X1546862D1*
X1542551Y779358D1*
X1539666Y776506D1*
X1538240Y772195D1*
X1640806Y884354D2*
X1622136D1*
Y854210D1*
Y869995D2*
X1633610D1*
X1650070Y878584D2*
X1652955Y880043D1*
X1657266Y884321D1*
Y854210D1*
X2164201Y795606D2*
Y772658D1*
X2162775Y768347D1*
X2161316Y766921D1*
X2158464Y765462D1*
X2155579D1*
X2152727Y766921D1*
X2151301Y768347D1*
X2149842Y772658D1*
Y775510D1*
X2174923Y788410D2*
Y789836D1*
X2176349Y792721D1*
X2177775Y794147D1*
X2180660Y795573D1*
X2186397D1*
X2189249Y794147D1*
X2190675Y792721D1*
X2192134Y789836D1*
Y786984D1*
X2190675Y784099D1*
X2187823Y779821D1*
X2173464Y765462D1*
X2193560D1*
X1920651Y750606D2*
Y727658D1*
X1919225Y723347D1*
X1917766Y721921D1*
X1914914Y720462D1*
X1912029D1*
X1909177Y721921D1*
X1907751Y723347D1*
X1906292Y727658D1*
Y730510D1*
X1929914Y744836D2*
X1932799Y746295D1*
X1937110Y750573D1*
Y720462D1*
X524102Y821472D2*
X522676Y824324D1*
X519791Y827209D1*
X516939Y828635D1*
X511203D1*
X508317Y827209D1*
X505466Y824324D1*
X504006Y821472D1*
X502580Y817161D1*
Y809965D1*
X504006Y805687D1*
X505466Y802802D1*
X508317Y799950D1*
X511203Y798491D1*
X516939D1*
X519791Y799950D1*
X522676Y802802D1*
X524102Y805687D1*
Y809965D1*
X516939D1*
X553462Y828635D2*
Y798491D1*
X533366Y828635D1*
Y798491D1*
X562726Y828635D2*
Y798491D1*
X572774D1*
X577085Y799950D1*
X579970Y802802D1*
X581396Y805687D1*
X582822Y809965D1*
Y817161D1*
X581396Y821472D1*
X579970Y824324D1*
X577085Y827209D1*
X572774Y828635D1*
X562726D1*
X1498247Y539128D2*
X1496821Y541980D1*
X1493936Y544865D1*
X1491084Y546291D1*
X1485347D1*
X1482462Y544865D1*
X1479610Y541980D1*
X1478151Y539128D1*
X1476725Y534817D1*
Y527621D1*
X1478151Y523343D1*
X1479610Y520458D1*
X1482462Y517606D1*
X1485347Y516147D1*
X1491084D1*
X1493936Y517606D1*
X1496821Y520458D1*
X1498247Y523343D1*
X1524721Y546258D2*
X1510395D1*
X1508969Y533358D1*
X1510395Y534784D1*
X1514706Y536243D1*
X1518984D1*
X1523295Y534784D1*
X1526180Y531932D1*
X1527606Y527621D1*
Y524769D1*
X1526180Y520458D1*
X1523295Y517573D1*
X1518984Y516147D1*
X1514706D1*
X1510395Y517573D1*
X1508969Y519032D1*
X1507510Y521884D1*
X689973Y706606D2*
Y685084D1*
X691399Y680773D1*
X694284Y677921D1*
X698595Y676462D1*
X701447D1*
X705758Y677921D1*
X708643Y680773D1*
X710069Y685084D1*
Y706606D1*
X720792Y699410D2*
Y700836D1*
X722218Y703721D1*
X723644Y705147D1*
X726529Y706573D1*
X732266D1*
X735118Y705147D1*
X736544Y703721D1*
X738003Y700836D1*
Y697984D1*
X736544Y695099D1*
X733692Y690821D1*
X719333Y676462D1*
X739429D1*
X782165Y794209D2*
Y772687D1*
X783591Y768376D1*
X786476Y765524D1*
X790787Y764065D1*
X793639D1*
X797950Y765524D1*
X800835Y768376D1*
X802261Y772687D1*
Y794209D1*
X814409Y794176D2*
X830161D1*
X821572Y782702D1*
X825883D1*
X828735Y781276D1*
X830161Y779850D1*
X831620Y775539D1*
Y772687D1*
X830161Y768376D1*
X827309Y765491D1*
X822998Y764065D1*
X818687D1*
X814409Y765491D1*
X812983Y766950D1*
X811524Y769802D1*
M02*
